<?xml version="1.0" encoding="UTF-8"?>
<svg id="Calque_1" data-name="Calque 1" xmlns="http://www.w3.org/2000/svg" viewBox="0 0 1920 1080">
  <defs>
    <style>
      .cls-1 {
        fill: #ffaf00;
      }

      .cls-2 {
        fill: #3323a4;
      }
    </style>
  </defs>
  <g>
    <path class="cls-2" d="M665.75,321.63h-37.96l-220.96,238.36v36.45h215.74v81.11h43.18v-81.11h63.53v-38.49h-63.53v-236.33ZM622.58,383.31v174.65h-159.31c34.64-36.66,61.18-70.29,79.59-89.9,18.2-19.37,44.77-47.61,79.72-84.75Z"/>
    <path class="cls-2" d="M811.41,330.69c0,10.73-3.62,20.53-11.07,29.95-7.77,9.83-18.87,18.3-32.98,25.15-14.41,7.01-31.28,11.67-50.14,13.84l-8.16.94v37.2l10.21-1.07c22.92-2.4,43.67-7.6,61.67-15.45,10.7-4.67,20.3-10.35,28.71-16.97v273.26h43.18v-355.92h-41.41v9.06Z"/>
    <path class="cls-2" d="M1494.97,408.71c-12.72-26.98-30.63-48.38-53.26-63.61-19.74-13.29-42.13-20.87-66.68-22.66l.02-.43h-11.34s-.07,0-.1,0h-8.81s-272.23,0-272.23,0h0s-8.44,0-8.44,0c-.03,0-.07,0-.1,0h-8.83v.3c-25.53,1.44-48.83,9.05-69.35,22.78-22.78,15.23-40.77,36.64-53.49,63.62-12.58,26.71-18.95,57.56-18.95,91.72s6.38,64.55,18.96,91.11c12.71,26.85,30.72,48.12,53.51,63.21,20.5,13.59,43.8,21.12,69.32,22.55v.3h308.39v-.33c25.12-1.58,47.99-9.12,68.09-22.53,22.64-15.09,40.56-36.35,53.29-63.2,12.58-26.58,18.96-57.23,18.96-91.11s-6.38-65-18.96-91.72ZM1074.55,641.05c-21.17,0-40.16-5.84-56.43-17.36-16.46-11.62-29.46-28.18-38.66-49.21-9.35-21.38-14.09-46.3-14.09-74.06s4.74-53.17,14.1-74.7c9.21-21.17,22.23-37.88,38.69-49.64,16.28-11.63,35.25-17.54,56.39-17.54h8.81v-.07s272.23,0,272.23,0v.07h8.44c20.83,0,39.51,5.89,55.52,17.5,16.2,11.76,29.02,28.46,38.11,49.63,9.23,21.54,13.91,46.69,13.91,74.74s-4.68,52.71-13.91,74.1c-9.07,21.03-21.88,37.59-38.08,49.21-15.99,11.49-34.68,17.31-55.55,17.31h-8.44v.07h-272.23v-.07s-8.81,0-8.81,0Z"/>
  </g>
  <g>
    <path class="cls-2" d="M1201.94,725.06c-9.75-5.33-20.67-8.04-32.45-8.04s-22.44,2.65-32.24,7.89c-9.82,5.25-17.71,12.59-23.44,21.81-5.76,9.26-8.67,19.75-8.67,31.18s2.94,21.93,8.74,31.19c5.78,9.22,13.67,16.53,23.44,21.73,9.75,5.19,20.53,7.82,32.03,7.82s22.55-2.66,32.31-7.89c9.77-5.25,17.64-12.61,23.37-21.88,5.75-9.3,8.67-19.72,8.67-30.96s-2.87-21.5-8.53-30.8c-5.64-9.27-13.46-16.68-23.23-22.03ZM1219.82,777.9c0,9.04-2.32,17.33-6.9,24.62-4.6,7.33-10.79,13.16-18.4,17.33-7.62,4.18-15.99,6.29-24.89,6.29s-17.6-2.12-25.3-6.29c-7.7-4.17-13.94-10-18.53-17.33-4.58-7.3-6.9-15.58-6.9-24.62s2.32-17.32,6.9-24.62c4.6-7.33,10.84-13.18,18.54-17.4,7.7-4.22,16.21-6.36,25.29-6.36s17.29,2.14,24.96,6.36c7.65,4.22,13.84,10.07,18.4,17.4,4.54,7.3,6.84,15.58,6.84,24.62Z"/>
    <path class="cls-2" d="M1345.11,730.8c0,20.07.11,36.82.33,49.76.21,12.51.79,25.45,1.71,38.48-9.71-13.53-19.62-26.73-29.48-39.23-10.15-12.87-20.56-25.87-30.97-38.63-4.97-6.08-10.81-13.07-17.87-21.38l-.37-.43h-11.44v116.78h13.07v-15.24c0-19.45-.11-35.26-.34-46.98-.21-11.11-.78-23.05-1.69-35.51,8.15,10.97,16.55,21.88,24.97,32.46,8.72,10.97,17.31,21.6,25.54,31.63,4.99,5.96,9.56,11.46,13.96,16.81,4.64,5.65,9.26,11.16,13.71,16.4l.37.43h11.44v-116.78h-12.94v11.44Z"/>
    <path class="cls-2" d="M1471.62,823.51c-14.83,0-27.6.12-37.96.37-10.16.24-20.82.84-31.7,1.79l-.74-.74c.85-7.33,1.3-14.75,1.34-22.07.05-7.37-.36-14.72-1.21-21.87l.55-.66c10.16.94,20.1,1.54,29.55,1.78,9.69.24,21.58.37,35.35.37h1.23v-12.49h-1.23c-13.86,0-25.75.12-35.35.37-9.41.24-19.32.8-29.45,1.64l-.65-.7c.5-4.25.86-8.53,1.07-12.75.22-4.43.2-9.01-.07-13.56-.09-4.39-.47-9.29-1.12-14.58l.65-.54c8.53.76,16.91,1.26,24.91,1.5,8.18.24,18.11.32,29.51.22h14.93v-12.2h-81.29v116.78h82.9v-12.63h-1.23Z"/>
    <path class="cls-2" d="M1031.73,788.24h1.23c6.93,0,13.96-.22,20.78-.65l23.55.61c-1.59,6.96-4.39,13.25-8.35,18.71-4.38,6.04-10.05,10.81-16.86,14.16-6.83,3.37-14.68,5.07-23.33,5.07s-17.41-1.81-25.24-5.38c-7.76-3.54-14.16-8.98-19.03-16.16-4.83-7.14-7.28-15.97-7.28-26.26s2.3-18.53,6.84-25.87c4.55-7.37,10.71-13.09,18.3-17.02,7.63-3.94,16.11-5.94,25.18-5.94,9.96,0,19.04,2.38,27.01,7.07,7.92,4.67,13.82,11.24,17.54,19.53l.49,1.09,11.63-4.71-.47-1.28c-2.75-7.49-7.08-13.88-12.86-18.98-5.73-5.06-12.47-8.9-20.02-11.43-7.51-2.51-15.4-3.79-23.46-3.79-11.77,0-22.63,2.58-32.29,7.66-9.69,5.11-17.45,12.37-23.05,21.61-5.62,9.25-8.46,19.98-8.46,31.9s2.75,22.03,8.19,31.23c5.42,9.18,13.07,16.43,22.72,21.55,9.61,5.09,20.59,7.67,32.63,7.67s22.68-2.67,31.29-7.93c8.39-5.12,14.82-12.6,19.13-22.24l.22.03v19c.09,1.54.13,3.57.13,6.06v1.34h11.19v-58.42h-57.39v11.75Z"/>
  </g>
  <g>
    <polygon class="cls-1" points="1635.99 240.85 1635.99 401.17 1594.96 401.17 1594.96 281.13 1472.66 281.13 1472.66 240.85 1635.99 240.85"/>
    <polygon class="cls-1" points="284.78 757.23 284.78 596.91 325.82 596.91 325.82 716.95 448.11 716.95 448.11 757.23 284.78 757.23"/>
  </g>
</svg>