<svg xmlns="http://www.w3.org/2000/svg" viewBox="30 30 212.551 173.077" width="212.551px" height="173.077px">
  <path opacity="0.2" d="M164.773 32.3725H104.911V31.0477H164.773V32.3725Z" fill="#090B20"/>
  <path d="M127.978 57.4999V85.6608H112.292V57.4999H127.978ZM137.593 63.6071C142.594 63.6095 147.481 65.103 151.638 67.8989C155.795 70.6948 159.035 74.6675 160.947 79.3149C162.86 83.9623 163.36 89.0757 162.383 94.0087C161.407 98.9417 158.999 103.473 155.463 107.029C151.926 110.586 147.421 113.008 142.517 113.99C137.612 114.971 132.529 114.468 127.908 112.545C123.288 110.621 119.338 107.362 116.559 103.181C113.779 98.9996 112.295 94.0834 112.292 89.0536H127.978C127.993 90.9453 128.563 92.7904 129.617 94.3572C130.671 95.9239 132.162 97.1424 133.902 97.8595C135.642 98.5767 137.555 98.7605 139.399 98.3878C141.242 98.0152 142.936 97.1027 144.266 95.7651C145.596 94.4274 146.503 92.7242 146.873 90.8696C147.244 89.015 147.061 87.0915 146.348 85.341C145.635 83.5905 144.424 82.091 142.866 81.0309C141.308 79.9708 139.474 79.3973 137.593 79.3826V63.6071Z" fill="#090B20"/>
  <path d="M191.951 142H164.674V138.469H188.441V114.565H191.952V141.999L191.951 142ZM105.404 142H80.5986V114.565H84.1114V138.469H105.404V142ZM191.951 54.9497H188.441V33.5332H164.674V30H191.951V54.9497ZM84.1101 54.9497H80.5986V30H105.404V33.5332H84.1114L84.1101 54.9497Z" fill="#090B20"/>
  <path opacity="0.2" d="M164.773 141.005H104.911V139.68H164.773V141.005Z" fill="#090B20"/>
  <path opacity="0.2" d="M189.504 114.807V54.5973H190.821V114.807H189.504Z" fill="#090B20"/>
  <path opacity="0.2" d="M81.4993 114.807V54.5973H82.8164V114.807H81.4993Z" fill="#090B20"/>
  <path d="M44.592 203.077C39.9307 203.077 36.3333 201.439 33.8 198.163C31.2667 194.852 30 190.157 30 184.077C30 177.457 31.2667 172.289 33.8 168.573C36.3671 164.858 40.032 163 44.7947 163C48.5102 163 51.5164 164.03 53.8133 166.091C56.1102 168.151 56.6667 169.667 56.6667 169.667L51.3333 173C51.3333 173 50.2498 171.478 49.1013 170.6C47.9867 169.722 46.5511 169.283 44.7947 169.283C39.4916 169.283 36.84 173.184 36.84 180.987C38.8667 178.183 41.7716 176.781 45.5547 176.781C47.9867 176.781 50.1316 177.305 51.9893 178.352C53.8471 179.365 55.2996 180.835 56.3467 182.76C57.3938 184.652 57.9173 186.881 57.9173 189.448C57.9173 192.083 57.3431 194.447 56.1947 196.541C55.08 198.602 53.5093 200.206 51.4827 201.355C49.456 202.503 47.1591 203.077 44.592 203.077ZM44.4907 196.845C46.416 196.845 47.9191 196.17 49 194.819C50.0809 193.434 50.6213 191.677 50.6213 189.549C50.6213 187.421 50.0809 185.716 49 184.432C47.9191 183.148 46.416 182.507 44.4907 182.507C42.464 182.507 40.8258 183.165 39.576 184.483C38.36 185.766 37.752 187.455 37.752 189.549C37.752 191.711 38.36 193.468 39.576 194.819C40.8258 196.17 42.464 196.845 44.4907 196.845Z" fill="#090B20"/>
  <path d="M71.1742 202.368C66.7493 202.368 64.5369 200.291 64.5369 196.136V179.416H60.3315V173.944H64.5369V163.709H71.3769V173.944H76.8489V179.416H71.3769V194.059C71.3769 194.937 71.512 195.596 71.7822 196.035C72.0862 196.474 72.728 196.693 73.7075 196.693H76.7982V202.368H71.1742Z" fill="#090B20"/>
  <path d="M93.5194 202.925C90.6483 202.925 88.1149 202.3 85.9194 201.051C83.7238 199.801 82.018 198.078 80.802 195.883C79.6198 193.653 79.0287 191.137 79.0287 188.333C79.0287 185.732 79.5523 183.3 80.5994 181.037C81.6803 178.74 83.2847 176.883 85.4127 175.464C87.5745 174.045 90.2092 173.336 93.3167 173.336C95.8838 173.336 98.2483 173.876 100.41 174.957C102.572 176.004 104.311 177.643 105.629 179.872C106.946 182.068 107.605 184.804 107.605 188.08V189.549H86.122C86.2234 190.732 86.578 191.846 87.186 192.893C87.8616 194.211 88.7567 195.241 89.8714 195.984C91.0198 196.693 92.3203 197.048 93.7727 197.048C95.3265 197.048 96.6607 196.66 97.7754 195.883C98.89 195.072 99.6838 194.042 100.157 192.792H107.149C106.237 195.798 104.632 198.247 102.335 200.139C100.038 201.996 97.0998 202.925 93.5194 202.925ZM100.613 184.432C100.478 183.351 100.123 182.473 99.5487 181.797C98.9069 180.818 98.0625 180.075 97.0154 179.568C95.9683 179.028 94.8029 178.757 93.5194 178.757C92.2358 178.757 91.0705 179.011 90.0234 179.517C89.01 180.024 88.1825 180.784 87.5407 181.797C86.9327 182.54 86.5612 183.419 86.426 184.432H100.613Z" fill="#090B20"/>
  <path d="M111.59 202.368V173.944H118.43V177.541C119.51 176.055 120.676 174.991 121.926 174.349C123.209 173.674 124.628 173.336 126.182 173.336C128.073 173.336 129.678 173.724 130.995 174.501C132.312 175.278 133.19 176.41 133.63 177.896C134.542 176.308 135.69 175.16 137.075 174.451C138.46 173.708 140.098 173.336 141.99 173.336C145.097 173.336 147.428 174.248 148.982 176.072C150.535 177.896 151.312 180.446 151.312 183.723V202.368H144.472V184.584C144.472 180.835 142.986 178.96 140.014 178.96C138.595 178.96 137.463 179.416 136.619 180.328C135.977 181.037 135.521 181.949 135.251 183.064C135.014 184.179 134.896 185.597 134.896 187.32V202.368H128.056V184.584C128.056 182.692 127.668 181.291 126.891 180.379C126.114 179.433 124.999 178.96 123.547 178.96C122.128 178.96 120.98 179.45 120.102 180.429C119.527 181.105 119.105 181.983 118.835 183.064C118.565 184.111 118.43 185.53 118.43 187.32V202.368H111.59Z" fill="#090B20"/>
  <path d="M164.552 202.925C161.783 202.925 159.536 202.199 157.814 200.747C156.091 199.26 155.23 197.2 155.23 194.565C155.23 191.728 156.311 189.566 158.472 188.08C160.026 186.999 162.239 186.188 165.11 185.648L173.571 184.077C173.504 182.321 173.048 180.987 172.203 180.075C171.359 179.163 170.092 178.707 168.403 178.707C167.086 178.707 165.92 179.095 164.907 179.872C163.928 180.649 163.32 181.696 163.083 183.013H156.294C156.767 179.872 158.152 177.474 160.448 175.819C162.745 174.164 165.414 173.336 168.454 173.336C170.176 173.336 171.781 173.589 173.267 174.096C174.753 174.569 176.02 175.278 177.067 176.224C178.114 177.136 178.874 178.2 179.347 179.416C179.82 180.632 180.107 181.848 180.208 183.064C180.344 184.28 180.411 185.783 180.411 187.573V202.368H173.571V198.517C172.862 199.767 172 200.713 170.987 201.355C169.4 202.402 167.255 202.925 164.552 202.925ZM166.224 197.555C167.576 197.555 168.792 197.284 169.872 196.744C171.291 196.035 172.271 195.089 172.811 193.907C173.352 192.724 173.656 191.12 173.723 189.093L166.934 190.461C165.11 190.799 163.792 191.34 162.982 192.083C162.374 192.691 162.07 193.434 162.07 194.312C162.07 195.359 162.441 196.17 163.184 196.744C163.961 197.284 164.975 197.555 166.224 197.555Z" fill="#090B20"/>
  <path d="M194.183 202.368C189.758 202.368 187.546 200.291 187.546 196.136V179.416H183.341V173.944H187.546V163.709H194.386V173.944H199.858V179.416H194.386V194.059C194.386 194.937 194.521 195.596 194.791 196.035C195.095 196.474 195.737 196.693 196.717 196.693H199.807V202.368H194.183Z" fill="#090B20"/>
  <path d="M210.489 202.368H203.649V173.944H210.489V202.368ZM207.094 170.803C205.912 170.803 204.915 170.448 204.105 169.739C203.294 169.029 202.889 168.084 202.889 166.901C202.889 165.787 203.294 164.858 204.105 164.115C204.915 163.372 205.912 163 207.094 163C208.242 163 209.222 163.372 210.033 164.115C210.877 164.858 211.299 165.787 211.299 166.901C211.299 168.05 210.894 168.996 210.083 169.739C209.273 170.448 208.276 170.803 207.094 170.803Z" fill="#090B20"/>
  <path d="M222.588 202.368H215.748V163.709H222.588V184.432L232.975 173.944H241.639L229.074 186.256L242.551 202.368H234.14L222.588 188.232V202.368Z" fill="#090B20"/>
</svg>
