<?xml version="1.0" encoding="UTF-8"?>
<svg xmlns="http://www.w3.org/2000/svg" version="1.1" viewBox="0 0 196 55">
  <defs>
    <style>
      .cls-1 {
        fill: #ee7408;
      }

      .cls-2 {
        fill: #ee7307;
      }
    </style>
  </defs>
  <!-- Generator: Adobe Illustrator 28.7.4, SVG Export Plug-In . SVG Version: 1.2.0 Build 166)  -->
  <g>
    <g id="Calque_1">
      <g>
        <path d="M0,54.1C8.1,36.3,16.1,18.7,24.2.8c8.1,17.8,16.1,35.5,24.1,53.2-.2.2-.5.2-.7.2h-14.8c-.6,0-.8-.3-1.1-.8-4-8.7-8-17.4-12-26.1,0-.1-.1-.2-.2-.4-1.1,2.4-2.1,4.8-3.1,7.1-2.8,6.5-5.6,12.9-8.4,19.4-.2.6-.5.8-1.1.8H0Z"/>
        <path d="M104.9,24.5v13.3c0,.9.2,1.2,1,1.1h2.5c.4,0,.6,0,.6.6v3.9c0,.5,0,.7-.6.6h-2.8c-.6,0-.8.2-.8.9v8c0,.7,0,1-.8.9-2.8,0-5.6-.2-8.5-.2s-.8-.3-.8-1v-7.4c0-.7,0-.9-.8-.9h-15.1c-.7,0-.8-.3-.9-1-.3-2.7.5-4.9,1.9-7.2,4.9-8.4,9.7-17,14.5-25.5.3-.5.6-.8,1.2-.7h8.5c.6,0,.8.2.8.9v13.6h.1ZM84.2,38.5c.3.2.5.2.7.2h9.2c.7,0,.8-.2.8-1v-16.8l-10.7,17.6Z"/>
        <path d="M51.8,40.6v-12.3c0-.9-.4-1.3-1.2-1.3h-5.6c-.5,0-.7-.1-.7-.7v-2.4c0-.7.2-.8.7-.8h21.1c.6,0,.8.2.8.8v2.2c0,.7,0,.9-.7.9h-6.2c-.6,0-.8.2-.8.9v25.1c0,1-.2,1.1-1,1.1-1.9,0-3.8,0-5.7,0-.6,0-.7-.2-.7-.8,0-4.3,0-8.6,0-12.8Z"/>
        <path d="M68,38.4v-14.5c0-.7.2-1,.8-1h6.5c.5,0,.7.1.7.8v29.4c0,.6,0,.8-.7.8h-6.6c-.7,0-.7-.3-.7-.9,0-4.9,0-9.8,0-14.6Z"/>
        <path class="cls-1" d="M72,10.3c1,0,2,.3,2.8.9.8.6,1.5,1.4,1.8,2.3.4.9.5,2,.3,3s-.7,1.9-1.4,2.7c-.7.7-1.6,1.2-2.5,1.4-1,.2-2,.1-2.9-.3s-1.7-1-2.3-1.9c-.6-.9-.9-1.9-.9-2.9,0-2.8,2.2-5.2,5-5.3h0Z"/>
        <path class="cls-2" d="M149.3,53.9h-4.5c-.3,0-.6,0-.8-.4-1.3-2.9-2.6-5.9-3.9-8.9h1.5c1.7-.2,3-1.6,3-3.4s-.9-3.2-2.6-3.6q-2.3-.5-2.3,2.1v13.2c0,.8-.1,1.1-.9,1.1h-3.3c-.5,0-.7-.2-.7-.8v-17.1c0-.4,0-.8.5-.8,3.1,0,6.2-.2,9.3.2,1,0,2,.5,2.8,1.2,2.9,2.2,2.6,6.7-.5,8.7-.9.5-1.1,1.3-.6,2.4l3,6.2h0Z"/>
        <path class="cls-2" d="M149.8,44.4c0-1.2.2-2.5.6-3.6.4-1.1,1-2.2,1.8-3.1.8-.9,1.7-1.6,2.7-2,1-.5,2.1-.7,3.2-.7,5,0,8.8,4.1,8.8,9.4s-3.8,9.5-8.5,9.4c-4.9,0-8.7-4.2-8.7-9.4h0ZM162.2,44.3c0-1.8-.2-3.5-1-5.1-.7-1.3-1.6-2.1-3-2.1s-2.3.9-2.8,2.3c-1.3,3.5-1.2,6.9.2,10.3.6,1.4,1.6,2.3,3.1,2.2s2.2-1.2,2.7-2.6c.6-1.6.6-3.3.7-5h.1Z"/>
        <path class="cls-2" d="M182.2,44.5v-8.4c0-.4-.1-.9.5-.9,3,0,6.1-.2,9.1.4,2.3.5,4.1,2.9,4.1,5.3s-1.7,4.6-4.1,5.2c-1.4.3-2.7.3-4.1.2-.7,0-.9.2-.9,1v5.7c0,.8-.2.9-.8.9h-2.9c-.7,0-1-.2-1-1.1v-8.3h0ZM186.8,40.9v2.5c0,.5.1.7.5.7,1.2.2,2.4,0,3.2-1.2.7-1.1.9-2.4.3-3.7-.6-1.3-1.8-1.7-3-1.7s-1.1.3-1,1.2v2.1h0Z"/>
        <path class="cls-2" d="M180.9,42.3v5.1c.2,2.9-1.2,4.6-3.2,5.8-2.7,1.6-6,.9-8.2-1.4-1.1-1.1-1.7-2.5-1.6-4.2v-11.5c0-.7.1-.9.7-.9h3c.6,0,.8.2.8.9v11.4c0,2,1.2,3.7,2.8,4,1.8.3,3.2-1,3.3-3.4v-11.8c0-.7.2-.9.8-.9q1.6,0,1.6,1.7v5.3h0Z"/>
        <path class="cls-2" d="M133.9,48.2c0,2.9-.6,3-1.9,4-3.7,2.9-9.3,2.1-12.2-1.7-2.2-3-2.5-6.3-.8-10,.7-1.7,1.9-3.1,3.4-4s3.2-1.2,4.8-1c2.2.3,4,1.4,5.4,3.3.3.5.4.8-.1,1.1s-1,.9-1.5.9-.6-.9-.8-1.5c-1.1-2.5-5.2-2.8-6.5,0-1.6,3.5-1.6,7,0,10.4,1.2,2.6,4.2,2.6,6,.8.3-.3.2-.6.2-.9v-3.1c0-.8.2-.9.8-.9h2.2c.7,0,.9.3.8,1v1.5h.2Z"/>
      </g>
    </g>
  </g>
</svg>