<svg viewBox="0 0 699 169" fill="none" xmlns="http://www.w3.org/2000/svg">
  <g clip-path="url(#clip0_21_29)">
    <path d="M435.581 142.834V148.703C435.581 154.618 431.105 159.008 423.058 159.008C415.012 159.008 410.505 154.618 410.505 147.613V138.054C410.505 131.033 414.981 126.659 423.058 126.659C429.515 126.659 433.335 129.243 435.004 133.976C435.362 135.034 435.097 135.517 434.084 135.906L431.667 136.747C430.606 137.136 430.169 136.918 429.78 135.828C428.766 133.151 426.708 131.796 423.058 131.796C418.489 131.796 415.994 133.991 415.994 138.023V147.675C415.994 151.707 418.536 153.902 423.058 153.902C427.581 153.902 430.138 151.707 430.138 148.78V146.414H423.557C422.466 146.414 422.06 146.025 422.06 144.873V142.849C422.06 141.713 422.45 141.355 423.557 141.355H434.099C435.238 141.355 435.596 141.713 435.596 142.849L435.581 142.834Z" fill="black"/>
    <path d="M451.175 135.252C452.189 135.252 452.532 135.563 452.532 136.607V138.537C452.532 139.549 452.173 139.891 451.175 139.891H449.6C447.885 139.891 446.575 140.063 445.389 140.421C445.031 140.514 445 140.732 445 140.95V157.047C445 158.059 444.641 158.401 443.643 158.401H441.273C440.259 158.401 439.916 158.043 439.916 157.047V139.066C439.916 137.665 440.228 137.136 441.631 136.575C443.253 135.968 445.842 135.346 449.803 135.268H451.206L451.175 135.252Z" fill="black"/>
    <path d="M464.259 135.252C470.839 135.252 474.364 138.584 474.364 144.017V150.244C474.364 155.677 470.855 159.008 464.259 159.008C457.662 159.008 454.153 155.677 454.153 150.244V144.017C454.153 138.584 457.756 135.252 464.259 135.252ZM464.259 139.845C461.046 139.845 459.253 141.339 459.253 144.017V150.244C459.253 152.875 461.062 154.416 464.259 154.416C467.455 154.416 469.264 152.875 469.264 150.244V144.017C469.264 141.339 467.502 139.845 464.259 139.845Z" fill="black"/>
    <path d="M497.989 137.182V155.023C497.989 156.377 497.631 157 496.274 157.561C494.48 158.261 491.876 159.008 487.666 159.008C481.381 159.008 478.527 155.724 478.527 150.197V137.167C478.527 136.155 478.886 135.859 479.884 135.859H482.255C483.268 135.859 483.611 136.171 483.611 137.167V150.01C483.611 152.953 485.155 154.354 488.399 154.354C490.067 154.354 491.252 154.182 492.438 153.824C492.796 153.7 492.874 153.435 492.874 153.077V137.167C492.874 136.155 493.233 135.859 494.231 135.859H496.648C497.662 135.859 497.958 136.171 497.958 137.167L497.989 137.182Z" fill="black"/>
    <path d="M513.194 135.252C519.525 135.252 522.41 138.49 522.41 144.11V149.855C522.41 155.724 519.291 159.024 512.664 159.024C510.823 159.024 509.233 158.541 508.048 158.23V166.699C508.048 167.711 507.689 168.053 506.691 168.053H504.321C503.307 168.053 502.964 167.695 502.964 166.699V139.035C502.964 137.634 503.276 137.105 504.679 136.529C506.441 135.875 509.108 135.252 513.194 135.252ZM512.445 139.891C510.823 139.891 509.545 140.063 508.453 140.374C508.094 140.514 508.063 140.639 508.063 140.95V153.715C509.077 153.98 510.605 154.369 512.274 154.369C515.751 154.369 517.326 152.828 517.326 149.683V144.25C517.326 141.401 515.611 139.907 512.445 139.907V139.891Z" fill="black"/>
    <path d="M536.258 135.252C543.244 135.252 546.409 139.284 546.409 144.204V146.788C546.409 147.924 545.973 148.671 544.476 148.671H531.174V150.244C531.174 153.093 532.983 154.634 536.18 154.634C538.768 154.634 540.437 153.762 541.357 152.314C542.059 151.349 542.542 151.225 543.603 151.785L545.146 152.626C546.16 153.108 546.285 153.856 545.677 154.821C544.102 157.405 541.154 159.024 536.195 159.024C528.991 159.024 526.09 155.039 526.09 149.637V144.593C526.09 138.63 529.646 135.252 536.273 135.252H536.258ZM536.258 139.549C532.967 139.549 531.158 141.168 531.158 143.892V144.951H541.31V143.892C541.31 141.168 539.595 139.549 536.258 139.549Z" fill="black"/>
    <path d="M571.438 126.659C577.723 126.659 580.889 128.9 582.994 133.228C583.477 134.24 583.212 134.77 582.167 135.252L579.75 136.311C578.783 136.747 578.347 136.575 577.816 135.563C576.631 133.244 574.916 131.874 571.454 131.874C567.15 131.874 565.092 133.182 565.092 135.906C565.092 139.066 568.694 139.627 572.686 140.078C577.863 140.654 583.805 142.009 583.805 149.325C583.805 155.163 579.376 159.008 571.282 159.008C564.468 159.008 561.053 156.471 559.244 151.723C558.854 150.633 559.119 150.15 560.164 149.792L562.534 148.921C563.594 148.563 564.031 148.78 564.468 149.839C565.559 152.423 567.898 153.918 571.282 153.918C575.852 153.918 578.269 152.517 578.269 149.356C578.269 146.196 575.056 145.667 571.329 145.278C566.012 144.702 559.431 143.783 559.431 136.108C559.431 130.535 563.563 126.643 571.47 126.643L571.438 126.659Z" fill="black"/>
    <path d="M607.056 137.183V159.149C607.056 164.893 604.327 168.707 597.434 168.707C592.647 168.707 589.84 167.088 588.296 164.504C587.641 163.539 587.813 162.838 588.826 162.309L590.495 161.39C591.555 160.861 592.039 161.001 592.74 161.92C593.66 163.367 594.939 164.161 597.31 164.161C600.382 164.161 601.972 162.542 601.972 159.429V157.374C600.662 157.685 598.947 157.981 596.748 157.981C590.464 157.981 587.61 154.696 587.61 149.17V137.198C587.61 136.186 587.969 135.89 588.967 135.89H591.337C592.351 135.89 592.694 136.202 592.694 137.198V148.998C592.694 151.941 594.237 153.342 597.481 153.342C599.274 153.342 600.818 153.03 601.957 152.735V137.214C601.957 136.202 602.315 135.906 603.313 135.906H605.73C606.744 135.906 607.04 136.217 607.04 137.214L607.056 137.183Z" fill="black"/>
    <path d="M622.432 135.252C628.716 135.252 631.57 138.49 631.57 144.063V157.047C631.57 158.059 631.258 158.401 630.26 158.401H627.843C626.829 158.401 626.486 158.043 626.486 157.047V144.204C626.486 141.308 624.943 139.907 621.746 139.907C620.03 139.907 618.674 140.171 617.535 140.483C617.317 140.576 617.223 140.748 617.223 140.919V157.047C617.223 158.059 616.865 158.401 615.867 158.401H613.496C612.483 158.401 612.14 158.043 612.14 157.047V139.237C612.14 137.836 612.451 137.307 613.855 136.747C615.617 136.046 618.284 135.252 622.463 135.252H622.432Z" fill="black"/>
    <path d="M645.839 135.252C652.42 135.252 655.944 138.584 655.944 144.017V150.244C655.944 155.677 652.435 159.008 645.839 159.008C639.242 159.008 635.734 155.677 635.734 150.244V144.017C635.734 138.584 639.336 135.252 645.839 135.252ZM645.839 139.845C642.626 139.845 640.833 141.339 640.833 144.017V150.244C640.833 152.875 642.642 154.416 645.839 154.416C649.036 154.416 650.845 152.875 650.845 150.244V144.017C650.845 141.339 649.082 139.845 645.839 139.845Z" fill="black"/>
    <path d="M664.209 158.401H661.839C660.825 158.401 660.482 158.043 660.482 157.047V127.313C660.482 126.301 660.841 125.958 661.839 125.958H664.209C665.223 125.958 665.566 126.316 665.566 127.313V157.047C665.566 158.059 665.207 158.401 664.209 158.401Z" fill="black"/>
    <path d="M676.107 128.885V129.274C676.107 131.251 675.499 131.812 673.472 131.812H673.16C671.133 131.812 670.478 131.282 670.478 129.274V128.885C670.478 126.861 671.086 126.301 673.16 126.301H673.472C675.499 126.301 676.107 126.877 676.107 128.885ZM675.889 137.183V157.047C675.889 158.059 675.53 158.401 674.532 158.401H672.162C671.148 158.401 670.805 158.043 670.805 157.047V137.183C670.805 136.171 671.164 135.875 672.162 135.875H674.532C675.546 135.875 675.889 136.186 675.889 137.183Z" fill="black"/>
    <path d="M689.643 135.252C696.848 135.252 699 139.113 699 144.235V155.288C699 156.829 698.641 157.265 697.425 157.779C695.803 158.479 693.168 159.008 689.519 159.008C681.784 159.008 679.772 156.377 679.772 151.941C679.772 146.85 682.72 145.138 689.706 145.138C691.421 145.138 693.168 145.262 693.916 145.356V144.048C693.916 141.324 692.856 139.704 689.519 139.704C687.32 139.704 685.87 140.405 684.949 141.806C684.295 142.725 684.029 142.865 683.063 142.46L681.3 141.759C680.287 141.324 680.022 140.794 680.552 139.782C682.049 136.933 685.027 135.221 689.643 135.221V135.252ZM689.16 148.967C685.823 148.967 684.949 150.057 684.949 151.91C684.949 153.529 685.651 154.805 689.082 154.805C691.328 154.805 692.684 154.54 693.433 154.369C693.823 154.229 693.963 154.151 693.963 153.762V149.201C693.043 149.154 690.891 148.983 689.176 148.983L689.16 148.967Z" fill="black"/>
    <path d="M84.8643 68.9338C84.8643 91.8494 67.4455 109.083 46.705 109.083C38.3153 109.083 31.5005 106.872 25.8086 103.401V107.199H0V8.12636L25.8086 0.404785V34.825C31.5161 31.3534 38.3153 29.1428 46.705 29.1428C67.4455 29.1428 84.8643 46.2049 84.8643 68.9649V68.9338ZM59.6951 68.9338C59.6951 58.5034 52.1006 49.9723 41.6524 49.9723C36.1165 49.9723 30.5649 51.7159 25.8242 57.0868V81.1077C30.5805 86.4786 36.1165 88.0665 41.6524 88.0665C52.1006 88.0665 59.6951 79.6911 59.6951 68.9493V68.9338Z" fill="black"/>
    <path d="M120.653 107.184H94.8447V8.1108L120.653 0.389221V107.199V107.184Z" fill="black"/>
    <path d="M215.872 107.184H190.22V102.918C184.512 106.561 177.713 108.772 169.167 108.772C148.427 108.772 131.008 91.5536 131.008 68.7937C131.008 46.0337 148.427 28.8158 169.167 28.8158C177.713 28.8158 184.528 31.0264 190.22 34.6693V30.5594H215.872V107.215V107.184ZM190.22 80.6251V56.7598C185.307 51.389 179.927 49.6454 174.391 49.6454C163.943 49.6454 156.177 58.1765 156.177 68.7625C156.177 79.3486 163.928 87.724 174.391 87.724C179.927 87.724 185.307 86.1361 190.22 80.6096V80.6251Z" fill="black"/>
    <path d="M281.977 75.7213H306.195C304.292 95.4767 287.98 108.912 266.772 108.912C242.71 108.912 224.823 92.1608 224.823 68.7625C224.823 45.3643 242.71 28.7847 266.772 28.7847C287.98 28.7847 304.292 42.2196 306.195 61.975H281.977C280.713 55.0162 274.694 50.4393 266.928 50.4393C255.84 50.4393 249.353 58.3477 249.353 68.7781C249.353 79.2084 255.84 87.2725 266.928 87.2725C274.678 87.2725 280.698 82.6956 281.977 75.7368V75.7213Z" fill="black"/>
    <path d="M340.424 92.0051V107.184H314.615V8.1108L340.424 0.389221V59.1417L367.028 30.5439H397.577L368.447 61.8349L400.104 107.199H369.383L351.013 80.6407L340.408 92.0207L340.424 92.0051Z" fill="black"/>
    <path d="M495.712 68.5446C495.712 91.4602 478.294 108.694 457.553 108.694C449.163 108.694 442.349 106.483 436.657 103.011V106.81H410.848V7.73714L436.657 0.015564V34.4357C442.364 30.9641 449.163 28.7535 457.553 28.7535C478.294 28.7535 495.712 45.8157 495.712 68.5757V68.5446ZM470.527 68.5446C470.527 58.1142 462.933 49.5831 452.485 49.5831C446.949 49.5831 441.397 51.3267 436.657 56.6975V80.7185C441.413 86.0894 446.949 87.6773 452.485 87.6773C462.933 87.6773 470.527 79.3018 470.527 68.5601V68.5446Z" fill="black"/>
    <path d="M531.579 106.794H505.927V30.139H531.579V106.794Z" fill="black"/>
    <path d="M576.21 88.0664C573.684 76.5463 561.941 73.3083 561.941 73.3083C561.941 73.3083 576.195 50.9842 599.337 50.9842C600.693 50.9842 601.863 51.0931 603.032 51.2955V28.8781C591.805 28.8781 583.68 32.5209 576.709 38.3588V30.1235H550.776V106.623H577.052C576.834 98.1232 576.195 88.0509 576.195 88.0509L576.21 88.0664Z" fill="black"/>
    <path d="M673.098 7.72158V34.5759C667.297 30.933 660.81 28.7224 652.264 28.7224C635.469 28.7224 620.685 39.9311 615.726 56.2772C622.151 60.8697 626.252 68.0464 626.252 76.126V90.137C626.252 92.3943 627.812 100.022 635.64 104.771C640.677 107.293 646.213 108.694 652.123 108.694C664.084 108.694 671.164 100.739 673.098 96.115V106.654H698.641V0L673.098 7.72158ZM673.098 80.5628C668.061 86.0894 663.024 87.6773 657.488 87.6773C647.04 87.6773 639.398 79.3019 639.398 68.5601C639.398 57.8184 646.993 49.5987 657.441 49.5987C662.977 49.5987 668.076 51.3423 673.098 56.7131V80.5784V80.5628Z" fill="black"/>
    <path d="M599.571 83.6141C603.903 83.6141 607.414 80.1082 607.414 75.7836C607.414 71.4589 603.903 67.953 599.571 67.953C595.238 67.953 591.727 71.4589 591.727 75.7836C591.727 80.1082 595.238 83.6141 599.571 83.6141Z" fill="black"/>
    <path d="M599.383 84.6572C604.249 84.6572 608.194 80.7192 608.194 75.8614C608.194 71.0037 604.249 67.0657 599.383 67.0657C594.517 67.0657 590.573 71.0037 590.573 75.8614C590.573 80.7192 594.517 84.6572 599.383 84.6572Z" fill="black"/>
  </g>
  <defs>
    <clipPath id="clip0_21_29">
      <rect width="699" height="169" fill="white"/>
    </clipPath>
  </defs>
</svg>
