<svg xmlns="http://www.w3.org/2000/svg" id="Calque_1" version="1.1" viewBox="0 0 450 144">
  <!-- Generator: Adobe Illustrator 29.5.1, SVG Export Plug-In . SVG Version: 2.1.0 Build 141)  -->
  <defs>
    <style>
      .st0 {
        fill: #222270;
      }
    </style>
  </defs>
  <path class="st0" d="M278,83.3c0-6.2-1.4-11.5-3.7-15.8h0c-4.9-9.1-14.1-13.9-24.3-13.9s-26.8,9.6-29.8,24.7h0c-.5,2.3-.7,4.8-.7,7.4,0,19.3,14.2,32.1,33.2,32.1s16.9-2.4,25-6.3v-10.2c-7.6,3.9-15.7,6.4-24.3,6.5-10.8,0-21.1-6.6-22.7-18.7h46.9c.3-1.5.4-3.7.4-5.6ZM231,80.1c.3-1.5.6-2.8,1.1-4.1h0c3.2-8.5,10.7-12.2,17.7-12.2s10,1.7,13.5,6h0c2,2.5,3.5,5.9,3.8,10.3h-36.2Z"/>
  <path class="st0" d="M337.2,55.3l-14.8,2.9c-4.1,5.9-13.9,18.9-27.1,30.1v-25h0V21.1l-11.2,2.3v2.9h0v39.4h0v31.9s0,0,0,0v10.6c7.3-4.3,14.2-9.6,20.4-15.3l21.1,23.6h14.7l-28.3-30.9c14.1-14.2,23.7-28.2,25.1-30.3Z"/>
  <polygon class="st0" points="345.3 116.4 356.6 116.4 356.6 51.4 345.3 53.7 345.3 116.4"/>
  <path class="st0" d="M213,79.8c-2.7-15.1-15.4-26.2-31.9-26.2s-32.5,14-32.5,32.1.2,4.6.7,6.8h0c3,14.7,15.6,25.3,31.8,25.3s32.5-14,32.5-32.1-.2-4-.5-5.9h0ZM181,107.6c-10.7,0-18.9-7.2-20.8-17.3h0c-.3-1.5-.4-3-.4-4.6,0-12.4,9-21.8,21.2-21.8s19.3,7.6,20.9,18.1h0c.2,1.2.3,2.4.3,3.7,0,12.4-9,21.8-21.2,21.8Z"/>
  <path class="st0" d="M111.8,53.6c-7.4,0-13.5,2.5-17.4,5h-.2V21.1l-11.2,2.3v82.4s0,0,0,0v10.7s10.9-1.9,10.9-1.9c4.6,1.9,9.6,3.2,15.4,3.2,15.6,0,27.6-9.5,31.3-23.6h0c.8-3,1.2-6.1,1.2-9.4,0-18.6-13.4-31.2-30-31.2ZM109.5,107.9c-5.1,0-11.4-1.6-15.4-4v-.5h0v-34c4.1-3.4,9.6-5.7,16.2-5.7,12.1,0,20,9.4,20,21.7s-.9,8-2.5,11.3h0c-3.4,6.8-9.9,11.2-18.3,11.2Z"/>
  <path class="st0" d="M351,43.1c3.9,0,7-3.1,7-7s-3.1-7-7-7-7,3.1-7,7,3.1,7,7,7Z"/>
  <rect class="st0" x="163.9" y="31.7" width="34.2" height="8.6"/>
</svg>
