<svg xmlns="http://www.w3.org/2000/svg" width="114.856" height="40.395" viewBox="0 0 114.856 40.395">
  <g id="logo-white" transform="translate(-695.111 -30.556)">
    <g id="Groupe_4" data-name="Groupe 4" transform="translate(695.111 30.555)">
      <g id="Groupe_5" data-name="Groupe 5" transform="translate(0 0)">
        <path id="Tracé_7" data-name="Tracé 7" d="M90.843,22.473a13.758,13.758,0,0,0-1.538-6.588,11.2,11.2,0,0,0-10.137-5.817A12.578,12.578,0,0,0,66.71,20.388h0a15.438,15.438,0,0,0-.309,3.075c0,8.079,5.941,13.4,13.864,13.4A24.125,24.125,0,0,0,90.7,34.214V29.936a22.44,22.44,0,0,1-10.126,2.7c-4.518,0-8.808-2.762-9.487-7.818h19.6a16.133,16.133,0,0,0,.155-2.346M71.194,21.118a9.645,9.645,0,0,1,.463-1.716h0a7.743,7.743,0,0,1,7.406-5.112A7.208,7.208,0,0,1,84.71,16.8a7.655,7.655,0,0,1,1.6,4.317Z" transform="translate(-9.383 3.536)" fill="#000"/>
        <path id="Tracé_8" data-name="Tracé 8" d="M108.543,14.3l-6.16,1.228A69.513,69.513,0,0,1,91.059,28.107V0L86.366.953V2.174h0V18.61h0V31.915h0v4.409A53.874,53.874,0,0,0,94.9,29.957l8.823,9.865h6.151l-11.8-12.89A93.925,93.925,0,0,0,108.543,14.3" transform="translate(-2.372)" fill="#000"/>
        <path id="Tracé_9" data-name="Tracé 9" d="M105.293,36.524h4.691V9.388l-4.691.935Z" transform="translate(4.275 3.297)" fill="#000"/>
        <path id="Tracé_10" data-name="Tracé 10" d="M71.37,20.992A13.172,13.172,0,0,0,58.042,10.068a13.2,13.2,0,0,0-13.552,13.4,14.17,14.17,0,0,0,.285,2.829A13.179,13.179,0,0,0,58.042,36.858,13.2,13.2,0,0,0,71.593,23.464,14.246,14.246,0,0,0,71.37,20.992ZM58.042,32.584a8.674,8.674,0,0,1-8.68-7.206,10.191,10.191,0,0,1-.18-1.915,8.786,8.786,0,0,1,8.86-9.122,8.685,8.685,0,0,1,8.733,7.567,10.092,10.092,0,0,1,.127,1.555,8.786,8.786,0,0,1-8.86,9.12" transform="translate(-17.077 3.536)" fill="#000"/>
        <path id="Tracé_11" data-name="Tracé 11" d="M36.244,13.6A13.589,13.589,0,0,0,29,15.689l-.1-.053V0L24.2.951V39.821l4.535-.781a16.767,16.767,0,0,0,6.413,1.354,13.118,13.118,0,0,0,13.089-9.835h0a15.212,15.212,0,0,0,.512-3.924c0-7.767-5.576-13.031-12.508-13.031M35.3,36.277a13.8,13.8,0,0,1-6.411-1.667v-.2h0V20.223a10.565,10.565,0,0,1,6.775-2.4c5.056,0,8.339,3.909,8.339,9.069a10.564,10.564,0,0,1-1.055,4.716h0A8.261,8.261,0,0,1,35.3,36.277" transform="translate(-24.202)" fill="#000"/>
        <path id="Tracé_12" data-name="Tracé 12" d="M107.794,8.349a2.942,2.942,0,1,0-2.943-2.943,2.931,2.931,0,0,0,2.943,2.943" transform="translate(4.12 0.866)" fill="#000"/>
        <rect id="Rectangle_3" data-name="Rectangle 3" width="14.281" height="3.583" transform="translate(33.825 4.461)" fill="#000"/>
      </g>
    </g>
  </g>
</svg>
