<svg width="207" height="48" viewBox="0 0 207 48" fill="none" xmlns="http://www.w3.org/2000/svg">
<g clip-path="url(#clip0_5319_1014)">
<path d="M7.31953 14.0515C8.02904 13.9148 9.2579 14.2752 9.65273 14.8366C9.89406 15.1798 10.1761 15.4941 10.4021 15.8468C10.4677 15.9496 10.4628 16.2036 10.3871 16.2774C10.2259 16.4354 10.0371 16.7057 9.7546 16.4784C8.90156 15.7915 8.05485 15.0965 7.20996 14.3997C7.15517 14.3544 7.08816 14.2358 7.10808 14.2018C7.14974 14.1312 7.24392 14.0551 7.31953 14.051C7.07186 14.0438 7.56585 14.0388 7.31953 14.051V14.0515Z" fill="#000000"/>
<path d="M17.9821 16.2206C18.0903 15.7474 17.3663 15.07 17.2735 14.4284C17.1658 13.6827 16.8701 13.3336 16.0967 13.1942C13.7635 12.7735 11.4304 12.4022 9.05686 12.3624C8.91877 12.3601 8.77976 12.3973 8.56378 12.4262C8.73267 12.6617 8.8436 12.8152 8.95272 12.9691C9.62103 13.91 10.297 14.8455 10.9531 15.7959C11.228 16.1943 11.1836 16.336 10.7756 16.5692C9.33759 17.391 8.087 18.455 6.94916 19.6694C6.74043 19.8922 6.78435 20.0366 6.99489 20.196C7.25116 20.3902 7.51016 20.5813 7.75964 20.7846C8.04263 21.0155 8.02859 21.1985 7.69127 21.3261C6.63991 21.7246 5.59534 22.1543 4.52134 22.4758C3.13944 22.8896 1.73265 23.2147 0.334001 23.5683C0.0777262 23.6331 -0.0562978 23.7685 0.0224864 24.0302C0.192733 24.597 0.375207 25.1608 0.573978 25.7177C0.666799 25.9785 0.8538 26.0111 1.03401 25.7951C1.26402 25.5198 1.47864 25.2309 1.69598 24.9452C1.80464 24.8022 1.90561 24.6523 2.00975 24.5056C2.05503 24.5232 2.10076 24.5409 2.14604 24.5586C2.11978 24.7619 2.13834 24.9869 2.05775 25.1644C1.84539 25.6339 1.60361 26.0912 1.34552 26.5363C1.23233 26.7319 1.14177 26.8995 1.30432 27.0946C1.89384 27.8028 2.46525 28.529 3.091 29.2014C3.31241 29.4391 3.6606 29.6546 3.96713 29.6813C4.3769 29.7171 4.8075 29.5804 5.22089 29.4808C6.07212 29.2756 6.9152 29.0348 7.76779 28.8392C7.89457 28.8102 8.13908 28.9066 8.18707 29.0126C8.31928 29.3055 8.38584 29.6315 8.45874 29.9494C8.51081 30.1753 8.41165 30.2876 8.18707 30.1989C8.03403 30.1382 7.85744 30.0753 7.75602 29.9553C7.32588 29.4463 6.85679 29.5745 6.36145 29.8117C6.23557 29.872 6.08706 29.8806 5.95349 29.9268C5.8249 29.9707 5.70175 30.0323 5.52652 30.1074C5.60077 30.2088 5.62251 30.2541 5.65737 30.2831C6.67749 31.1398 7.7773 31.8683 8.98759 32.4057C9.1121 32.461 9.3308 32.3903 9.46301 32.3066C9.71249 32.1486 9.9176 31.9185 10.1639 31.7537C11.5884 30.7997 13.9501 30.2921 15.6005 30.159C15.7182 30.1495 15.8391 30.1826 15.9586 30.1957C15.9677 30.2274 15.9763 30.2595 15.9853 30.2917C15.8821 30.3782 16.2226 30.6874 16.1081 30.7535C15.955 30.8414 15.8273 30.9179 15.6675 30.994C15.2903 31.1733 14.7837 31.0569 15.0671 31.3797C15.9129 32.3437 31.6467 47.0628 32.5604 47.9539L23.9919 19.9044C23.9919 19.9044 18.5834 17.0664 17.815 18.3704C17.8205 18.3613 17.6711 17.6695 17.6729 17.5821C17.6833 17.1171 17.7956 16.6493 17.9871 16.2283C17.9853 16.226 17.9812 16.2237 17.9817 16.221L17.9821 16.2206ZM12.4514 20.3033C12.2173 20.5496 11.9746 20.7869 11.7283 21.021C11.6051 21.1378 11.4811 21.2541 11.357 21.3701C11.2329 21.486 11.1089 21.6019 10.9848 21.7178C10.9758 21.7264 10.964 21.7323 10.949 21.7368C10.9341 21.7413 10.9164 21.7445 10.8947 21.7477C10.8512 21.7536 10.7924 21.7595 10.7127 21.7753C10.6258 21.7065 10.5307 21.6331 10.4315 21.5553C10.2662 21.4258 10.0901 21.2845 9.9244 21.1305C9.90583 21.1133 9.90583 21.0545 9.91579 20.9915C9.92304 20.9467 9.93572 20.8996 9.95066 20.8648C9.95654 20.8507 9.96334 20.839 9.97013 20.8299C9.97692 20.8208 9.98371 20.8145 9.99096 20.8118C10.1793 20.7425 10.3677 20.6737 10.5565 20.6062C10.7453 20.5388 10.9346 20.4717 11.1243 20.4065C11.5033 20.2757 11.884 20.1498 12.2666 20.0298C12.2902 20.0226 12.3133 20.0185 12.335 20.0181C12.3459 20.0181 12.3563 20.018 12.3667 20.0194C12.3871 20.0217 12.4066 20.0271 12.4238 20.0348C12.5188 20.0774 12.5564 20.1928 12.4514 20.3033ZM17.5144 24.0238C17.4275 24.2674 17.3817 24.4698 17.4918 24.7161L17.5144 24.0238Z" fill="#000000"/>
<path d="M31.3486 0.194591C31.9354 0.614774 32.5331 1.74446 32.4122 2.40688C32.3379 2.81212 32.313 3.22688 32.2216 3.62759C32.1949 3.74441 32.0129 3.91148 31.9087 3.9065C31.6864 3.89654 31.3658 3.94227 31.3301 3.58502C31.2218 2.50695 31.1236 1.42842 31.0281 0.348986C31.0217 0.278805 31.0588 0.150665 31.0964 0.142515C31.1747 0.124856 31.2934 0.141615 31.3486 0.194138C31.1824 0.010761 31.5279 0.363932 31.3486 0.194138V0.194591Z" fill="#000000"/>
<path d="M37.2011 9.35087C37.1707 9.32054 37.2314 9.38121 37.2011 9.35087C37.7494 9.09143 37.5873 8.13289 37.9735 7.63438C38.4222 7.05481 38.463 6.60655 38.0256 5.95455C36.7062 3.98721 35.3519 2.05337 33.7373 0.313322C33.6431 0.211899 33.5213 0.13674 33.3511 0C33.3026 0.280725 33.2718 0.463651 33.2392 0.646122C33.0409 1.76178 32.8525 2.87924 32.6393 3.99218C32.5501 4.45855 32.4197 4.52195 31.9737 4.38475C30.4012 3.89982 28.7893 3.71327 27.1493 3.70919C26.8482 3.70829 26.7771 3.83733 26.8111 4.09632C26.8523 4.41191 26.8971 4.7275 26.927 5.04445C26.9609 5.40396 26.8224 5.51716 26.4996 5.36005C25.4921 4.86923 24.4679 4.40467 23.4985 3.84548C22.2515 3.12646 21.0498 2.33002 19.8337 1.55802C19.6109 1.41675 19.423 1.41087 19.294 1.64406C19.0137 2.14846 18.7443 2.65964 18.4912 3.17808C18.3725 3.42077 18.479 3.57743 18.7552 3.56204C19.1074 3.54302 19.4588 3.50318 19.8097 3.46787C19.9854 3.45021 20.1601 3.42168 20.3354 3.39859C20.3544 3.44342 20.3734 3.48779 20.3924 3.53261C20.2312 3.65034 20.0863 3.81515 19.9061 3.87673C19.4293 4.03928 18.9412 4.17284 18.4504 4.28604C18.2349 4.33584 18.0547 4.38339 18.0298 4.63197C17.9406 5.53391 17.8265 6.43541 17.7876 7.33961C17.7735 7.65928 17.8636 8.05546 18.057 8.29498C18.3155 8.6151 18.7094 8.83379 19.0653 9.06471C19.7984 9.54104 20.5509 9.98748 21.2785 10.4715C21.3867 10.5435 21.4881 10.7848 21.4469 10.8908C21.3328 11.1833 21.1499 11.4509 20.9774 11.7176C20.8547 11.9068 20.7076 11.9114 20.6143 11.6895C20.5509 11.5383 20.473 11.3685 20.487 11.2145C20.5468 10.5612 20.1321 10.309 19.6227 10.1111C19.4932 10.0608 19.3845 9.95941 19.2595 9.89376C19.1396 9.83037 19.0114 9.78327 18.8371 9.70721C18.8172 9.82946 18.8004 9.8752 18.804 9.92002C18.9086 11.2331 19.1586 12.5172 19.6191 13.7524C19.6661 13.8792 19.8676 13.9896 20.018 14.0286C20.3014 14.1024 20.6052 14.0956 20.8914 14.1621C22.5468 14.5484 23.8535 15.5332 25.0891 16.6352C25.1774 16.714 25.2381 16.8231 25.3115 16.9182C25.2952 16.9463 25.2788 16.9739 25.2625 17.002C25.1303 16.9857 24.9922 16.9871 24.8668 16.9486C24.6993 16.897 24.5426 16.8105 24.3787 16.7462C23.992 16.5949 23.8938 16.6493 23.8634 17.0708C23.7724 18.33 23.6171 19.5906 23.6244 20.8502L26.04 38.6043L38.7795 16.1684C38.7795 16.1684 37.0281 10.3524 35.5806 10.6775C35.5806 10.6775 35.7282 9.94764 37.2006 9.34997L37.2011 9.35087ZM30.5121 8.10663C30.1775 8.10346 29.8429 8.08806 29.5083 8.06768C29.3412 8.05772 29.1737 8.04595 29.0066 8.03463C28.8395 8.02286 28.672 8.01108 28.5049 8.00022C28.4922 7.99931 28.48 7.99478 28.4669 7.98754C28.4533 7.97984 28.4388 7.96898 28.4216 7.95539C28.3872 7.92823 28.3428 7.88929 28.2763 7.84265C28.2645 7.73353 28.25 7.61535 28.236 7.49129C28.2124 7.28482 28.1898 7.06251 28.183 6.83974C28.1821 6.81484 28.2237 6.77499 28.2749 6.74013C28.3116 6.71523 28.3532 6.69258 28.3881 6.68036C28.4021 6.67538 28.4148 6.67221 28.4261 6.67085C28.437 6.6695 28.4465 6.67039 28.4533 6.67356C28.6322 6.76276 28.811 6.85242 28.989 6.94343C29.1673 7.03444 29.3448 7.12589 29.5219 7.21871C29.876 7.40435 30.2282 7.59453 30.5769 7.79013C30.5981 7.80236 30.6167 7.81639 30.6321 7.83133C30.6398 7.83903 30.647 7.84718 30.6529 7.85533C30.6656 7.87163 30.6751 7.88929 30.6814 7.90695C30.7172 8.00385 30.662 8.10889 30.5121 8.10753V8.10663ZM31.4045 14.2654C31.1736 14.3663 30.9993 14.4696 30.9029 14.715L31.4045 14.2654Z" fill="#000000"/>
<path d="M38.7795 16.1689L39.5397 20.6153L32.5211 48L22.3086 34.0611L38.7795 16.1689Z" fill="#000000"/>
<path d="M16.0973 13.1948C16.0973 13.1948 19.0707 13.2767 17.8156 18.3706L15.9248 15.3011L16.0973 13.1943V13.1948Z" fill="#000000"/>
<path d="M55.7689 14.0515C55.0594 13.9148 53.8306 14.2752 53.4357 14.8366C53.1944 15.1798 52.9123 15.4941 52.6864 15.8468C52.6207 15.9496 52.6257 16.2036 52.7013 16.2774C52.8625 16.4354 53.0513 16.7057 53.3339 16.4784C54.1869 15.7915 55.0336 15.0965 55.8785 14.3997C55.9333 14.3544 56.0003 14.2358 55.9804 14.2018C55.9387 14.1312 55.8446 14.0551 55.7689 14.051C55.5226 14.0388 56.0166 14.0438 55.7689 14.051V14.0515Z" fill="#000000"/>
<path d="M45.2333 18.4178C44.4663 17.1119 37.7502 19.9246 37.7502 19.9246L32.521 48.0008C33.4071 46.7747 47.4683 32.5378 48.3145 31.5738C48.5979 31.251 48.8655 31.3751 48.4884 31.1958C48.3285 31.1197 48.1592 31.0319 48.0062 30.944C47.8916 30.8784 47.9124 30.6646 47.8092 30.5782C47.8183 30.546 47.8269 30.5143 47.8359 30.4822C47.9555 30.469 48.2 30.1956 48.3177 30.2051C49.9681 30.3377 51.46 30.8476 52.8845 31.8016C53.1308 31.9664 53.3359 32.1964 53.5854 32.3544C53.7176 32.4382 53.9363 32.5088 54.0608 32.4536C55.2711 31.9161 56.3709 31.1876 57.391 30.3309C57.4254 30.302 57.4471 30.2567 57.5219 30.1553C57.3466 30.0801 57.2235 30.0185 57.0949 29.9746C56.9613 29.9289 56.8128 29.9203 56.6869 29.8596C56.1916 29.6223 55.7225 29.4942 55.2923 30.0031C55.1909 30.1231 55.0143 30.1861 54.8613 30.2467C54.6367 30.3355 54.538 30.2232 54.5896 29.9972C54.6625 29.6794 54.7295 29.3529 54.8613 29.0604C54.9093 28.9545 55.1538 28.858 55.2806 28.887C56.1336 29.0826 56.9767 29.3235 57.8275 29.5286C58.2409 29.6282 58.6715 29.765 59.0812 29.7292C59.3878 29.7025 59.736 29.487 59.9574 29.2492C60.5831 28.5764 61.1545 27.8506 61.7441 27.1425C61.9066 26.9473 61.816 26.7793 61.7029 26.5842C61.4448 26.1391 61.203 25.6818 60.9906 25.2122C60.9105 25.0347 60.929 24.8097 60.9023 24.6064C60.9476 24.5887 60.9933 24.5711 61.0386 24.5534C61.1428 24.7001 61.2437 24.85 61.3524 24.9931C61.5697 25.2792 61.7843 25.5681 62.0144 25.843C62.1946 26.0585 62.3811 26.0259 62.4744 25.7655C62.6732 25.2086 62.8556 24.6449 63.0259 24.078C63.1047 23.8159 62.9706 23.6809 62.7144 23.6162C61.3157 23.263 59.9089 22.9375 58.527 22.5236C57.453 22.2017 56.4085 21.7724 55.3571 21.374C55.0202 21.2463 55.0062 21.0629 55.2887 20.8325C55.5382 20.6292 55.7972 20.4376 56.0535 20.2439C56.264 20.0845 56.3079 19.94 56.0992 19.7173C54.9609 18.5029 53.7108 17.4389 52.2727 16.6171C51.8652 16.3839 51.8204 16.2421 52.0952 15.8437C52.7509 14.8933 53.4273 13.9583 54.0956 13.017C54.2052 12.863 54.3157 12.71 54.4846 12.4741C54.2686 12.4451 54.1296 12.408 53.9915 12.4103C51.618 12.4501 49.2848 12.8214 46.9516 13.242C46.1783 13.3815 45.8826 13.7306 45.7749 14.4763C45.6825 15.1179 44.9381 15.486 45.0703 16.2716C45.0273 16.2707 45.1133 16.2725 45.0703 16.2716C45.6585 17.7898 45.2333 18.4187 45.2333 18.4187V18.4178ZM50.6251 20.0818C50.6423 20.0741 50.6613 20.0686 50.6821 20.0664C50.6925 20.065 50.7029 20.0646 50.7138 20.065C50.7355 20.0655 50.7586 20.0695 50.7822 20.0768C51.1648 20.1963 51.5456 20.3226 51.9245 20.4535C52.1143 20.5191 52.3035 20.5857 52.4923 20.6532C52.6811 20.7206 52.8695 20.7894 53.0579 20.8587C53.0651 20.8614 53.0719 20.8678 53.0787 20.8768C53.0855 20.8859 53.0918 20.8981 53.0982 20.9117C53.1136 20.9466 53.1258 20.9932 53.133 21.0385C53.143 21.1014 53.143 21.1607 53.1244 21.1775C52.9587 21.331 52.7826 21.4727 52.6173 21.6022C52.5181 21.6801 52.4226 21.7534 52.3361 21.8222C52.2564 21.8064 52.1976 21.801 52.1541 21.7946C52.1324 21.7915 52.1147 21.7883 52.0998 21.7838C52.0848 21.7792 52.0735 21.7733 52.064 21.7647C51.9404 21.6484 51.8159 21.5329 51.6918 21.417C51.5678 21.3011 51.4437 21.1852 51.3205 21.0679C51.0742 20.8338 50.8315 20.5966 50.5974 20.3502C50.4924 20.2398 50.53 20.1239 50.6251 20.0818ZM45.5566 24.7635C45.6671 24.5172 45.6214 24.3144 45.534 24.0712L45.5566 24.7635Z" fill="#000000"/>
<path d="M47.0254 13.2026C47.0254 13.2026 44.052 13.2845 45.3071 18.3784L47.1979 15.3089L47.0254 13.2021V13.2026Z" fill="#000000"/>
<path d="M38.239 6.33398C38.239 6.33398 40.051 8.69298 35.4141 10.8405L36.5397 7.4913L38.239 6.33398Z" fill="#000000"/>
<path d="M13.2397 30.5747C13.2397 30.5747 15.6829 30.0423 15.7404 30.3289C15.7979 30.6155 15.1495 30.8125 15.1495 30.8125C15.1495 30.8125 14.5337 30.9252 15.0272 31.426C15.5212 31.9272 32.5205 48.0001 32.5205 48.0001C32.5205 48.0001 19.1548 28.1184 17.437 28.0536C15.7191 27.9889 10.7847 31.4205 10.7847 31.4205L13.2392 30.5743L13.2397 30.5747Z" fill="#FF671B"/>
<path d="M50.3652 30.7666C50.3652 30.7666 48.1543 30.2907 48.1008 30.5741C48.0479 30.8576 48.5975 31.002 48.5975 31.002C48.5975 31.002 49.2246 31.1224 48.7678 31.6178C48.3109 32.1136 32.5215 47.9995 32.5215 47.9995C32.5215 47.9995 45.1478 28.4021 46.7375 28.3378C48.3272 28.2735 52.6368 31.6033 52.6368 31.6033L50.3652 30.7661V30.7666Z" fill="#FF671B"/>
<g clip-path="url(#clip1_5319_1014)">
<path d="M87.643 15.0776H84.8979L84.3504 16.5483H83.709L85.9328 10.6553H86.6081L88.8319 16.5483H88.1821L87.643 15.0776ZM87.4636 14.5987L86.2747 11.3483L85.0688 14.5987H87.4636Z" fill="#000000"/>
<path d="M98.4029 10.9796C98.8762 11.3215 99.2012 11.7863 99.3777 12.3733H98.7532C98.5992 11.9685 98.3381 11.6408 97.9709 11.39C97.6028 11.1393 97.1679 11.0134 96.6664 11.0134C96.2335 11.0134 95.841 11.1158 95.4907 11.3215C95.1404 11.5271 94.8652 11.8201 94.6652 12.2024C94.4651 12.5846 94.3656 13.0288 94.3656 13.5369C94.3656 14.0449 94.467 14.5061 94.6689 14.8883C94.8708 15.2705 95.1507 15.5644 95.5066 15.7692C95.8626 15.9748 96.2692 16.0772 96.7256 16.0772C97.1304 16.0772 97.5013 15.9871 97.8375 15.8077C98.1738 15.6283 98.4461 15.3672 98.6546 15.0254C98.8631 14.6836 98.9842 14.2816 99.018 13.8196H96.5124V13.366H99.5402V13.8966C99.4998 14.4093 99.3561 14.8714 99.1082 15.2818C98.8603 15.6922 98.5269 16.0162 98.1071 16.2528C97.6882 16.4895 97.2102 16.6078 96.6749 16.6078C96.1048 16.6078 95.5977 16.4782 95.1526 16.219C94.7074 15.9598 94.3628 15.5964 94.1176 15.1287C93.8725 14.661 93.7495 14.1314 93.7495 13.5378C93.7495 12.9443 93.8716 12.4146 94.1176 11.9469C94.3628 11.4792 94.7065 11.1158 95.1479 10.8566C95.5893 10.5974 96.0955 10.4678 96.6664 10.4678C97.3511 10.4678 97.9296 10.6387 98.4029 10.9805V10.9796Z" fill="#000000"/>
<path d="M105.519 11.0059V13.2805H107.87V13.751H105.519V16.0518H108.128V16.5477H104.912V10.5176H108.128V11.005H105.519V11.0059Z" fill="#000000"/>
<path d="M117.963 16.5471H117.355L114.054 11.5096V16.5471H113.447V10.5264H114.054L117.355 15.5723V10.5264H117.963V16.5471Z" fill="#000000"/>
<path d="M127.986 10.9849C128.46 11.3352 128.793 11.8189 128.987 12.435H128.354C128.195 12.002 127.93 11.6564 127.559 11.4001C127.188 11.1437 126.73 11.015 126.182 11.015C125.766 11.015 125.388 11.1173 125.049 11.323C124.71 11.5287 124.443 11.8217 124.25 12.2039C124.055 12.5861 123.958 13.0304 123.958 13.5385C123.958 14.0465 124.055 14.4888 124.25 14.8682C124.443 15.2476 124.71 15.5397 125.049 15.7444C125.388 15.9501 125.765 16.0525 126.182 16.0525C126.73 16.0525 127.188 15.9238 127.559 15.6675C127.93 15.4111 128.195 15.0655 128.354 14.6325H128.987C128.794 15.2486 128.46 15.7313 127.986 16.0825C127.513 16.4328 126.914 16.6085 126.191 16.6085C125.638 16.6085 125.145 16.477 124.712 16.215C124.278 15.953 123.941 15.5895 123.702 15.1246C123.463 14.6597 123.343 14.131 123.343 13.5385C123.343 12.9459 123.463 12.4068 123.702 11.9391C123.941 11.4714 124.278 11.108 124.712 10.8488C125.145 10.5896 125.638 10.46 126.191 10.46C126.915 10.46 127.513 10.6356 127.986 10.9859V10.9849Z" fill="#000000"/>
<path d="M134.965 11.0059V13.2805H137.316V13.751H134.965V16.0518H137.574V16.5477H134.358V10.5176H137.574V11.005H134.965V11.0059Z" fill="#000000"/>
</g>
<path d="M93.4227 21.8778C94.5065 22.3859 95.3911 23.1062 96.073 24.0388C96.7548 24.9713 97.2178 26.0523 97.461 27.2807H92.7513C92.493 26.6439 92.091 26.1471 91.5454 25.7902C90.9998 25.4343 90.3696 25.2559 89.6568 25.2559C88.6707 25.2559 87.8744 25.624 87.2677 26.3594C86.661 27.0947 86.3577 28.077 86.3577 29.3054C86.3577 30.5338 86.661 31.5199 87.2677 32.2627C87.8744 33.0056 88.6707 33.3775 89.6568 33.3775C90.3696 33.3775 90.9988 33.1953 91.5454 32.8318C92.091 32.4675 92.493 31.9669 92.7513 31.3302H97.461C97.0966 33.2112 96.2364 34.7082 94.8784 35.823C93.5204 36.9377 91.8027 37.4956 89.7254 37.4956C88.1326 37.4956 86.7408 37.1509 85.5509 36.4607C84.3601 35.7704 83.4426 34.804 82.7984 33.5597C82.1532 32.3163 81.8311 30.8982 81.8311 29.3054C81.8311 27.7127 82.1532 26.2946 82.7984 25.0511C83.4426 23.8077 84.3601 22.8404 85.5509 22.1502C86.7418 21.4599 88.1336 21.1152 89.7254 21.1152C91.105 21.1152 92.338 21.3697 93.4227 21.8778Z" fill="#000000"/>
<path d="M103.945 24.8458V27.5074H109.155V30.8976H103.945V33.8099H109.837V37.3814H99.4624V21.2734H109.837V24.8449H103.945V24.8458Z" fill="#000000"/>
<path d="M120.074 37.3824L116.821 31.4443H116.366V37.3824H111.884V21.2744H118.96C120.249 21.2744 121.344 21.4979 122.248 21.9459C123.15 22.3938 123.829 23.0118 124.284 23.7997C124.738 24.5886 124.966 25.4761 124.966 26.4612C124.966 27.5835 124.656 28.5583 124.034 29.3847C123.412 30.2112 122.517 30.7916 121.349 31.125L125.011 37.3815H120.074V37.3824ZM116.367 28.4409H118.574C119.817 28.4409 120.439 27.8802 120.439 26.757C120.439 26.2264 120.283 25.8095 119.972 25.5061C119.661 25.2028 119.194 25.0516 118.573 25.0516H116.366V28.4418L116.367 28.4409Z" fill="#000000"/>
<path d="M139.242 30.5107C139.795 31.2235 140.072 32.05 140.072 32.991C140.072 34.3865 139.609 35.4674 138.684 36.2328C137.759 36.9991 136.432 37.3814 134.703 37.3814H126.74V21.2734H134.521C136.144 21.2734 137.413 21.6303 138.332 22.3431C139.249 23.0559 139.709 24.0871 139.709 25.4375C139.709 26.3926 139.458 27.1937 138.957 27.8379C138.457 28.4831 137.798 28.9038 136.978 29.101C137.933 29.3283 138.688 29.7988 139.241 30.5116L139.242 30.5107ZM131.223 27.713H133.475C134.597 27.713 135.159 27.2435 135.159 26.3025C135.159 25.3615 134.589 24.8468 133.452 24.8468H131.223V27.713ZM135.499 32.3317C135.499 31.3306 134.915 30.83 133.748 30.83H131.223V33.7873H133.748C134.915 33.7873 135.499 33.3018 135.499 32.3317Z" fill="#000000"/>
<path d="M146.443 24.8458V27.5074H151.653V30.8976H146.443V33.8099H152.335V37.3814H141.96V21.2734H152.335V24.8449H146.443V24.8458Z" fill="#000000"/>
<path d="M162.573 37.3824L159.32 31.4443H158.865V37.3824H154.383V21.2744H161.458C162.748 21.2744 163.843 21.4979 164.746 21.9459C165.649 22.3938 166.328 23.0118 166.782 23.7997C167.237 24.5886 167.465 25.4761 167.465 26.4612C167.465 27.5835 167.154 28.5583 166.533 29.3847C165.911 30.2112 165.016 30.7916 163.848 31.125L167.51 37.3815H162.573V37.3824ZM158.865 28.4409H161.072C162.315 28.4409 162.937 27.8802 162.937 26.757C162.937 26.2264 162.781 25.8095 162.47 25.5061C162.159 25.2028 161.692 25.0516 161.071 25.0516H158.864V28.4418L158.865 28.4409Z" fill="#000000"/>
<path d="M173.607 21.2744V30.4656C173.607 31.3756 173.808 32.0771 174.21 32.5702C174.611 33.0632 175.222 33.3093 176.041 33.3093C176.86 33.3093 177.478 33.0586 177.895 32.559C178.312 32.0584 178.52 31.3606 178.52 30.4656V21.2744H182.979V30.4656C182.979 31.9823 182.672 33.2717 182.058 34.3329C181.444 35.3951 180.605 36.1952 179.544 36.7334C178.482 37.2715 177.283 37.541 175.949 37.541C174.614 37.541 173.435 37.2762 172.411 36.7446C171.387 36.214 170.587 35.4177 170.011 34.3555C169.434 33.2943 169.146 31.9973 169.146 30.4647V21.2734H173.605L173.607 21.2744Z" fill="#000000"/>
<path d="M196.676 35.1752C196.221 35.903 195.554 36.4796 194.674 36.9041C193.794 37.3286 192.741 37.5408 191.512 37.5408C189.647 37.5408 188.111 37.0938 186.905 36.1988C185.699 35.3038 185.042 34.0304 184.936 32.3766H189.691C189.736 32.9382 189.911 33.3551 190.214 33.6275C190.518 33.9008 190.889 34.0369 191.329 34.0369C191.723 34.0369 192.031 33.9383 192.25 33.7411C192.47 33.5439 192.58 33.2631 192.58 32.8997C192.58 32.4141 192.36 32.0394 191.92 31.7736C191.479 31.5088 190.782 31.2158 189.826 30.8974C188.81 30.549 187.973 30.2072 187.312 29.8738C186.652 29.5404 186.084 29.0398 185.606 28.3721C185.128 27.7053 184.889 26.8479 184.889 25.8008C184.889 24.7537 185.147 23.9394 185.663 23.2182C186.179 22.4979 186.884 21.9522 187.779 21.5803C188.674 21.2084 189.69 21.0225 190.828 21.0225C192.678 21.0225 194.153 21.4582 195.253 22.3307C196.352 23.2031 196.955 24.4278 197.061 26.0046H192.261C192.2 25.504 192.045 25.1321 191.794 24.8898C191.543 24.6475 191.214 24.5254 190.804 24.5254C190.455 24.5254 190.182 24.6165 189.985 24.7987C189.788 24.9809 189.689 25.2542 189.689 25.6176C189.689 26.0722 189.905 26.4291 190.337 26.6873C190.769 26.9456 191.448 27.233 192.373 27.5523C193.389 27.9166 194.231 28.2726 194.899 28.6219C195.566 28.9713 196.142 29.4794 196.628 30.1461C197.113 30.8139 197.355 31.6778 197.355 32.74C197.355 33.635 197.128 34.4464 196.673 35.1742L196.676 35.1752Z" fill="#000000"/>
<path d="M203.985 37.5415C205.571 37.5415 206.857 36.2553 206.857 34.6687C206.857 33.0821 205.571 31.7959 203.985 31.7959C202.398 31.7959 201.112 33.0821 201.112 34.6687C201.112 36.2553 202.398 37.5415 203.985 37.5415Z" fill="#FF671B"/>
</g>
<defs>
<clipPath id="clip0_5319_1014">
<rect width="206.857" height="48.0011" fill="white"/>
</clipPath>
<clipPath id="clip1_5319_1014">
<rect width="53.8647" height="6.1485" fill="white" transform="translate(83.709 10.46)"/>
</clipPath>
</defs>
</svg>
