<?xml version="1.0" encoding="utf-8"?>
<!-- Generator: Adobe Illustrator 19.0.0, SVG Export Plug-In . SVG Version: 6.00 Build 0)  -->
<svg version="1.1" id="Layer_1" xmlns="http://www.w3.org/2000/svg" xmlns:xlink="http://www.w3.org/1999/xlink" x="0px" y="0px"
	 width="1000px" height="351.2px" viewBox="0 0 1000 351.2" style="enable-background:new 0 0 1000 351.2;" xml:space="preserve">
<style type="text/css">
	.st0{fill:#142D37;}
	.st1{fill:#32FFC3;}
</style>
<g id="XMLID_1_">
	<g id="XMLID_295_">
		<path id="XMLID_187_" class="st0" d="M95.2,247H54.5c-17.3,0-30.7-4.8-40.2-14.4C4.7,223,0,209.7,0,192.5v-117
			c0-17.3,4.7-30.7,14.2-40.2c9.5-9.5,22.9-14.2,40.2-14.2h40.8c17.1,0,30.4,4.7,40.1,14.2c9.6,9.5,14.4,22.9,14.4,40.2v16.9
			c0,4.2-2.1,6.3-6.3,6.3h-22.1c-4,0-6-2.1-6-6.3V77c0-17.3-8.4-26-25.3-26H59.4c-16.9,0-25.3,8.7-25.3,26v114.2
			c0,17.3,8.4,26,25.3,26h30.6c16.9,0,25.3-8.7,25.3-26v-15.5c0-4.2,2-6.3,6-6.3h22.1c4.2,0,6.3,2.1,6.3,6.3v16.9
			c0,17.1-4.8,30.5-14.4,40.1C125.7,242.2,112.3,247,95.2,247z"/>
		<path id="XMLID_185_" class="st0" d="M210.9,247h-22.1c-4,0-6-2-6-6V73.8c0-4,2-6,6-6h22.1c4,0,6,2,6,6v13.4h1.4
			c2.3-5.9,6.9-10.5,13.5-14.1c6.7-3.5,14.1-5.3,22.3-5.3h13c4,0,6,2,6,6v18.3c0,4.5-2,6.3-6,5.6h-21.1c-19.4,0-29.2,10.7-29.2,32
			V241C216.9,245,214.9,247,210.9,247z"/>
		<path id="XMLID_181_" class="st0" d="M333.1,173.2h94.2c4.2,0,6.3-2.1,6.3-6.3v-44.6c0-17.3-4.8-30.7-14.4-40.3
			c-9.6-9.5-23-14.2-40.4-14.2H350c-17.3,0-30.7,4.7-40.2,14.2c-9.5,9.5-14.2,22.9-14.2,40.3v70.3c0,17.1,4.7,30.5,14.2,40
			c9.5,9.6,22.9,14.4,40.2,14.4h75.9c4.2,0,6.3-1.9,6.3-5.7v-17.5c0-4.2-2.1-6.3-6.3-6.3h-71c-17.1,0-25.7-8.5-25.7-25.7v-15.1
			C329.3,174.4,330.6,173.2,333.1,173.2z M329.6,123.3c0-8.9,2-15.4,6-19.5c4-4.1,10.4-6.1,19.3-6.1h19.3c8.9,0,15.3,2,19.3,6.1
			c4,4.1,6,10.6,6,19.5v22.5c0,2.3-1.2,3.5-3.5,3.5h-62.9c-2.3,0-3.5-1.2-3.5-3.5V123.3z"/>
		<path id="XMLID_177_" class="st0" d="M595.8,67.8h-78.7c-17.3,0-30.7,4.7-40.2,14.2c-9.5,9.5-14.2,22.9-14.2,40.3v70.3
			c0,17.1,4.7,30.5,14.2,40c9.5,9.6,22.9,14.4,40.2,14.4h13.7c18.1,0,29.9-6.2,35.5-18.6h1.4V241c0,4,2,6,6,6h22.2
			c4.2,0,6.3-2,6.3-6V73.8C602.2,69.8,600,67.8,595.8,67.8z M567.7,187.3c0,19.9-9.6,29.9-28.8,29.9H522c-16.9,0-25.3-8.7-25.3-26
			v-67.5c0-17.3,8.4-26,25.3-26h41.8c2.6,0,3.9,1.2,3.9,3.5V187.3z"/>
		<path id="XMLID_442_" class="st0" d="M666.6,247h-22.1c-4,0-6-2-6-6V6c0-4,2-6,6-6h22.1c4,0,6,2,6,6V241
			C672.6,245,670.6,247,666.6,247z"/>
		<path id="XMLID_444_" class="st0" d="M831.9,82c-9.7-9.5-23.1-14.2-40.2-14.2h-30.9c-17.3,0-30.7,4.7-40.2,14.2
			c-9.5,9.5-14.2,22.9-14.2,40.3v70.3c0,17.1,4.8,30.5,14.2,40c9.5,9.6,22.9,14.4,40.2,14.4h30.9c17.1,0,30.5-4.8,40.2-14.4
			c9.7-9.6,14.6-22.9,14.6-40v-70.3C846.5,105,841.6,91.5,831.9,82z M812.5,191.5c0,17.1-8.4,25.7-25.3,25.7h-21.4
			c-8.9,0-15.3-2-19.3-6.1c-4-4.1-6-10.6-6-19.5v-68.2c0-8.9,2-15.4,6-19.5c4-4.1,10.4-6.1,19.3-6.1h21.4c16.9,0,25.3,8.5,25.3,25.6
			V191.5z"/>
		<path id="XMLID_447_" class="st0" d="M870.3,241v-9.1c0-5.9,1.6-10.9,4.9-15.1l81.2-117.7v-1.4h-76.9c-4.2,0-6.3-2.1-6.3-6.3V73.8
			c0-4,2.1-6,6.3-6h111c4,0,6,2,6,6V90c0,5.6-1.4,10.1-4.2,13.3l-77,112.4v1.4h78.4c4.2,0,6.3,2.1,6.3,6.3V241c0,4-2.1,6-6.3,6h-117
			C872.5,247,870.3,245,870.3,241z"/>
	</g>
	<g id="XMLID_294_">
		<path id="XMLID_173_" class="st1" d="M543.6,170h-22.8c-0.6,0-1-0.4-1-1v-22.8c0-0.6,0.4-1,1-1h22.8c0.6,0,1,0.4,1,1V169
			C544.6,169.5,544.2,170,543.6,170z"/>
		<g id="XMLID_170_">
			<path id="XMLID_171_" class="st1" d="M734.4,328H691c-14.5,0-21.8,5.7-21.8,17.2c0,4-2,6-6,6h-17.9c-4.2,0-6.3-2.5-6.3-7.4
				c0-10.5-7.1-15.8-21.4-15.8h-43.3c-36.3,0-54.5-15.9-54.5-47.8v-2.1c0-4.2,2-6.3,6-6.3h13c4,0,6,2.1,6,6.3v1.1
				c0,7.7,2.1,13.1,6.2,16.2c4.1,3,10.7,4.6,19.8,4.6h49.3c18.7,0,30.1,6.9,34.1,20.7c4.7-13.8,16.2-20.7,34.4-20.7h49.3
				c9.1,0,15.8-1.5,19.8-4.6c4.1-3,6.1-8.4,6.1-16.2v-1.1c0-4.2,2-6.3,6-6.3h13c4,0,6,2.1,6,6.3v2.1
				C788.8,312.1,770.7,328,734.4,328z"/>
		</g>
		<path id="XMLID_169_" class="st1" d="M787.8,169.8H765c-0.6,0-1-0.4-1-1V146c0-0.6,0.4-1,1-1h22.8c0.6,0,1,0.4,1,1v22.8
			C788.8,169.4,788.4,169.8,787.8,169.8z"/>
	</g>
</g>
</svg>
