<svg viewBox="0 0 476.15 161.28" xmlns="http://www.w3.org/2000/svg" xmlns:xlink="http://www.w3.org/1999/xlink"><clipPath id="a"><path d="m80.64 0c-44.54 0-80.64 36.1-80.64 80.64s36.1 80.64 80.64 80.64h.03c44.54 0 80.65-36.1 80.65-80.64s-36.11-80.64-80.65-80.64z"/></clipPath><clipPath id="b"><path d="m-183.23-210.59h841.89v595.28h-841.89z"/></clipPath><clipPath id="c"><path d="m73.83 112.91.83-7.51c1.02-.15 1.91-.34 2.68-.57 5.01-1.2 9.3-3.43 12.9-7 1.3-1.29 2.47-2.72 3.53-4.32.32.2.66.41 1.08.67.16.1.36.23.73.45.29.18.51.32.73.46 4.01 2.49 6.91 4.19 9.74 5.58-4.01 8.51-11.97 12.19-23.57 12.22-2.03 0-4.04 0-5.99 0-.9 0-1.79 0-2.66 0m-16.47-16.68c-1.64-1.23-2.3-2.72-2.14-4.41.44-4.5 5.59-6.98 13.88-6.98 6.72 0 11.86 1.47 18.68 5.17-.74 1.08-1.55 2.05-2.42 2.91-3.48 3.46-7.98 5.25-13.73 5.87-.46.04-.93.08-1.4.11-.34.02-.65.04-.93.06-.12 0-.21.01-.27.01-5.5 0-9.4-1.04-11.67-2.74m42.62-7.01c-.22-.13-.44-.27-.73-.45-.36-.23-.57-.35-.73-.45-.6-.37-1.03-.64-1.46-.91-.04-.02-.08-.05-.12-.07 1.8-4.6 2.93-10.11 3.34-16.57.07-1.06.09-2.11.07-3.15.64.34 1.25.72 1.83 1.13 4.93 3.51 7.4 9.6 6.77 19.37-.14 2.11-.39 4.07-.75 5.89-2.33-1.2-4.84-2.68-8.21-4.78m-15.35-8.37c-2.31-.91-4.64-1.61-7.02-2.1l1.56-14.09h6.33c2.83.01 5.41.21 7.74.61.18 1.61.23 3.28.12 5.02-.34 5.32-1.19 9.77-2.49 13.46-2.17-1.17-4.13-2.09-6.23-2.91m-15.93-40.15c-1.84 0-3.76 0-5.66 0-.68 0-1.31 0-1.88 0q-.31 0-.52 0h-3.26s-3.35 28.46-3.35 28.46l6.89.81 2.63-22.34h6.27c2.05 0 3.83 0 5.28.01 7.3.03 13.1 4.06 16.09 10.36-1.81-.18-3.7-.27-5.68-.27-3.07-.01-5.88-.01-8.25 0-.35 0-.65 0-.91 0h-.32l-3.09.02-2.23 20.18c-.54-.02-1.08-.03-1.62-.03-4.88 0-9.35.79-12.89 2.49-4.54 2.18-7.42 5.83-7.9 10.76-.4 4.1 1.3 7.95 4.88 10.63 3.37 2.52 8.22 3.92 14.43 4.11l-1.55 13.95h3.86c.08.01.24.01.46.01h1.29 10.8c19.65-.06 31.99-9.8 33.37-31.3.78-12.04-2.64-20.47-9.67-25.47-2.12-1.51-4.46-2.65-7.03-3.49-3.12-11.08-12.11-18.85-24.02-18.9-1.46 0-3.25 0-5.31 0h-1.13"/></clipPath><clipPath id="d"><path d="m-183.23-210.59h841.89v595.28h-841.89z"/></clipPath><g clip-path="url(#a)"><g clip-path="url(#b)"><path d="m-2.9-2.89h167.1v167.07h-167.1z" fill="#010101"/></g></g><g clip-path="url(#c)"><g clip-path="url(#d)"><path d="m45.37 37.79h73.51v84.96h-73.51z" fill="#fff"/></g></g><g fill="#010101"><path d="m382.01 53.89 8-19.11h-12.75l-2.14 18.31z"/><path d="m365.95 70.08v49.2h-14.5v-46.66c0-11.51-7.33-19.58-17.8-19.58s-20.04 7.02-21.23 16.14v50.1h-14.81v-77.31h14.81v11.22c4.63-7.63 14.06-13.01 24.53-13.01 17.05 0 29.01 12.41 29.01 29.91"/><path d="m236.51 40.09h-27.94v79.25h27.94c26.97 0 45.8-16.32 45.8-39.69s-18.83-39.56-45.8-39.56m2.28 66.3h-15.7v-53.34h15.7c16.45 0 28.4 11.19 28.4 26.6s-11.95 26.74-28.4 26.74"/><path d="m430.36 40.09h-27.94v79.25h27.94c26.97 0 45.8-16.32 45.8-39.69s-18.83-39.56-45.8-39.56m2.28 66.3h-15.7v-53.34h15.7c16.45 0 28.4 11.19 28.4 26.6s-11.95 26.74-28.4 26.74"/></g></svg>