<svg xmlns="http://www.w3.org/2000/svg" viewBox="1262.0931 53.7374 2306.9135 473.1806" width="813.828mm" height="166.928mm">
  <defs>
    <linearGradient id="uuid-0d84af2e-598e-404c-a801-c86ef3839255" x1="1417.199" y1="422.412" x2="1503.037" y2="377.73" gradientUnits="userSpaceOnUse">
      <stop offset="0" stop-color="#2b4d9b"></stop>
      <stop offset="1" stop-color="#388ecc"></stop>
    </linearGradient>
    <linearGradient id="uuid-deb52917-5ccf-428b-a58d-e19dd863fbe4" x1="1417.195" y1="422.404" x2="1503.032" y2="377.721" href="#uuid-0d84af2e-598e-404c-a801-c86ef3839255"></linearGradient>
    <linearGradient id="uuid-322dd4bf-6468-4802-81f0-34e7895d3bfc" x1="1375.183" y1="382.803" x2="1624.758" y2="124.409" href="#uuid-0d84af2e-598e-404c-a801-c86ef3839255"></linearGradient>
  </defs>
  <path d="M2010.24,449.917c3.584,0,6.881.512,9.871,1.557,2.99,1.024,5.571,2.355,7.762,3.973,2.171,1.638,3.871,3.42,5.1,5.366,1.229,1.966,1.884,3.85,1.946,5.632,0,.512-.184.922-.553,1.29-.369.369-.778.553-1.208.553h-10.998c-.778,0-1.413-.102-1.884-.348-.471-.205-.963-.553-1.475-.983-.164-.184-.43-.451-.799-.86-.348-.369-.881-.778-1.536-1.208-.676-.43-1.516-.778-2.519-1.085-1.004-.307-2.253-.471-3.707-.471-1.044,0-2.069.061-3.052.225-.983.123-1.843.348-2.601.655-.758.307-1.372.737-1.843,1.311-.471.553-.717,1.249-.717,2.089s.266,1.536.799,2.089c.532.573,1.434,1.085,2.683,1.557,1.249.492,2.929.942,4.997,1.393,2.069.451,4.629.983,7.721,1.597,3.072.614,5.755,1.393,8.049,2.335,2.294.963,4.198,2.15,5.734,3.564,1.536,1.434,2.683,3.113,3.441,5.038.758,1.925,1.147,4.219,1.147,6.84,0,2.867-.655,5.407-1.946,7.639-1.27,2.232-3.093,4.157-5.407,5.755-2.314,1.577-5.059,2.785-8.213,3.645-3.174.819-6.615,1.249-10.363,1.249-3.809,0-7.271-.512-10.404-1.516-3.133-1.004-5.837-2.335-8.09-3.994-2.273-1.638-4.055-3.482-5.325-5.571-1.29-2.048-1.966-4.157-2.028-6.287,0-.512.184-.922.553-1.29.369-.369.758-.553,1.208-.553h10.998c.778,0,1.393.102,1.843.307.451.184.901.471,1.352.86.205.246.553.594,1.004,1.106.451.492,1.044,1.024,1.802,1.557s1.7.983,2.847,1.372c1.147.389,2.56.594,4.239.594,2.97,0,5.427-.328,7.414-.983,1.987-.635,2.99-1.802,2.99-3.482,0-.819-.369-1.516-1.085-2.089-.737-.553-1.823-1.065-3.277-1.557-1.454-.471-3.318-.942-5.591-1.372-2.253-.451-4.936-1.004-8.008-1.679-5.755-1.229-9.974-3.297-12.616-6.165-2.662-2.888-3.994-6.718-3.994-11.551,0-2.396.553-4.69,1.638-6.881,1.085-2.171,2.683-4.096,4.751-5.775,2.069-1.679,4.567-2.99,7.496-3.973,2.949-.983,6.226-1.475,9.851-1.475Z" style="fill:#ef7e58;" transform="matrix(0.9999999999999999, 0, 0, 0.9999999999999999, -5.684341886080802e-14, 0)"></path>
  <path d="M2069.51,494.666c-.471-.471-.86-.922-1.126-1.372l-7.885-13.845v27.771c0,.614-.225,1.147-.676,1.577-.451.451-.983.676-1.597.676h-10.977c-.635,0-1.147-.225-1.597-.676-.451-.43-.676-.963-.676-1.577v-54.191c0-.614.225-1.147.676-1.597s.963-.676,1.597-.676h9.728c1.106,0,1.946.307,2.519.922.553.614.922,1.065,1.085,1.352l13.578,23.225,13.599-23.225c.164-.287.532-.737,1.085-1.352.553-.614,1.393-.922,2.519-.922h9.728c.614,0,1.147.225,1.597.676.451.451.676.983.676,1.597v54.191c0,.614-.225,1.147-.676,1.577-.451.451-.983.676-1.597.676h-10.977c-.614,0-1.147-.225-1.597-.676-.451-.43-.676-.963-.676-1.577v-27.771l-7.885,13.845c-.287.451-.655.901-1.126,1.372-.492.471-1.147.717-1.987.717h-5.366c-.84,0-1.495-.246-1.966-.717Z" style="fill:#ef7e58;" transform="matrix(0.9999999999999999, 0, 0, 0.9999999999999999, -5.684341886080802e-14, 0)"></path>
  <path d="M2117.372,509.474c-.614,0-1.147-.225-1.597-.676-.451-.43-.676-.963-.676-1.577v-54.191c0-.614.225-1.147.676-1.597s.983-.676,1.597-.676h10.998c.614,0,1.147.225,1.577.676.451.451.676.983.676,1.597v54.191c0,.614-.225,1.147-.676,1.577-.43.451-.963.676-1.577.676h-10.998Z" style="fill:#ef7e58;" transform="matrix(0.9999999999999999, 0, 0, 0.9999999999999999, -5.684341886080802e-14, 0)"></path>
  <path d="M2183.483,496.038c.614,0,1.126.246,1.577.696.451.451.676.963.676,1.577v8.909c0,.614-.225,1.147-.676,1.577-.451.451-.963.676-1.577.676h-38.851c-.614,0-1.147-.225-1.597-.676-.451-.43-.676-.963-.676-1.577v-54.191c0-.614.225-1.147.676-1.597.451-.451.983-.676,1.597-.676h10.998c.614,0,1.147.225,1.577.676.451.451.676.983.676,1.597v43.009h25.6Z" style="fill:#ef7e58;" transform="matrix(0.9999999999999999, 0, 0, 0.9999999999999999, -5.684341886080802e-14, 0)"></path>
  <path d="M2234.991,496.038c.614,0,1.147.246,1.577.696.451.451.676.963.676,1.577v8.909c0,.614-.225,1.147-.676,1.577-.43.451-.963.676-1.577.676h-39.773c-.614,0-1.147-.225-1.597-.676-.451-.43-.676-.963-.676-1.577v-54.191c0-.614.225-1.147.676-1.597.451-.451.983-.676,1.597-.676h39.097c.614,0,1.147.225,1.597.676.43.451.655.983.655,1.597v8.888c0,.614-.225,1.147-.655,1.597-.451.451-.983.655-1.597.655h-25.846v9.052h24.003c.614,0,1.147.246,1.597.696.43.43.655.963.655,1.577v8.909c0,.614-.225,1.147-.655,1.577-.451.451-.983.676-1.597.676h-24.003v9.38h26.522Z" style="fill:#ef7e58;" transform="matrix(0.9999999999999999, 0, 0, 0.9999999999999999, -5.684341886080802e-14, 0)"></path>
  <path d="M1872.102,450.387c3.33,0,6.432.584,9.299,1.752,2.872,1.172,5.368,2.837,7.496,4.996,2.124,2.163,3.828,4.801,5.104,7.919,1.272,3.118,2.016,6.626,2.232,10.523.069,1.064.104,2.214.104,3.456s-.035,2.392-.104,3.456c-.216,3.897-.96,7.405-2.232,10.523-1.276,3.118-2.98,5.774-5.104,7.971-2.128,2.197-4.624,3.88-7.496,5.047-2.868,1.172-5.969,1.756-9.299,1.756-4.325,0-7.798-.727-10.419-2.18-2.621-1.453-4.641-3.136-6.055-5.047v3.291c0,.783-.285,1.453-.852,2.02-.567.571-1.241.852-2.02.852h-3.932c-.783,0-1.453-.281-2.02-.852-.571-.567-.852-1.237-.852-2.02v-69.726c0-.783.281-1.453.852-2.02.567-.567,1.237-.852,2.02-.852h3.932c.779,0,1.453.285,2.02.852.567.567.852,1.237.852,2.02v23.49c1.345-1.769,3.33-3.417,5.951-4.944,2.621-1.522,6.129-2.284,10.523-2.284ZM1855.627,483.657c.35,4.606,1.912,8.257,4.676,10.947,2.764,2.695,6.341,4.04,10.735,4.04,4.676,0,8.343-1.488,11.003-4.464,2.656-2.976,4.161-7.015,4.515-12.119.069-1.981.069-3.966,0-5.951-.355-5.104-1.86-9.139-4.515-12.119-2.66-2.976-6.328-4.464-11.003-4.464-4.464,0-8.045,1.367-10.735,4.092-2.695,2.729-4.252,6.609-4.676,11.643-.143,1.06-.216,2.461-.216,4.195s.074,3.136.216,4.2Z" style="fill:#293843;" transform="matrix(0.9999999999999999, 0, 0, 0.9999999999999999, -5.684341886080802e-14, 0)"></path>
  <path d="M1925.674,524.37c-.212.567-.567,1.133-1.06,1.7-.497.567-1.172.848-2.02.848h-4.36c-.709,0-1.311-.247-1.808-.744-.497-.493-.744-1.099-.744-1.804,0-.285.035-.532.108-.744l10.203-22.218-21.046-46.664c-.074-.212-.108-.458-.108-.744,0-.705.251-1.311.744-1.804.497-.497,1.099-.748,1.808-.748h4.36c.848,0,1.522.285,2.02.852.493.567.848,1.133,1.064,1.7l16.366,36.141,16.583-36.141c.212-.567.567-1.133,1.064-1.7.493-.567,1.168-.852,2.02-.852h4.355c.709,0,1.311.251,1.808.748.497.493.744,1.099.744,1.804,0,.285-.035.532-.104.744l-31.998,69.627Z" style="fill:#293843;" transform="matrix(0.9999999999999999, 0, 0, 0.9999999999999999, -5.684341886080802e-14, 0)"></path>
  <path d="M1859.177,395.901c-3.765,0-6.924-.585-9.477-1.753-2.554-1.168-4.511-2.671-5.874-4.511-1.363-1.839-2.088-3.775-2.174-5.81,0-.346.14-.659.422-.941.28-.28.616-.422,1.006-.422h3.31c.52,0,.909.13,1.169.39s.432.563.52.909c.259,1.038.8,2.066,1.622,3.083.821,1.017,2.001,1.86,3.538,2.531,1.535.671,3.515,1.006,5.938,1.006,3.721,0,6.458-.659,8.211-1.979,1.752-1.319,2.629-3.083,2.629-5.29,0-1.514-.466-2.736-1.396-3.667-.932-.931-2.348-1.763-4.252-2.499-1.904-.735-4.371-1.535-7.399-2.401-3.159-.909-5.776-1.904-7.854-2.986-2.077-1.081-3.625-2.423-4.641-4.023-1.018-1.601-1.525-3.636-1.525-6.102,0-2.337.627-4.424,1.882-6.264,1.255-1.839,3.072-3.299,5.452-4.381,2.38-1.081,5.235-1.623,8.568-1.623,2.683,0,5.03.357,7.042,1.071,2.013.714,3.688,1.666,5.03,2.855,1.341,1.19,2.358,2.467,3.051,3.829.691,1.363,1.06,2.694,1.104,3.992,0,.304-.108.596-.324.876-.218.282-.563.422-1.039.422h-3.439c-.304,0-.617-.086-.941-.259-.325-.173-.574-.497-.747-.974-.259-1.774-1.255-3.267-2.985-4.479-1.731-1.211-3.981-1.817-6.75-1.817-2.813,0-5.096.542-6.848,1.623-1.753,1.082-2.629,2.77-2.629,5.062,0,1.472.41,2.694,1.233,3.668.821.974,2.119,1.828,3.895,2.563,1.773.736,4.089,1.516,6.944,2.337,3.462.952,6.296,1.958,8.503,3.018,2.207,1.062,3.84,2.381,4.9,3.96,1.061,1.58,1.591,3.602,1.591,6.068,0,2.727-.714,5.053-2.143,6.978-1.428,1.926-3.43,3.397-6.004,4.414-2.574,1.016-5.614,1.525-9.119,1.525Z" style="fill:#293843;" transform="matrix(0.9999999999999999, 0, 0, 0.9999999999999999, -5.684341886080802e-14, 0)"></path>
  <path d="M1887.735,395.252c-.477,0-.844-.14-1.104-.422-.26-.281-.39-.638-.39-1.071v-42.384c0-.476.13-.854.39-1.136s.627-.422,1.104-.422h26.807c.476,0,.844.141,1.104.422s.39.66.39,1.136v2.466c0,.478-.13.844-.39,1.104s-.628.39-1.104.39h-22.068v14.215h20.641c.476,0,.844.141,1.104.422.26.282.39.66.39,1.136v2.401c0,.434-.13.79-.39,1.071-.26.282-.628.422-1.104.422h-20.641v14.733h22.588c.476,0,.844.13,1.104.39s.39.628.39,1.104v2.531c0,.434-.13.79-.39,1.071-.26.282-.628.422-1.104.422h-27.326Z" style="fill:#293843;" transform="matrix(0.9999999999999999, 0, 0, 0.9999999999999999, -5.684341886080802e-14, 0)"></path>
  <path d="M1923.823,395.252c-.348,0-.649-.13-.909-.39s-.39-.562-.39-.908c0-.217.021-.455.065-.714l16.097-41.995c.173-.433.411-.779.714-1.039.303-.259.757-.389,1.363-.389h4.414c.605,0,1.06.13,1.362.389.303.26.541.606.714,1.039l16.032,41.995c.087.259.13.497.13.714,0,.347-.13.648-.39.908-.259.26-.562.39-.908.39h-3.311c-.52,0-.898-.13-1.136-.39-.238-.26-.4-.497-.486-.714l-3.57-9.217h-21.29l-3.569,9.217c-.044.217-.194.454-.454.714s-.649.39-1.169.39h-3.31ZM1934.208,379.349h17.524l-8.762-23.042-8.763,23.042Z" style="fill:#293843;" transform="matrix(0.9999999999999999, 0, 0, 0.9999999999999999, -5.684341886080802e-14, 0)"></path>
  <path d="M1973.152,395.252c-.477,0-.844-.14-1.104-.422-.26-.281-.39-.638-.39-1.071v-42.384c0-.476.13-.854.39-1.136s.627-.422,1.104-.422h15.838c4.889,0,8.762,1.146,11.618,3.439,2.855,2.294,4.283,5.69,4.283,10.19,0,3.333-.833,6.048-2.498,8.146-1.667,2.099-3.928,3.56-6.783,4.381l9.996,17.266c.129.259.194.497.194.714,0,.347-.141.648-.422.908-.282.26-.596.39-.941.39h-3.115c-.736,0-1.277-.194-1.623-.584-.347-.39-.648-.779-.908-1.169l-9.412-16.486h-11.358v16.746c0,.434-.141.79-.422,1.071s-.66.422-1.136.422h-3.311ZM1978.02,371.496h10.71c3.245,0,5.668-.682,7.27-2.045,1.601-1.363,2.401-3.385,2.401-6.068,0-2.639-.79-4.651-2.369-6.036-1.58-1.385-4.014-2.077-7.302-2.077h-10.71v16.227Z" style="fill:#293843;" transform="matrix(0.9999999999999999, 0, 0, 0.9999999999999999, -5.684341886080802e-14, 0)"></path>
  <path d="M2031.765,395.901c-3.982,0-7.281-.735-9.898-2.207-2.619-1.471-4.599-3.526-5.939-6.166-1.342-2.64-2.077-5.712-2.207-9.217-.043-1.774-.064-3.678-.064-5.712s.021-3.98.064-5.842c.13-3.505.865-6.577,2.207-9.217,1.341-2.639,3.32-4.694,5.939-6.166,2.617-1.471,5.916-2.207,9.898-2.207,2.985,0,5.603.412,7.854,1.233,2.249.822,4.121,1.926,5.614,3.31,1.493,1.386,2.629,2.933,3.407,4.642.779,1.71,1.211,3.473,1.299,5.29.042.389-.076.714-.357.974-.282.259-.616.389-1.006.389h-3.57c-.389,0-.725-.107-1.006-.324-.281-.216-.486-.605-.616-1.168-.736-3.375-2.109-5.689-4.122-6.945-2.012-1.255-4.511-1.883-7.496-1.883-3.506,0-6.275.985-8.309,2.954-2.034,1.969-3.115,5.117-3.245,9.443-.13,3.549-.13,7.184,0,10.904.13,4.328,1.211,7.476,3.245,9.444,2.033,1.97,4.803,2.953,8.309,2.953,2.985,0,5.484-.627,7.496-1.882,2.013-1.255,3.386-3.57,4.122-6.945.13-.562.335-.951.616-1.168s.617-.325,1.006-.325h3.57c.39,0,.724.12,1.006.357.281.238.399.552.357.941-.088,1.817-.52,3.592-1.299,5.322-.778,1.73-1.914,3.289-3.407,4.673-1.493,1.386-3.365,2.489-5.614,3.311-2.251.821-4.868,1.233-7.854,1.233Z" style="fill:#293843;" transform="matrix(0.9999999999999999, 0, 0, 0.9999999999999999, -5.684341886080802e-14, 0)"></path>
  <path d="M2061.426,395.252c-.477,0-.844-.14-1.104-.422-.26-.281-.39-.638-.39-1.071v-42.384c0-.476.13-.854.39-1.136s.627-.422,1.104-.422h3.311c.476,0,.854.141,1.136.422.281.281.422.66.422,1.136v17.914h22.328v-17.914c0-.476.14-.854.422-1.136.281-.281.638-.422,1.071-.422h3.31c.476,0,.854.141,1.136.422s.422.66.422,1.136v42.384c0,.434-.141.79-.422,1.071-.281.282-.66.422-1.136.422h-3.31c-.434,0-.79-.14-1.071-.422-.282-.281-.422-.638-.422-1.071v-18.628h-22.328v18.628c0,.434-.141.79-.422,1.071s-.66.422-1.136.422h-3.311Z" style="fill:#293843;" transform="matrix(0.9999999999999999, 0, 0, 0.9999999999999999, -5.684341886080802e-14, 0)"></path>
  <path d="M2137.755,395.901c-2.942,0-5.549-.542-7.821-1.623-2.271-1.081-4.035-2.585-5.289-4.511-1.256-1.925-1.883-4.144-1.883-6.653,0-1.989.422-3.732,1.266-5.225.844-1.493,1.957-2.824,3.343-3.992,1.385-1.168,2.898-2.229,4.544-3.181-2.035-2.163-3.473-4.066-4.316-5.712-.844-1.644-1.266-3.353-1.266-5.127,0-1.947.496-3.722,1.492-5.322.995-1.601,2.401-2.899,4.22-3.895,1.817-.995,3.959-1.493,6.426-1.493,2.423,0,4.521.477,6.296,1.428,1.773.952,3.158,2.229,4.153,3.83s1.493,3.397,1.493,5.387c0,1.905-.454,3.57-1.363,4.998-.908,1.428-2.109,2.705-3.602,3.829-1.493,1.126-3.127,2.186-4.901,3.181l11.034,10.84c.692-1.211,1.353-2.618,1.98-4.219.626-1.601,1.136-3.483,1.525-5.647.086-.865.54-1.298,1.362-1.298h2.856c.432,0,.768.13,1.006.39.237.26.357.584.357.974-.044.952-.185,1.969-.423,3.05-.238,1.083-.584,2.229-1.038,3.44-.454,1.212-.996,2.413-1.623,3.603-.627,1.19-1.353,2.348-2.174,3.473l6.62,6.62c.39.347.584.672.584.974,0,.39-.108.692-.324.909-.217.217-.541.324-.974.324h-3.635c-.433,0-.79-.064-1.071-.194s-.509-.281-.681-.455l-4.284-4.219c-1.688,1.646-3.679,2.976-5.972,3.992-2.294,1.016-4.933,1.525-7.919,1.525ZM2137.755,390.708c1.73,0,3.462-.356,5.193-1.07,1.729-.714,3.331-1.807,4.803-3.278l-12.138-11.812c-1.861,1.038-3.473,2.218-4.836,3.537-1.362,1.32-2.044,2.953-2.044,4.9,0,1.646.422,3.041,1.266,4.187.844,1.147,1.957,2.023,3.343,2.629,1.384.606,2.855.908,4.413.908ZM2136.977,368.055c1.384-.778,2.671-1.558,3.861-2.337,1.19-.778,2.143-1.644,2.856-2.596.714-.951,1.071-2.033,1.071-3.245,0-1.73-.606-3.116-1.817-4.154-1.212-1.039-2.705-1.558-4.479-1.558-1.688,0-3.159.509-4.414,1.525-1.256,1.017-1.883,2.434-1.883,4.251,0,.736.13,1.482.39,2.239.26.758.747,1.591,1.461,2.499.714.909,1.697,2.034,2.953,3.375Z" style="fill:#293843;" transform="matrix(0.9999999999999999, 0, 0, 0.9999999999999999, -5.684341886080802e-14, 0)"></path>
  <path d="M2189.81,395.252c-.433,0-.79-.14-1.071-.422-.281-.281-.422-.638-.422-1.071v-42.384c0-.476.141-.854.422-1.136s.639-.422,1.071-.422h3.245c.52,0,.909.13,1.169.389.26.26.432.477.519.649l13.696,26.223,13.825-26.223c.086-.173.248-.39.486-.649.237-.259.616-.389,1.136-.389h3.181c.476,0,.854.141,1.136.422.281.281.422.66.422,1.136v42.384c0,.434-.141.79-.422,1.071s-.66.422-1.136.422h-3.181c-.433,0-.79-.14-1.07-.422-.282-.281-.423-.638-.423-1.071v-31.934l-10.839,21.159c-.174.434-.434.769-.779,1.006-.347.238-.778.357-1.298.357h-2.012c-.563,0-.996-.119-1.299-.357-.303-.237-.562-.572-.778-1.006l-10.904-21.159v31.934c0,.434-.142.79-.422,1.071-.282.282-.64.422-1.071.422h-3.181Z" style="fill:#293843;" transform="matrix(0.9999999999999999, 0, 0, 0.9999999999999999, -5.684341886080802e-14, 0)"></path>
  <path d="M2242.644,395.252c-.477,0-.844-.14-1.104-.422-.26-.281-.39-.638-.39-1.071v-42.384c0-.476.13-.854.39-1.136s.627-.422,1.104-.422h26.807c.476,0,.844.141,1.104.422s.39.66.39,1.136v2.466c0,.478-.13.844-.39,1.104s-.628.39-1.104.39h-22.068v14.215h20.641c.476,0,.844.141,1.104.422.26.282.39.66.39,1.136v2.401c0,.434-.13.79-.39,1.071-.26.282-.628.422-1.104.422h-20.641v14.733h22.588c.476,0,.844.13,1.104.39s.39.628.39,1.104v2.531c0,.434-.13.79-.39,1.071-.26.282-.628.422-1.104.422h-27.326Z" style="fill:#293843;" transform="matrix(0.9999999999999999, 0, 0, 0.9999999999999999, -5.684341886080802e-14, 0)"></path>
  <path d="M2283.274,395.252c-.477,0-.844-.14-1.104-.422-.26-.281-.39-.638-.39-1.071v-42.384c0-.476.13-.854.39-1.136s.627-.422,1.104-.422h15.838c4.889,0,8.762,1.146,11.618,3.439,2.855,2.294,4.283,5.69,4.283,10.19,0,3.333-.833,6.048-2.498,8.146-1.667,2.099-3.928,3.56-6.783,4.381l9.996,17.266c.129.259.194.497.194.714,0,.347-.141.648-.422.908-.282.26-.596.39-.941.39h-3.115c-.736,0-1.277-.194-1.623-.584-.347-.39-.648-.779-.908-1.169l-9.412-16.486h-11.358v16.746c0,.434-.141.79-.422,1.071s-.66.422-1.136.422h-3.311ZM2288.143,371.496h10.71c3.245,0,5.668-.682,7.27-2.045,1.601-1.363,2.401-3.385,2.401-6.068,0-2.639-.79-4.651-2.369-6.036-1.58-1.385-4.014-2.077-7.302-2.077h-10.71v16.227Z" style="fill:#293843;" transform="matrix(0.9999999999999999, 0, 0, 0.9999999999999999, -5.684341886080802e-14, 0)"></path>
  <path d="M2341.886,395.901c-3.982,0-7.281-.735-9.898-2.207-2.619-1.471-4.599-3.526-5.939-6.166-1.342-2.64-2.077-5.712-2.207-9.217-.043-1.774-.064-3.678-.064-5.712s.021-3.98.064-5.842c.13-3.505.865-6.577,2.207-9.217,1.341-2.639,3.32-4.694,5.939-6.166,2.617-1.471,5.916-2.207,9.898-2.207,2.985,0,5.603.412,7.854,1.233,2.249.822,4.121,1.926,5.614,3.31,1.493,1.386,2.629,2.933,3.407,4.642.779,1.71,1.211,3.473,1.299,5.29.042.389-.076.714-.357.974-.282.259-.616.389-1.006.389h-3.57c-.389,0-.725-.107-1.006-.324-.281-.216-.486-.605-.616-1.168-.736-3.375-2.109-5.689-4.122-6.945-2.012-1.255-4.511-1.883-7.496-1.883-3.506,0-6.275.985-8.309,2.954-2.034,1.969-3.115,5.117-3.245,9.443-.13,3.549-.13,7.184,0,10.904.13,4.328,1.211,7.476,3.245,9.444,2.033,1.97,4.803,2.953,8.309,2.953,2.985,0,5.484-.627,7.496-1.882,2.013-1.255,3.386-3.57,4.122-6.945.13-.562.335-.951.616-1.168s.617-.325,1.006-.325h3.57c.39,0,.724.12,1.006.357.281.238.399.552.357.941-.088,1.817-.52,3.592-1.299,5.322-.778,1.73-1.914,3.289-3.407,4.673-1.493,1.386-3.365,2.489-5.614,3.311-2.251.821-4.868,1.233-7.854,1.233Z" style="fill:#293843;" transform="matrix(0.9999999999999999, 0, 0, 0.9999999999999999, -5.684341886080802e-14, 0)"></path>
  <path d="M2371.547,395.252c-.477,0-.844-.14-1.104-.422-.26-.281-.39-.638-.39-1.071v-42.384c0-.476.13-.854.39-1.136s.627-.422,1.104-.422h3.311c.476,0,.854.141,1.136.422.281.281.422.66.422,1.136v17.914h22.328v-17.914c0-.476.14-.854.422-1.136.281-.281.638-.422,1.071-.422h3.31c.476,0,.854.141,1.136.422s.422.66.422,1.136v42.384c0,.434-.141.79-.422,1.071-.281.282-.66.422-1.136.422h-3.31c-.434,0-.79-.14-1.071-.422-.282-.281-.422-.638-.422-1.071v-18.628h-22.328v18.628c0,.434-.141.79-.422,1.071s-.66.422-1.136.422h-3.311Z" style="fill:#293843;" transform="matrix(0.9999999999999999, 0, 0, 0.9999999999999999, -5.684341886080802e-14, 0)"></path>
  <path d="M2414.645,395.252c-.348,0-.649-.13-.909-.39s-.39-.562-.39-.908c0-.217.021-.455.065-.714l16.097-41.995c.173-.433.411-.779.714-1.039.303-.259.757-.389,1.363-.389h4.414c.605,0,1.06.13,1.362.389.303.26.541.606.714,1.039l16.032,41.995c.087.259.13.497.13.714,0,.347-.13.648-.39.908-.259.26-.562.39-.908.39h-3.311c-.52,0-.898-.13-1.136-.39-.238-.26-.4-.497-.486-.714l-3.57-9.217h-21.29l-3.569,9.217c-.044.217-.194.454-.454.714s-.649.39-1.169.39h-3.31ZM2425.03,379.349h17.524l-8.762-23.042-8.763,23.042Z" style="fill:#293843;" transform="matrix(0.9999999999999999, 0, 0, 0.9999999999999999, -5.684341886080802e-14, 0)"></path>
  <path d="M2463.974,395.252c-.477,0-.844-.14-1.104-.422-.26-.281-.39-.638-.39-1.071v-42.384c0-.476.13-.854.39-1.136s.627-.422,1.104-.422h2.986c.519,0,.908.119,1.168.356.26.238.41.422.454.552l21.549,33.103v-32.453c0-.476.13-.854.39-1.136s.627-.422,1.104-.422h3.115c.477,0,.854.141,1.137.422.28.281.422.66.422,1.136v42.319c0,.433-.142.801-.422,1.104-.282.303-.64.454-1.071.454h-3.115c-.477,0-.834-.13-1.071-.39-.238-.26-.4-.432-.487-.52l-21.483-32.777v32.193c0,.434-.142.79-.422,1.071-.282.282-.66.422-1.137.422h-3.115Z" style="fill:#293843;" transform="matrix(0.9999999999999999, 0, 0, 0.9999999999999999, -5.684341886080802e-14, 0)"></path>
  <path d="M2510.382,395.252c-.477,0-.844-.14-1.104-.422-.26-.281-.39-.638-.39-1.071v-42.384c0-.476.13-.854.39-1.136s.627-.422,1.104-.422h14.734c4.456,0,8.048.671,10.774,2.012,2.726,1.342,4.716,3.321,5.972,5.939,1.254,2.618,1.903,5.831,1.947,9.639.042,1.947.064,3.656.064,5.127s-.022,3.159-.064,5.063c-.088,3.981-.747,7.28-1.98,9.897-1.232,2.619-3.18,4.566-5.841,5.842-2.662,1.277-6.178,1.915-10.548,1.915h-15.059ZM2515.25,389.734h9.866c2.985,0,5.364-.41,7.14-1.232,1.773-.822,3.061-2.143,3.861-3.96s1.223-4.219,1.267-7.204c.086-1.299.129-2.435.129-3.408v-2.921c0-.974-.043-2.087-.129-3.343-.088-4.196-1.083-7.302-2.986-9.313-1.904-2.013-5.106-3.019-9.606-3.019h-9.541v34.4Z" style="fill:#293843;" transform="matrix(0.9999999999999999, 0, 0, 0.9999999999999999, -5.684341886080802e-14, 0)"></path>
  <path d="M2556.401,395.252c-.477,0-.844-.14-1.104-.422-.26-.281-.39-.638-.39-1.071v-42.449c0-.432.13-.789.39-1.07s.627-.422,1.104-.422h3.44c.476,0,.844.141,1.104.422s.389.639.389,1.07v42.449c0,.434-.129.79-.389,1.071-.26.282-.628.422-1.104.422h-3.44Z" style="fill:#293843;" transform="matrix(0.9999999999999999, 0, 0, 0.9999999999999999, -5.684341886080802e-14, 0)"></path>
  <path d="M2588.53,395.901c-3.765,0-6.924-.585-9.477-1.753-2.554-1.168-4.511-2.671-5.874-4.511-1.363-1.839-2.088-3.775-2.174-5.81,0-.346.14-.659.422-.941.28-.28.616-.422,1.006-.422h3.31c.52,0,.909.13,1.169.39s.432.563.52.909c.259,1.038.8,2.066,1.622,3.083.821,1.017,2.001,1.86,3.538,2.531,1.535.671,3.515,1.006,5.938,1.006,3.721,0,6.458-.659,8.211-1.979,1.752-1.319,2.629-3.083,2.629-5.29,0-1.514-.466-2.736-1.396-3.667-.932-.931-2.348-1.763-4.252-2.499-1.904-.735-4.371-1.535-7.399-2.401-3.159-.909-5.776-1.904-7.854-2.986-2.077-1.081-3.625-2.423-4.641-4.023-1.018-1.601-1.525-3.636-1.525-6.102,0-2.337.627-4.424,1.882-6.264,1.255-1.839,3.072-3.299,5.452-4.381,2.38-1.081,5.235-1.623,8.568-1.623,2.683,0,5.03.357,7.042,1.071,2.013.714,3.688,1.666,5.03,2.855,1.341,1.19,2.358,2.467,3.051,3.829.691,1.363,1.06,2.694,1.104,3.992,0,.304-.108.596-.324.876-.218.282-.563.422-1.039.422h-3.439c-.304,0-.617-.086-.941-.259-.325-.173-.574-.497-.747-.974-.259-1.774-1.255-3.267-2.985-4.479-1.731-1.211-3.981-1.817-6.75-1.817-2.813,0-5.096.542-6.848,1.623-1.753,1.082-2.629,2.77-2.629,5.062,0,1.472.41,2.694,1.233,3.668.821.974,2.119,1.828,3.895,2.563,1.773.736,4.089,1.516,6.944,2.337,3.462.952,6.296,1.958,8.503,3.018,2.207,1.062,3.84,2.381,4.9,3.96,1.061,1.58,1.591,3.602,1.591,6.068,0,2.727-.714,5.053-2.143,6.978-1.428,1.926-3.43,3.397-6.004,4.414-2.574,1.016-5.614,1.525-9.119,1.525Z" style="fill:#293843;" transform="matrix(0.9999999999999999, 0, 0, 0.9999999999999999, -5.684341886080802e-14, 0)"></path>
  <path d="M2617.089,395.252c-.477,0-.844-.14-1.104-.422-.26-.281-.39-.638-.39-1.071v-42.449c0-.432.13-.789.39-1.07s.627-.422,1.104-.422h3.44c.476,0,.844.141,1.104.422s.389.639.389,1.07v42.449c0,.434-.129.79-.389,1.071-.26.282-.628.422-1.104.422h-3.44Z" style="fill:#293843;" transform="matrix(0.9999999999999999, 0, 0, 0.9999999999999999, -5.684341886080802e-14, 0)"></path>
  <path d="M2636.105,395.252c-.477,0-.844-.14-1.104-.422-.26-.281-.39-.638-.39-1.071v-42.384c0-.476.13-.854.39-1.136s.627-.422,1.104-.422h2.986c.519,0,.908.119,1.168.356.26.238.41.422.454.552l21.549,33.103v-32.453c0-.476.13-.854.39-1.136s.627-.422,1.104-.422h3.115c.477,0,.854.141,1.137.422.28.281.422.66.422,1.136v42.319c0,.433-.142.801-.422,1.104-.282.303-.64.454-1.071.454h-3.115c-.477,0-.834-.13-1.071-.39-.238-.26-.4-.432-.487-.52l-21.483-32.777v32.193c0,.434-.142.79-.422,1.071-.282.282-.66.422-1.137.422h-3.115Z" style="fill:#293843;" transform="matrix(0.9999999999999999, 0, 0, 0.9999999999999999, -5.684341886080802e-14, 0)"></path>
  <path d="M2697.572,395.901c-3.852,0-7.107-.714-9.769-2.143-2.661-1.428-4.695-3.439-6.102-6.036s-2.196-5.646-2.369-9.151c-.043-1.904-.064-3.928-.064-6.069s.021-4.187.064-6.134c.173-3.505.963-6.544,2.369-9.119,1.406-2.574,3.45-4.565,6.134-5.972,2.683-1.405,5.928-2.109,9.736-2.109,3.028,0,5.668.433,7.919,1.298,2.249.866,4.099,1.959,5.549,3.278,1.449,1.32,2.532,2.693,3.246,4.121s1.092,2.684,1.136,3.765c.042.39-.065.704-.325.941-.259.238-.606.356-1.038.356h-3.829c-.434,0-.747-.086-.941-.259-.195-.173-.38-.476-.552-.909-.39-1.125-1.028-2.228-1.915-3.311-.887-1.081-2.077-1.979-3.569-2.693-1.493-.714-3.387-1.071-5.68-1.071-3.462,0-6.242.932-8.341,2.791-2.099,1.861-3.235,4.934-3.407,9.217-.13,3.853-.13,7.703,0,11.554.172,4.328,1.319,7.432,3.439,9.314,2.12,1.882,4.89,2.823,8.309,2.823,2.293,0,4.338-.432,6.134-1.298,1.795-.865,3.213-2.175,4.251-3.927,1.039-1.753,1.559-3.992,1.559-6.718v-2.727h-9.736c-.434,0-.79-.14-1.071-.422-.282-.281-.422-.659-.422-1.136v-2.077c0-.476.14-.854.422-1.136s.638-.422,1.071-.422h14.669c.476,0,.844.141,1.104.422.26.282.39.66.39,1.136v6.231c0,3.548-.726,6.643-2.175,9.281-1.45,2.64-3.56,4.685-6.328,6.134-2.771,1.45-6.059,2.175-9.866,2.175Z" style="fill:#293843;" transform="matrix(0.9999999999999999, 0, 0, 0.9999999999999999, -5.684341886080802e-14, 0)"></path>
  <path d="M2745.214,395.252c-.477,0-.844-.14-1.104-.422-.26-.281-.39-.638-.39-1.071v-42.384c0-.476.13-.854.39-1.136s.627-.422,1.104-.422h26.807c.476,0,.844.141,1.104.422s.39.66.39,1.136v2.466c0,.478-.13.844-.39,1.104s-.628.39-1.104.39h-22.068v14.215h20.641c.476,0,.844.141,1.104.422.26.282.39.66.39,1.136v2.401c0,.434-.13.79-.39,1.071-.26.282-.628.422-1.104.422h-20.641v14.733h22.588c.476,0,.844.13,1.104.39s.39.628.39,1.104v2.531c0,.434-.13.79-.39,1.071-.26.282-.628.422-1.104.422h-27.326Z" style="fill:#293843;" transform="matrix(0.9999999999999999, 0, 0, 0.9999999999999999, -5.684341886080802e-14, 0)"></path>
  <path d="M2781.626,395.252c-.347,0-.66-.13-.941-.39-.282-.26-.422-.562-.422-.908,0-.173.032-.335.098-.487.064-.151.118-.27.162-.356l14.863-20.965-14.149-20.187c-.13-.26-.194-.541-.194-.844,0-.346.13-.649.39-.909s.562-.389.908-.389h3.895c.432,0,.779.097,1.038.292.26.194.497.465.714.811l11.424,16.228,11.359-16.228c.172-.346.399-.616.682-.811.28-.195.616-.292,1.006-.292h3.699c.346,0,.649.13.909.389.26.26.39.563.39.909,0,.303-.088.584-.26.844l-13.955,20.251,14.799,20.9c.086.087.15.205.194.356.043.152.065.314.065.487,0,.347-.13.648-.39.908s-.584.39-.974.39h-3.96c-.389,0-.725-.107-1.006-.324s-.53-.476-.746-.779l-12.073-16.811-12.008,16.811c-.217.304-.454.562-.714.779s-.584.324-.974.324h-3.829Z" style="fill:#293843;" transform="matrix(0.9999999999999999, 0, 0, 0.9999999999999999, -5.684341886080802e-14, 0)"></path>
  <path d="M2838.16,395.252c-.433,0-.79-.14-1.07-.422-.282-.281-.422-.638-.422-1.071v-38.165h-12.463c-.433,0-.79-.14-1.07-.422-.282-.281-.422-.638-.422-1.071v-2.726c0-.476.14-.854.422-1.136.28-.281.638-.422,1.07-.422h31.285c.476,0,.854.141,1.137.422.28.281.422.66.422,1.136v2.726c0,.434-.142.79-.422,1.071-.282.282-.661.422-1.137.422h-12.396v38.165c0,.434-.142.79-.422,1.071-.282.282-.661.422-1.137.422h-3.375Z" style="fill:#293843;" transform="matrix(0.9999999999999999, 0, 0, 0.9999999999999999, -5.684341886080802e-14, 0)"></path>
  <path d="M2867.108,395.252c-.477,0-.844-.14-1.104-.422-.26-.281-.39-.638-.39-1.071v-42.384c0-.476.13-.854.39-1.136s.627-.422,1.104-.422h26.807c.476,0,.844.141,1.104.422s.39.66.39,1.136v2.466c0,.478-.13.844-.39,1.104s-.628.39-1.104.39h-22.068v14.215h20.641c.476,0,.844.141,1.104.422.26.282.39.66.39,1.136v2.401c0,.434-.13.79-.39,1.071-.26.282-.628.422-1.104.422h-20.641v14.733h22.588c.476,0,.844.13,1.104.39s.39.628.39,1.104v2.531c0,.434-.13.79-.39,1.071-.26.282-.628.422-1.104.422h-27.326Z" style="fill:#293843;" transform="matrix(0.9999999999999999, 0, 0, 0.9999999999999999, -5.684341886080802e-14, 0)"></path>
  <path d="M2907.739,395.252c-.477,0-.844-.14-1.104-.422-.26-.281-.39-.638-.39-1.071v-42.384c0-.476.13-.854.39-1.136s.627-.422,1.104-.422h2.986c.519,0,.908.119,1.168.356.26.238.41.422.454.552l21.549,33.103v-32.453c0-.476.13-.854.39-1.136s.627-.422,1.104-.422h3.115c.477,0,.854.141,1.137.422.28.281.422.66.422,1.136v42.319c0,.433-.142.801-.422,1.104-.282.303-.64.454-1.071.454h-3.115c-.477,0-.834-.13-1.071-.39-.238-.26-.4-.432-.487-.52l-21.483-32.777v32.193c0,.434-.142.79-.422,1.071-.282.282-.66.422-1.137.422h-3.115Z" style="fill:#293843;" transform="matrix(0.9999999999999999, 0, 0, 0.9999999999999999, -5.684341886080802e-14, 0)"></path>
  <path d="M2967.259,395.901c-3.765,0-6.924-.585-9.477-1.753-2.554-1.168-4.511-2.671-5.874-4.511-1.363-1.839-2.088-3.775-2.174-5.81,0-.346.14-.659.422-.941.28-.28.616-.422,1.006-.422h3.31c.52,0,.909.13,1.169.39s.432.563.52.909c.259,1.038.8,2.066,1.622,3.083.821,1.017,2.001,1.86,3.538,2.531,1.535.671,3.515,1.006,5.938,1.006,3.721,0,6.458-.659,8.211-1.979,1.752-1.319,2.629-3.083,2.629-5.29,0-1.514-.466-2.736-1.396-3.667-.932-.931-2.348-1.763-4.252-2.499-1.904-.735-4.371-1.535-7.399-2.401-3.159-.909-5.776-1.904-7.854-2.986-2.077-1.081-3.625-2.423-4.641-4.023-1.018-1.601-1.525-3.636-1.525-6.102,0-2.337.627-4.424,1.882-6.264,1.255-1.839,3.072-3.299,5.452-4.381,2.38-1.081,5.235-1.623,8.568-1.623,2.683,0,5.03.357,7.042,1.071,2.013.714,3.688,1.666,5.03,2.855,1.341,1.19,2.358,2.467,3.051,3.829.691,1.363,1.06,2.694,1.104,3.992,0,.304-.108.596-.324.876-.218.282-.563.422-1.039.422h-3.439c-.304,0-.617-.086-.941-.259-.325-.173-.574-.497-.747-.974-.259-1.774-1.255-3.267-2.985-4.479-1.731-1.211-3.981-1.817-6.75-1.817-2.813,0-5.096.542-6.848,1.623-1.753,1.082-2.629,2.77-2.629,5.062,0,1.472.41,2.694,1.233,3.668.821.974,2.119,1.828,3.895,2.563,1.773.736,4.089,1.516,6.944,2.337,3.462.952,6.296,1.958,8.503,3.018,2.207,1.062,3.84,2.381,4.9,3.96,1.061,1.58,1.591,3.602,1.591,6.068,0,2.727-.714,5.053-2.143,6.978-1.428,1.926-3.43,3.397-6.004,4.414-2.574,1.016-5.614,1.525-9.119,1.525Z" style="fill:#293843;" transform="matrix(0.9999999999999999, 0, 0, 0.9999999999999999, -5.684341886080802e-14, 0)"></path>
  <path d="M2995.817,395.252c-.477,0-.844-.14-1.104-.422-.26-.281-.39-.638-.39-1.071v-42.449c0-.432.13-.789.39-1.07s.627-.422,1.104-.422h3.44c.476,0,.844.141,1.104.422s.389.639.389,1.07v42.449c0,.434-.129.79-.389,1.071-.26.282-.628.422-1.104.422h-3.44Z" style="fill:#293843;" transform="matrix(0.9999999999999999, 0, 0, 0.9999999999999999, -5.684341886080802e-14, 0)"></path>
  <path d="M3029.698,395.901c-3.723,0-6.903-.64-9.542-1.915-2.64-1.276-4.673-3.245-6.101-5.906-1.429-2.661-2.229-6.004-2.402-10.028-.043-1.903-.064-3.732-.064-5.484s.021-3.58.064-5.485c.173-3.98,1.007-7.302,2.499-9.963,1.493-2.661,3.57-4.651,6.231-5.972,2.661-1.319,5.766-1.979,9.314-1.979,3.505,0,6.588.66,9.249,1.979,2.661,1.32,4.748,3.311,6.264,5.972,1.514,2.661,2.336,5.982,2.466,9.963.087,1.905.13,3.732.13,5.485s-.043,3.581-.13,5.484c-.13,4.024-.92,7.367-2.369,10.028-1.45,2.661-3.494,4.63-6.134,5.906-2.64,1.275-5.799,1.915-9.476,1.915ZM3029.698,390.384c3.287,0,5.981-.995,8.08-2.985s3.234-5.214,3.408-9.672c.086-1.946.13-3.688.13-5.225s-.044-3.256-.13-5.16c-.087-2.985-.639-5.408-1.655-7.27-1.018-1.86-2.369-3.223-4.057-4.089-1.688-.865-3.613-1.299-5.776-1.299s-4.09.434-5.777,1.299c-1.688.866-3.04,2.229-4.057,4.089-1.017,1.861-1.59,4.284-1.72,7.27-.044,1.904-.065,3.625-.065,5.16s.021,3.278.065,5.225c.172,4.458,1.319,7.682,3.439,9.672s4.825,2.985,8.114,2.985Z" style="fill:#293843;" transform="matrix(0.9999999999999999, 0, 0, 0.9999999999999999, -5.684341886080802e-14, 0)"></path>
  <path d="M3060.074,395.252c-.477,0-.844-.14-1.104-.422-.26-.281-.39-.638-.39-1.071v-42.384c0-.476.13-.854.39-1.136s.627-.422,1.104-.422h2.986c.519,0,.908.119,1.168.356.26.238.41.422.454.552l21.549,33.103v-32.453c0-.476.13-.854.39-1.136s.627-.422,1.104-.422h3.115c.477,0,.854.141,1.137.422.28.281.422.66.422,1.136v42.319c0,.433-.142.801-.422,1.104-.282.303-.64.454-1.071.454h-3.115c-.477,0-.834-.13-1.071-.39-.238-.26-.4-.432-.487-.52l-21.483-32.777v32.193c0,.434-.142.79-.422,1.071-.282.282-.66.422-1.137.422h-3.115Z" style="fill:#293843;" transform="matrix(0.9999999999999999, 0, 0, 0.9999999999999999, -5.684341886080802e-14, 0)"></path>
  <path d="M3123.682,395.252c-.477,0-.844-.14-1.104-.422-.26-.281-.39-.638-.39-1.071v-42.384c0-.476.13-.854.39-1.136s.627-.422,1.104-.422h26.482c.476,0,.854.141,1.136.422.281.281.422.66.422,1.136v2.596c0,.477-.141.844-.422,1.104-.282.26-.66.39-1.136.39h-21.679v15.123h20.381c.476,0,.854.142,1.136.422.28.282.422.66.422,1.137v2.596c0,.434-.142.79-.422,1.071-.282.281-.66.422-1.136.422h-20.381v17.524c0,.434-.142.79-.422,1.071-.282.282-.661.422-1.137.422h-3.245Z" style="fill:#293843;" transform="matrix(0.9999999999999999, 0, 0, 0.9999999999999999, -5.684341886080802e-14, 0)"></path>
  <path d="M3177.426,395.901c-3.723,0-6.903-.64-9.542-1.915-2.64-1.276-4.673-3.245-6.101-5.906-1.429-2.661-2.229-6.004-2.402-10.028-.043-1.903-.064-3.732-.064-5.484s.021-3.58.064-5.485c.173-3.98,1.007-7.302,2.499-9.963,1.493-2.661,3.57-4.651,6.231-5.972,2.661-1.319,5.766-1.979,9.314-1.979,3.505,0,6.588.66,9.249,1.979,2.661,1.32,4.748,3.311,6.264,5.972,1.514,2.661,2.336,5.982,2.466,9.963.087,1.905.13,3.732.13,5.485s-.043,3.581-.13,5.484c-.13,4.024-.92,7.367-2.369,10.028-1.45,2.661-3.494,4.63-6.134,5.906-2.64,1.275-5.799,1.915-9.476,1.915ZM3177.426,390.384c3.287,0,5.981-.995,8.08-2.985s3.234-5.214,3.408-9.672c.086-1.946.13-3.688.13-5.225s-.044-3.256-.13-5.16c-.087-2.985-.639-5.408-1.655-7.27-1.018-1.86-2.369-3.223-4.057-4.089-1.688-.865-3.613-1.299-5.776-1.299s-4.09.434-5.777,1.299c-1.688.866-3.04,2.229-4.057,4.089-1.017,1.861-1.59,4.284-1.72,7.27-.044,1.904-.065,3.625-.065,5.16s.021,3.278.065,5.225c.172,4.458,1.319,7.682,3.439,9.672s4.825,2.985,8.114,2.985Z" style="fill:#293843;" transform="matrix(0.9999999999999999, 0, 0, 0.9999999999999999, -5.684341886080802e-14, 0)"></path>
  <path d="M3207.802,395.252c-.477,0-.844-.14-1.104-.422-.26-.281-.39-.638-.39-1.071v-42.384c0-.476.13-.854.39-1.136s.627-.422,1.104-.422h15.838c4.889,0,8.762,1.146,11.618,3.439,2.855,2.294,4.283,5.69,4.283,10.19,0,3.333-.833,6.048-2.498,8.146-1.667,2.099-3.928,3.56-6.783,4.381l9.996,17.266c.129.259.194.497.194.714,0,.347-.141.648-.422.908-.282.26-.596.39-.941.39h-3.115c-.736,0-1.277-.194-1.623-.584-.347-.39-.648-.779-.908-1.169l-9.412-16.486h-11.358v16.746c0,.434-.141.79-.422,1.071s-.66.422-1.136.422h-3.311ZM3212.67,371.496h10.71c3.245,0,5.668-.682,7.27-2.045,1.601-1.363,2.401-3.385,2.401-6.068,0-2.639-.79-4.651-2.369-6.036-1.58-1.385-4.014-2.077-7.302-2.077h-10.71v16.227Z" style="fill:#293843;" transform="matrix(0.9999999999999999, 0, 0, 0.9999999999999999, -5.684341886080802e-14, 0)"></path>
  <path d="M3268.813,395.252c-.433,0-.79-.14-1.071-.422-.281-.281-.422-.638-.422-1.071v-42.384c0-.476.141-.854.422-1.136s.639-.422,1.071-.422h3.245c.52,0,.909.13,1.169.389.26.26.432.477.519.649l13.696,26.223,13.825-26.223c.086-.173.248-.39.486-.649.237-.259.616-.389,1.136-.389h3.181c.476,0,.854.141,1.136.422.281.281.422.66.422,1.136v42.384c0,.434-.141.79-.422,1.071s-.66.422-1.136.422h-3.181c-.433,0-.79-.14-1.07-.422-.282-.281-.423-.638-.423-1.071v-31.934l-10.839,21.159c-.174.434-.434.769-.779,1.006-.347.238-.778.357-1.298.357h-2.012c-.563,0-.996-.119-1.299-.357-.303-.237-.562-.572-.778-1.006l-10.904-21.159v31.934c0,.434-.142.79-.422,1.071-.282.282-.64.422-1.071.422h-3.181Z" style="fill:#293843;" transform="matrix(0.9999999999999999, 0, 0, 0.9999999999999999, -5.684341886080802e-14, 0)"></path>
  <path d="M3317.104,395.252c-.348,0-.649-.13-.909-.39s-.39-.562-.39-.908c0-.217.021-.455.065-.714l16.097-41.995c.173-.433.411-.779.714-1.039.303-.259.757-.389,1.363-.389h4.414c.605,0,1.06.13,1.362.389.303.26.541.606.714,1.039l16.032,41.995c.087.259.13.497.13.714,0,.347-.13.648-.39.908-.259.26-.562.39-.908.39h-3.311c-.52,0-.898-.13-1.136-.39-.238-.26-.4-.497-.486-.714l-3.57-9.217h-21.29l-3.569,9.217c-.044.217-.194.454-.454.714s-.649.39-1.169.39h-3.31ZM3327.489,379.349h17.524l-8.762-23.042-8.763,23.042Z" style="fill:#293843;" transform="matrix(0.9999999999999999, 0, 0, 0.9999999999999999, -5.684341886080802e-14, 0)"></path>
  <path d="M3380.649,395.901c-3.852,0-7.107-.714-9.769-2.143-2.661-1.428-4.695-3.439-6.102-6.036s-2.196-5.646-2.369-9.151c-.043-1.904-.064-3.928-.064-6.069s.021-4.187.064-6.134c.173-3.505.963-6.544,2.369-9.119,1.406-2.574,3.45-4.565,6.134-5.972,2.683-1.405,5.928-2.109,9.736-2.109,3.028,0,5.668.433,7.919,1.298,2.249.866,4.099,1.959,5.549,3.278,1.449,1.32,2.532,2.693,3.246,4.121s1.092,2.684,1.136,3.765c.042.39-.065.704-.325.941-.259.238-.606.356-1.038.356h-3.829c-.434,0-.747-.086-.941-.259-.195-.173-.38-.476-.552-.909-.39-1.125-1.028-2.228-1.915-3.311-.887-1.081-2.077-1.979-3.569-2.693-1.493-.714-3.387-1.071-5.68-1.071-3.462,0-6.242.932-8.341,2.791-2.099,1.861-3.235,4.934-3.407,9.217-.13,3.853-.13,7.703,0,11.554.172,4.328,1.319,7.432,3.439,9.314,2.12,1.882,4.89,2.823,8.309,2.823,2.293,0,4.338-.432,6.134-1.298,1.795-.865,3.213-2.175,4.251-3.927,1.039-1.753,1.559-3.992,1.559-6.718v-2.727h-9.736c-.434,0-.79-.14-1.071-.422-.282-.281-.422-.659-.422-1.136v-2.077c0-.476.14-.854.422-1.136s.638-.422,1.071-.422h14.669c.476,0,.844.141,1.104.422.26.282.39.66.39,1.136v6.231c0,3.548-.726,6.643-2.175,9.281-1.45,2.64-3.56,4.685-6.328,6.134-2.771,1.45-6.059,2.175-9.866,2.175Z" style="fill:#293843;" transform="matrix(0.9999999999999999, 0, 0, 0.9999999999999999, -5.684341886080802e-14, 0)"></path>
  <path d="M3411.09,395.252c-.477,0-.844-.14-1.104-.422-.26-.281-.39-.638-.39-1.071v-42.384c0-.476.13-.854.39-1.136s.627-.422,1.104-.422h26.807c.476,0,.844.141,1.104.422s.39.66.39,1.136v2.466c0,.478-.13.844-.39,1.104s-.628.39-1.104.39h-22.068v14.215h20.641c.476,0,.844.141,1.104.422.26.282.39.66.39,1.136v2.401c0,.434-.13.79-.39,1.071-.26.282-.628.422-1.104.422h-20.641v14.733h22.588c.476,0,.844.13,1.104.39s.39.628.39,1.104v2.531c0,.434-.13.79-.39,1.071-.26.282-.628.422-1.104.422h-27.326Z" style="fill:#293843;" transform="matrix(0.9999999999999999, 0, 0, 0.9999999999999999, -5.684341886080802e-14, 0)"></path>
  <path d="M3451.722,395.252c-.477,0-.844-.14-1.104-.422-.26-.281-.39-.638-.39-1.071v-42.384c0-.476.13-.854.39-1.136s.627-.422,1.104-.422h2.986c.519,0,.908.119,1.168.356.26.238.41.422.454.552l21.549,33.103v-32.453c0-.476.13-.854.39-1.136s.627-.422,1.104-.422h3.115c.477,0,.854.141,1.137.422.28.281.422.66.422,1.136v42.319c0,.433-.142.801-.422,1.104-.282.303-.64.454-1.071.454h-3.115c-.477,0-.834-.13-1.071-.39-.238-.26-.4-.432-.487-.52l-21.483-32.777v32.193c0,.434-.142.79-.422,1.071-.282.282-.66.422-1.137.422h-3.115Z" style="fill:#293843;" transform="matrix(0.9999999999999999, 0, 0, 0.9999999999999999, -5.684341886080802e-14, 0)"></path>
  <path d="M3508.061,395.252c-.433,0-.79-.14-1.07-.422-.282-.281-.422-.638-.422-1.071v-38.165h-12.463c-.433,0-.79-.14-1.07-.422-.282-.281-.422-.638-.422-1.071v-2.726c0-.476.14-.854.422-1.136.28-.281.638-.422,1.07-.422h31.285c.476,0,.854.141,1.137.422.28.281.422.66.422,1.136v2.726c0,.434-.142.79-.422,1.071-.282.282-.661.422-1.137.422h-12.396v38.165c0,.434-.142.79-.422,1.071-.282.282-.661.422-1.137.422h-3.375Z" style="fill:#293843;" transform="matrix(0.9999999999999999, 0, 0, 0.9999999999999999, -5.684341886080802e-14, 0)"></path>
  <path d="M3550.899,395.901c-3.723,0-6.903-.64-9.542-1.915-2.64-1.276-4.673-3.245-6.101-5.906-1.429-2.661-2.229-6.004-2.402-10.028-.043-1.903-.064-3.732-.064-5.484s.021-3.58.064-5.485c.173-3.98,1.007-7.302,2.499-9.963,1.493-2.661,3.57-4.651,6.231-5.972,2.661-1.319,5.766-1.979,9.314-1.979,3.505,0,6.588.66,9.249,1.979,2.661,1.32,4.748,3.311,6.264,5.972,1.514,2.661,2.336,5.982,2.466,9.963.087,1.905.13,3.732.13,5.485s-.043,3.581-.13,5.484c-.13,4.024-.92,7.367-2.369,10.028-1.45,2.661-3.494,4.63-6.134,5.906-2.64,1.275-5.799,1.915-9.476,1.915ZM3550.899,390.384c3.287,0,5.981-.995,8.08-2.985s3.234-5.214,3.408-9.672c.086-1.946.13-3.688.13-5.225s-.044-3.256-.13-5.16c-.087-2.985-.639-5.408-1.655-7.27-1.018-1.86-2.369-3.223-4.057-4.089-1.688-.865-3.613-1.299-5.776-1.299s-4.09.434-5.777,1.299c-1.688.866-3.04,2.229-4.057,4.089-1.017,1.861-1.59,4.284-1.72,7.27-.044,1.904-.065,3.625-.065,5.16s.021,3.278.065,5.225c.172,4.458,1.319,7.682,3.439,9.672s4.825,2.985,8.114,2.985Z" style="fill:#293843;" transform="matrix(0.9999999999999999, 0, 0, 0.9999999999999999, -5.684341886080802e-14, 0)"></path>
  <path d="M1959.239,271.014c1.86,0,3.466.675,4.823,2.032s2.032,2.963,2.032,4.823v18.037c0,1.86-.675,3.472-2.032,4.823-1.357,1.357-2.963,2.032-4.823,2.032h-111.497c-1.867,0-3.472-.675-4.83-2.032-1.357-1.35-2.032-2.963-2.032-4.823v-164.073c0-1.867.675-3.472,2.032-4.83,1.357-1.35,2.963-2.032,4.83-2.032h109.465c1.86,0,3.472.682,4.83,2.032,1.35,1.357,2.026,2.963,2.026,4.83v18.031c0,1.867-.675,3.472-2.026,4.823-1.357,1.357-2.969,2.032-4.83,2.032h-82.036v40.388h76.449c1.86,0,3.472.675,4.83,2.026,1.35,1.357,2.026,2.969,2.026,4.83v18.031c0,1.867-.675,3.472-2.026,4.83-1.357,1.357-2.969,2.032-4.83,2.032h-76.449v42.158h84.069Z" style="fill:#293843;" transform="matrix(0.9999999999999999, 0, 0, 0.9999999999999999, -5.684341886080802e-14, 0)"></path>
  <path d="M2030.858,295.906c0,1.86-.682,3.472-2.032,4.823-1.357,1.357-2.963,2.032-4.823,2.032h-19.305c-1.867,0-3.472-.675-4.823-2.032-1.357-1.35-2.032-2.963-2.032-4.823v-166.615c0-1.86.675-3.472,2.032-4.83,1.35-1.35,2.956-2.026,4.823-2.026h19.305c1.86,0,3.466.675,4.823,2.026,1.35,1.357,2.032,2.969,2.032,4.83v166.615Z" style="fill:#293843;" transform="matrix(0.9999999999999999, 0, 0, 0.9999999999999999, -5.684341886080802e-14, 0)"></path>
  <path d="M2068.448,203.198c.675-3.555,2.239-7.365,4.699-11.43,2.453-4.058,5.925-7.868,10.41-11.423,4.485-3.562,9.99-6.476,16.508-8.764,6.518-2.287,14.096-3.431,22.736-3.431s16.418,1.144,23.363,3.431c6.938,2.287,12.911,5.629,17.906,10.031,4.995,4.403,8.846,9.949,11.554,16.632,2.708,6.697,4.065,14.351,4.065,22.991v74.671c0,1.86-.675,3.472-2.032,4.823-1.357,1.357-2.963,2.032-4.823,2.032h-19.305c-1.867,0-3.472-.675-4.823-2.032-1.357-1.35-2.032-2.963-2.032-4.823v-8.385c-3.555,4.912-8.681,9.108-15.371,12.574-6.69,3.466-15.199,5.209-25.52,5.209-7.282,0-13.807-.978-19.56-2.921-5.76-1.95-10.583-4.699-14.475-8.254-3.9-3.555-6.904-7.751-9.019-12.574-2.115-4.83-3.176-10.114-3.176-15.874,0-11.685,4.148-20.828,12.45-27.428,8.295-6.607,19.381-11.093,33.271-13.463l41.401-7.11c0-6.945-2.287-11.85-6.862-14.737-4.568-2.873-10.245-4.313-17.011-4.313-4.237,0-7.537.593-9.907,1.778-2.377,1.185-4.657,2.79-6.862,4.823-1.523,1.357-2.914,2.287-4.189,2.797-1.268.503-2.666.758-4.189.758h-23.618c-1.695,0-3.135-.503-4.32-1.523-1.185-1.013-1.612-2.37-1.268-4.065ZM2110.862,274.824c5.753,0,10.879-.799,15.364-2.411,4.485-1.612,8.254-3.769,11.306-6.476,3.045-2.708,5.333-5.753,6.855-9.143,1.523-3.39,2.287-6.862,2.287-10.417v-2.535l-34.545,6.091c-6.945,1.192-11.933,2.921-14.985,5.209-3.045,2.287-4.568,5.374-4.568,9.274,0,3.555,1.819,6.18,5.457,7.868,3.638,1.695,7.916,2.542,12.829,2.542Z" style="fill:#293843;" transform="matrix(0.9999999999999999, 0, 0, 0.9999999999999999, -5.684341886080802e-14, 0)"></path>
  <path d="M2287.887,264.916c0-1.86-.593-3.383-1.778-4.568-1.185-1.185-3.259-2.287-6.221-3.307-2.963-1.013-6.904-2.026-11.809-3.045-4.912-1.013-11.175-2.37-18.795-4.065-7.455-1.688-13.635-3.81-18.54-6.345-4.912-2.542-8.853-5.505-11.809-8.895-2.969-3.383-5.043-7.234-6.228-11.554-1.185-4.32-1.778-9.019-1.778-14.096s1.185-10.073,3.555-14.985c2.37-4.906,5.801-9.267,10.286-13.077,4.485-3.81,9.949-6.897,16.384-9.274,6.435-2.37,13.8-3.555,22.095-3.555s15.709.93,22.226,2.797c6.518,1.86,12.064,4.313,16.639,7.365,4.568,3.045,8.123,6.559,10.665,10.534,2.535,3.982,3.975,8.006,4.313,12.071.172,1.86-.462,3.472-1.902,4.823-1.44,1.357-3.094,2.032-4.954,2.032h-19.553c-2.542,0-4.444-.469-5.719-1.399-1.268-.93-2.666-1.984-4.189-3.176-1.523-1.178-3.555-2.239-6.097-3.169-2.535-.93-6.345-1.399-11.43-1.399s-9.563.758-13.456,2.287c-3.9,1.523-5.843,4.23-5.843,8.123,0,1.867.462,3.431,1.392,4.699s2.708,2.411,5.34,3.431c2.618,1.013,6.256,2.074,10.92,3.176,4.651,1.102,10.707,2.411,18.155,3.934,15.075,3.218,25.699,8.254,31.879,15.109,6.18,6.862,9.267,15.371,9.267,25.527,0,5.085-1.268,10.031-3.81,14.861-2.535,4.823-6.221,9.143-11.044,12.953-4.83,3.81-10.755,6.855-17.782,9.143s-14.944,3.431-23.742,3.431c-8.977,0-16.894-1.061-23.749-3.176-6.855-2.115-12.663-4.864-17.397-8.254-4.747-3.39-8.385-7.2-10.92-11.43-2.542-4.23-3.9-8.385-4.065-12.443-.172-1.867.462-3.472,1.902-4.83,1.44-1.35,3.087-2.032,4.954-2.032h19.56c2.535,0,4.444.599,5.712,1.778,1.268,1.185,2.708,2.542,4.32,4.065,1.605,1.523,3.844,2.88,6.731,4.065,2.873,1.185,7.193,1.778,12.953,1.778,2.535,0,5.16-.165,7.868-.51,2.708-.338,5.209-.889,7.496-1.647,2.287-.765,4.189-1.778,5.712-3.052,1.53-1.268,2.287-2.832,2.287-4.699Z" style="fill:#293843;" transform="matrix(0.9999999999999999, 0, 0, 0.9999999999999999, -5.684341886080802e-14, 0)"></path>
  <path d="M2395.071,255.016c0,5.25,1.399,9.439,4.189,12.567,2.797,3.135,7.999,4.699,15.619,4.699h15.495c1.86,0,3.466.682,4.823,2.032,1.357,1.357,2.032,2.969,2.032,4.83v16.763c0,1.86-.675,3.472-2.032,4.823-1.357,1.357-2.963,2.032-4.823,2.032h-18.795c-15.915,0-28.152-3.851-36.702-11.554-8.55-7.703-12.829-19.519-12.829-35.434v-54.608h-16.763c-1.86,0-3.472-.675-4.823-2.032-1.357-1.35-2.032-2.956-2.032-4.823v-16.763c0-1.86.675-3.466,2.032-4.823,1.35-1.357,2.963-2.032,4.823-2.032h16.763v-41.401c0-1.86.675-3.472,2.032-4.83,1.357-1.35,2.963-2.026,4.83-2.026h19.298c1.867,0,3.472.675,4.83,2.026,1.35,1.357,2.032,2.969,2.032,4.83v41.401h32.761c1.86,0,3.472.675,4.83,2.032,1.35,1.357,2.032,2.963,2.032,4.823v16.763c0,1.867-.682,3.472-2.032,4.823-1.357,1.357-2.969,2.032-4.83,2.032h-32.761v53.85Z" style="fill:#293843;" transform="matrix(0.9999999999999999, 0, 0, 0.9999999999999999, -5.684341886080802e-14, 0)"></path>
  <path d="M2492.086,122.436c1.86,0,3.466.675,4.823,2.026,1.357,1.357,2.032,2.969,2.032,4.83v19.808c0,1.867-.675,3.472-2.032,4.83-1.357,1.357-2.963,2.032-4.823,2.032h-21.841c-1.867,0-3.472-.675-4.83-2.032s-2.032-2.963-2.032-4.83v-19.808c0-1.86.675-3.472,2.032-4.83,1.357-1.35,2.963-2.026,4.83-2.026h21.841ZM2497.674,295.906c0,1.86-.682,3.472-2.032,4.823-1.357,1.357-2.963,2.032-4.823,2.032h-19.305c-1.867,0-3.472-.675-4.823-2.032-1.357-1.35-2.032-2.963-2.032-4.823v-118.359c0-1.86.675-3.466,2.032-4.823,1.35-1.357,2.956-2.032,4.823-2.032h19.305c1.86,0,3.466.675,4.823,2.032,1.35,1.357,2.032,2.963,2.032,4.823v118.359Z" style="fill:#293843;" transform="matrix(0.9999999999999999, 0, 0, 0.9999999999999999, -5.684341886080802e-14, 0)"></path>
  <path d="M2561.927,227.835c-.337,2.542-.503,5.505-.503,8.888s.165,6.352.503,8.895c.51,5.25,1.695,9.735,3.555,13.456,1.867,3.727,4.196,6.731,6.986,9.019,2.797,2.287,5.884,3.982,9.274,5.078,3.383,1.102,6.855,1.654,10.41,1.654,4.23,0,7.785-.338,10.665-1.013s5.34-1.654,7.365-2.921c2.032-1.275,3.769-2.708,5.209-4.32,1.44-1.605,2.832-3.431,4.189-5.464,1.02-1.523,2.205-3.045,3.562-4.568,1.35-1.523,2.956-2.287,4.823-2.287h19.305c1.86,0,3.507.675,4.947,2.032s2.074,2.963,1.908,4.823c-.172,3.555-1.44,7.875-3.81,12.953-2.37,5.085-6.056,9.949-11.051,14.606-4.995,4.657-11.389,8.598-19.174,11.809-7.785,3.218-17.1,4.83-27.938,4.83-9.315,0-17.693-1.571-25.141-4.699-7.455-3.135-13.931-7.365-19.429-12.705-5.505-5.333-9.825-11.513-12.96-18.54-3.135-7.021-5.036-14.434-5.712-22.219-.344-3.052-.51-6.435-.51-10.162s.165-7.193.51-10.41c.51-7.785,2.37-15.24,5.588-22.35,3.218-7.11,7.531-13.339,12.953-18.671,5.415-5.333,11.892-9.563,19.429-12.698,7.531-3.128,15.957-4.699,25.272-4.699,10.838,0,20.153,1.612,27.938,4.823,7.785,3.224,14.179,7.158,19.174,11.816,4.995,4.657,8.681,9.522,11.051,14.599,2.37,5.085,3.638,9.398,3.81,12.953.165,1.867-.469,3.472-1.908,4.83-1.44,1.357-3.087,2.032-4.947,2.032h-19.305c-1.867,0-3.472-.765-4.823-2.287-1.357-1.523-2.542-3.045-3.562-4.575-1.357-2.026-2.749-3.844-4.189-5.457-1.44-1.605-3.176-3.052-5.209-4.32-2.026-1.268-4.485-2.239-7.365-2.921-2.88-.675-6.435-1.013-10.665-1.013-3.555,0-7.028.551-10.41,1.647-3.39,1.109-6.476,2.797-9.274,5.085-2.79,2.281-5.119,5.291-6.986,9.012-1.86,3.727-3.045,8.219-3.555,13.463Z" style="fill:#293843;" transform="matrix(0.9999999999999999, 0, 0, 0.9999999999999999, -5.684341886080802e-14, 0)"></path>
  <path d="M2750.408,122.436c10.324,0,19.431,1.612,27.306,4.821,7.875,3.224,14.556,7.154,20.059,11.812,5.503,4.658,9.696,9.65,12.572,14.982,2.883,5.332,4.402,10.122,4.573,14.354.171,1.519-.341,2.837-1.519,3.937-1.186,1.101-2.542,1.651-4.069,1.651h-10.409c-1.868,0-3.348-.341-4.449-1.015s-2.24-2.201-3.426-4.573c-.853-1.69-2.248-3.852-4.193-6.48-1.945-2.62-4.565-5.162-7.867-7.619-3.302-2.449-7.332-4.573-12.068-6.348-4.743-1.775-10.246-2.666-16.509-2.666-4.743,0-9.27.55-13.587,1.651-4.317,1.101-8.169,2.751-11.556,4.953-3.387,2.201-6.092,4.953-8.123,8.254-2.038,3.302-3.054,7.154-3.054,11.556s.977,8.123,2.922,11.176c1.945,3.046,5.084,5.797,9.402,8.247,4.317,2.457,9.774,4.705,16.377,6.735,6.604,2.031,14.641,4.317,24.128,6.859,9.65,2.534,17.819,5.332,24.508,8.378,6.689,3.046,12.145,6.472,16.385,10.285,4.232,3.813,7.317,8.216,9.27,13.207,1.945,4.999,2.922,10.626,2.922,16.889,0,7.619-1.651,14.602-4.953,20.95-3.302,6.356-7.921,11.812-13.843,16.385-5.929,4.573-13.083,8.123-21.462,10.665-8.378,2.542-17.741,3.813-28.065,3.813-9.82,0-18.881-1.442-27.174-4.317-8.301-2.883-15.408-6.604-21.338-11.176-5.929-4.573-10.626-9.65-14.091-15.238-3.472-5.588-5.294-11.091-5.464-16.509,0-1.527.55-2.837,1.651-3.937,1.101-1.101,2.41-1.651,3.937-1.651h10.417c1.69,0,3.17.341,4.441,1.015,1.271.682,2.41,2.201,3.426,4.573,1.015,2.372,2.581,4.953,4.705,7.743,2.108,2.798,4.953,5.425,8.502,7.875,3.558,2.457,7.875,4.534,12.951,6.224,5.084,1.697,11.091,2.542,18.036,2.542,5.922,0,11.556-.674,16.889-2.038,5.332-1.349,10.029-3.302,14.098-5.836,4.061-2.542,7.278-5.588,9.65-9.146,2.372-3.558,3.558-7.534,3.558-11.936s-1.356-8.169-4.069-11.3c-2.705-3.131-6.604-5.968-11.68-8.51-5.077-2.542-11.3-4.867-18.664-6.983-7.371-2.116-15.711-4.356-25.019-6.728-8.471-2.201-15.664-4.867-21.586-8.006-5.929-3.131-10.758-6.728-14.478-10.789-3.728-4.061-6.394-8.549-7.999-13.463-1.612-4.906-2.418-10.239-2.418-15.997,0-6.263,1.271-12.362,3.813-18.292,2.542-5.922,6.301-11.169,11.3-15.742,4.991-4.573,11.262-8.254,18.795-11.052,7.534-2.79,16.377-4.185,26.538-4.185Z" style="fill:#293843;" transform="matrix(0.9999999999999999, 0, 0, 0.9999999999999999, -5.684341886080802e-14, 0)"></path>
  <path d="M2851.236,177.543c0-1.86.674-3.465,2.031-4.821,1.349-1.356,2.961-2.031,4.821-2.031h9.402c1.86,0,3.465.674,4.829,2.031,1.349,1.356,2.031,2.961,2.031,4.821v67.051c0,13.044,2.914,22.771,8.758,29.204,5.844,6.441,14.354,9.657,25.523,9.657,10.673,0,19.051-3.217,25.143-9.657,6.1-6.433,9.146-16.16,9.146-29.204v-67.051c0-1.86.674-3.465,2.031-4.821,1.356-1.356,2.961-2.031,4.829-2.031h9.394c1.86,0,3.472.674,4.829,2.031,1.349,1.356,2.031,2.961,2.031,4.821v118.353c0,1.868-.682,3.472-2.031,4.829-1.356,1.356-2.969,2.031-4.829,2.031h-9.394c-1.868,0-3.472-.674-4.829-2.031-1.356-1.356-2.031-2.961-2.031-4.829v-7.875c-3.217,4.24-7.789,8.177-13.711,11.812-5.929,3.643-14.06,5.464-24.384,5.464-7.96,0-15.238-1.318-21.841-3.937-6.604-2.627-12.277-6.348-17.02-11.176-4.743-4.829-8.378-10.75-10.921-17.78-2.534-7.022-3.806-15.021-3.806-23.996v-70.864Z" style="fill:#293843;" transform="matrix(0.9999999999999999, 0, 0, 0.9999999999999999, -5.684341886080802e-14, 0)"></path>
  <path d="M3032.315,143.766c0,1.868-.674,3.472-2.031,4.829s-2.961,2.031-4.829,2.031h-14.47c-1.868,0-3.472-.674-4.829-2.031s-2.031-2.961-2.031-4.829v-14.478c0-1.86.674-3.465,2.031-4.821s2.961-2.031,4.829-2.031h14.47c1.868,0,3.472.674,4.829,2.031,1.356,1.356,2.031,2.961,2.031,4.821v14.478ZM3029.772,295.895c0,1.868-.674,3.472-2.031,4.829-1.356,1.356-2.961,2.031-4.821,2.031h-9.402c-1.86,0-3.472-.674-4.821-2.031-1.356-1.356-2.031-2.961-2.031-4.829v-118.353c0-1.86.674-3.465,2.031-4.821,1.349-1.356,2.961-2.031,4.821-2.031h9.402c1.86,0,3.465.674,4.821,2.031,1.356,1.356,2.031,2.961,2.031,4.821v118.353Z" style="fill:#293843;" transform="matrix(0.9999999999999999, 0, 0, 0.9999999999999999, -5.684341886080802e-14, 0)"></path>
  <path d="M3104.954,258.313c0,3.217.295,6.216.891,9.014.589,2.79,1.651,5.208,3.17,7.239,1.527,2.031,3.682,3.596,6.48,4.697,2.79,1.101,6.387,1.651,10.797,1.651h13.455c1.86,0,3.472.682,4.829,2.031,1.349,1.356,2.031,2.969,2.031,4.829v8.123c0,1.868-.682,3.472-2.031,4.829-1.356,1.356-2.969,2.031-4.829,2.031h-15.997c-14.734,0-25.399-3.813-32.002-11.432-6.604-7.619-9.905-18.617-9.905-33.01v-65.78h-18.795c-1.86,0-3.472-.674-4.821-2.031-1.356-1.356-2.031-2.961-2.031-4.829v-8.13c0-1.86.674-3.465,2.031-4.821,1.349-1.356,2.961-2.031,4.821-2.031h18.795v-41.404c0-1.86.674-3.465,2.031-4.821,1.356-1.356,2.961-2.031,4.829-2.031h9.394c1.86,0,3.472.674,4.829,2.031,1.349,1.356,2.031,2.961,2.031,4.821v41.404h32.258c1.86,0,3.465.674,4.821,2.031,1.356,1.356,2.031,2.961,2.031,4.821v8.13c0,1.868-.674,3.472-2.031,4.829-1.356,1.356-2.961,2.031-4.821,2.031h-32.258v65.78Z" style="fill:#293843;" transform="matrix(0.9999999999999999, 0, 0, 0.9999999999999999, -5.684341886080802e-14, 0)"></path>
  <path d="M3168.439,224.024c.674-7.789,2.542-15.067,5.588-21.841,3.046-6.774,7.022-12.703,11.936-17.78,4.914-5.077,10.797-9.053,17.656-11.936,6.852-2.875,14.509-4.317,22.981-4.317,9.146,0,17.307,1.48,24.508,4.441,7.193,2.969,13.331,7.239,18.416,12.827,5.077,5.588,8.968,12.362,11.68,20.322,2.705,7.96,4.061,16.85,4.061,26.662v6.859c0,1.868-.674,3.472-2.031,4.829-1.356,1.356-2.961,2.031-4.821,2.031h-87.365v1.519c.333,11.517,3.844,20.361,10.533,26.546,6.689,6.177,15.029,9.27,25.019,9.27,9.309,0,16.292-1.31,20.95-3.937,4.658-2.627,8.425-5.549,11.308-8.766,1.349-1.349,2.534-2.286,3.55-2.79,1.015-.512,2.542-.767,4.573-.767h7.619c1.86,0,3.558.682,5.084,2.038,1.519,1.356,2.108,2.961,1.775,4.821-.512,3.046-1.945,6.394-4.317,10.037-2.372,3.643-5.805,7.022-10.285,10.153-4.488,3.139-10.076,5.759-16.765,7.875-6.689,2.116-14.517,3.178-23.492,3.178-8.471,0-16.09-1.488-22.857-4.449-6.774-2.961-12.657-7.022-17.648-12.192-4.999-5.162-9.022-11.254-12.068-18.284-3.046-7.022-4.914-14.687-5.588-22.981-.845-7.789-.845-15.579,0-23.368ZM3191.048,224.783h71.36v-.76c0-10.324-3.263-18.578-9.774-24.763-6.518-6.177-15.199-9.27-26.034-9.27-4.914,0-9.487.806-13.711,2.41-4.24,1.612-7.968,3.899-11.176,6.859-3.217,2.969-5.759,6.565-7.619,10.797-1.868,4.232-2.883,8.89-3.046,13.967v.76Z" style="fill:#293843;" transform="matrix(0.9999999999999999, 0, 0, 0.9999999999999999, -5.684341886080802e-14, 0)"></path>
  <path d="M3339.365,272.023c1.86,0,3.465.682,4.821,2.031,1.356,1.356,2.031,2.969,2.031,4.829v17.013c0,1.868-.674,3.472-2.031,4.829-1.356,1.356-2.961,2.031-4.821,2.031h-17.02c-1.868,0-3.472-.674-4.821-2.031-1.364-1.356-2.038-2.961-2.038-4.829v-17.013c0-1.86.674-3.472,2.038-4.829,1.349-1.349,2.953-2.031,4.821-2.031h17.02Z" style="fill:#293843;" transform="matrix(0.9999999999999999, 0, 0, 0.9999999999999999, -5.684341886080802e-14, 0)"></path>
  <path d="M3409.462,143.766c0,1.868-.674,3.472-2.031,4.829-1.356,1.356-2.961,2.031-4.829,2.031h-14.47c-1.868,0-3.472-.674-4.829-2.031-1.356-1.356-2.031-2.961-2.031-4.829v-14.478c0-1.86.674-3.465,2.031-4.821s2.961-2.031,4.829-2.031h14.47c1.868,0,3.472.674,4.829,2.031,1.356,1.356,2.031,2.961,2.031,4.821v14.478ZM3406.919,295.895c0,1.868-.674,3.472-2.031,4.829-1.356,1.356-2.961,2.031-4.821,2.031h-9.402c-1.86,0-3.472-.674-4.821-2.031-1.356-1.356-2.031-2.961-2.031-4.829v-118.353c0-1.86.674-3.465,2.031-4.821,1.349-1.356,2.961-2.031,4.821-2.031h9.402c1.86,0,3.465.674,4.821,2.031,1.356,1.356,2.031,2.961,2.031,4.821v118.353Z" style="fill:#293843;" transform="matrix(0.9999999999999999, 0, 0, 0.9999999999999999, -5.684341886080802e-14, 0)"></path>
  <path d="M3501.648,168.149c9.146,0,17.268,1.395,24.384,4.193,7.107,2.79,13.207,6.642,18.284,11.556,5.084,4.906,9.099,10.874,12.068,17.904,2.961,7.022,4.782,14.687,5.456,22.981.171,1.527.256,3.348.256,5.464v13.207c0,2.116-.085,3.852-.256,5.201-.845,8.471-2.705,16.176-5.588,23.112-2.875,6.945-6.852,12.874-11.936,17.78-5.077,4.914-11.176,8.766-18.284,11.556-7.115,2.79-15.238,4.193-24.384,4.193s-17.268-1.403-24.384-4.193c-7.107-2.79-13.199-6.642-18.284-11.556-5.077-4.906-9.099-10.835-12.06-17.78-2.969-6.937-4.79-14.641-5.464-23.112-.171-1.349-.295-3.085-.38-5.201s-.124-4.317-.124-6.604.039-4.488.124-6.604.209-3.937.38-5.464c.674-8.293,2.496-15.959,5.464-22.981,2.961-7.03,6.983-12.998,12.06-17.904,5.084-4.914,11.176-8.766,18.284-11.556,7.115-2.798,15.245-4.193,24.384-4.193ZM3538.727,247.392c.341-2.883.512-6.394.512-10.541s-.171-7.751-.512-10.797c-.504-5.077-1.612-9.82-3.302-14.222-1.69-4.402-4.061-8.208-7.107-11.432-3.046-3.209-6.774-5.751-11.176-7.619-4.402-1.86-9.564-2.79-15.494-2.79s-11.091.93-15.494,2.79c-4.402,1.868-8.123,4.41-11.169,7.619-3.054,3.224-5.425,7.03-7.115,11.432-1.697,4.402-2.79,9.146-3.302,14.222-.341,3.046-.504,6.65-.504,10.797s.163,7.658.504,10.541c.512,5.077,1.604,9.82,3.302,14.222,1.69,4.402,4.061,8.208,7.115,11.424,3.046,3.217,6.766,5.759,11.169,7.619,4.402,1.868,9.564,2.798,15.494,2.798s11.091-.93,15.494-2.798c4.402-1.86,8.13-4.402,11.176-7.619,3.046-3.217,5.418-7.022,7.107-11.424,1.69-4.402,2.798-9.146,3.302-14.222Z" style="fill:#293843;" transform="matrix(0.9999999999999999, 0, 0, 0.9999999999999999, -5.684341886080802e-14, 0)"></path>
  <path d="M1485.102,381.669c-.369.28-.682.594-1.016.896l-.044-.041c-.584.624-14.643,15.226-45.178,15.232-.006,0-.012-.001-.019-.001-6.702,0-12.134,3.719-12.134,8.307s5.433,8.307,12.134,8.307c33.16,0,51.355-14.794,56.159-19.336.055-.04.114-.068.168-.109,5.047-3.835,6.884-9.91,4.103-13.569-2.78-3.66-9.126-3.519-14.173.316Z" style="fill:url(#uuid-0d84af2e-598e-404c-a801-c86ef3839255);" transform="matrix(0.9999999999999999, 0, 0, 0.9999999999999999, -5.684341886080802e-14, 0)"></path>
  <path d="M1438.845,417.872c-8.767,0-15.633-5.188-15.633-11.809s6.866-11.809,15.633-11.809c28.982-.007,42.107-13.552,42.651-14.131l1.867-1.485.913-.657c2.718-1.736,5.75-2.715,8.685-2.777,3.755-.22,7.09,1.385,9.101,4.037,2.012,2.646,2.539,6.235,1.447,9.845-.989,3.266-3.197,6.325-6.221,8.626-4.916,4.623-24.021,20.159-58.442,20.159ZM1484.307,387.04c-5.377,4.513-19.894,14.207-45.445,14.214-4.957,0-8.65,2.535-8.65,4.809s3.693,4.809,8.633,4.809c31.838,0,49.193-14.069,53.754-18.382l.675-.503c1.612-1.24,2.98-3.094,3.534-4.926.255-.847.555-2.439-.32-3.59-.868-1.144-2.411-1.261-3.373-1.275-1.912.041-4.055.861-5.884,2.246l-2.856,2.646-.069-.048Z" style="fill:url(#uuid-deb52917-5ccf-428b-a58d-e19dd863fbe4);" transform="matrix(0.9999999999999999, 0, 0, 0.9999999999999999, -5.684341886080802e-14, 0)"></path>
  <path d="M1722.647,242.763c-14.906-9.294-18.461-20.38-18.516-20.559l-.241-.737c-13.879-38.211-44.129-52.107-68.867-52.528-19.619-78.778-118.091-103.856-145.801-100.467-25.192,2.963-46.172-5.34-46.368-5.422l-4.577-1.887c-.247-.167-15.279-8.236-17.852-7.359-3.397,1.157,6.237,23.823,8.595,29.3.015.034.029.068.044.103.317.735.506,1.164.506,1.164l.039-.103c14.153,30.35,65.541,68.762,112.442,73.861,19.829,2.15,21.172,14.737,22.595,28.069.307,2.88.603,5.663,1.092,8.281l-21.985.909c-60.595-35.73-113.881-47.243-158.392-34.228-47.856,13.986-64.747,44.728-68.03,53.409l-.389.923c-.207.551-1.771,4.754-3.658,11.347-3.452-2.039-7.255-3.404-11.217-4.01-9.367-1.419-18.716,1.399-26.284,7.944-7.038,6.091-11.726,14.779-13.201,24.466-1.516,9.935.524,19.836,5.739,27.876,5.302,8.171,13.221,13.435,22.302,14.813,5.763.882,11.513.103,16.983-2.232,2.322,12.698,6.986,23.48,13.904,32.106,16.728,20.848,45.355,28.565,85.178,22.908l57.254-10.031c6.506-1.398,10.538-7.82,9.525-13.504-.586-3.293-2.873-6.132-6.273-7.785-3.08-1.516-6.809-1.77-10.537-1.238-.232.033-.419.066-.755.115l-52.869,8.977c-30.659,4.368-51.866-.441-62.986-14.282-8.433-10.5-11.788-26.443-9.935-47.422.062-.4.083-.792.117-1.585,1.988-20.153,7.951-37.832,8.788-39.685,7.834-17.353,18.134-30.253,53.341-40.408,38.569-11.127,86.418.207,142.184,33.684l2.966,1.778,56.406-1.902-1.357-13.38c-.424-2.646-.768-5.615-1.14-8.784-2.618-22.447-6.58-56.372-46.795-60.74-30.325-3.293-62.29-23.136-80.693-42.427,9.504,1.047,18.912,1.04,28.059-.034,11.313-1.302,39.506,3.762,66.793,19.133,22.013,12.395,49.406,34.959,54.894,72.074l1.809,12.181,12.119-2.253c1.547-.282,38.19-6.738,53.861,36.061.954,3.011,6.432,17.955,24.469,30.894-9.739,8.461-43.195,24.982-68.095,22.667l-7.258-.655-2.243,4.692c-4.664,8.846-22.116,37.852-50.881,39.595-26.732,1.619-44.77,13.345-55.597,23.597l-6.311-3.08c10.576-28.324,10.187-51.77-1.168-69.724-17.8-28.131-55.104-31.073-62.004-31.342l-.954-.062s-2.451.027-3.789.372c-6.538,1.199-11.227,5.56-11.382,11.024-.152,5.464,4.509,10.197,11.058,11.706l3.428.51c.313.007,31.338.903,43.685,20.414,8.25,13.049,6.642,32.575-4.785,58.032l-4.685,10.438,116.296,56.648,3.524,1.178c1.519.372,3.028.558,4.471.558,4.875,0,9.063-2.094,10.865-5.898,2.429-5.147-.183-11.506-6.111-15.605l-68.825-33.815c9.697-6.786,21.014-10.61,33.708-11.382,33.477-2.026,54.953-27.407,65.287-43.509,31.045-.903,75.233-19.05,85.454-38.865,1.648-3.476,2.132-6.683,2.132-6.683.927-7.158-2.411-14.028-9.101-18.196ZM1306.802,259.415l-.317,3.162c-1.378,7.413-6.873,12.739-12.284,11.878-2.58-.393-4.861-2.129-6.414-4.878-1.712-3.038-2.329-6.855-1.733-10.762.627-4.106,2.494-7.682,5.267-10.08,1.888-1.64,3.989-2.508,6.073-2.508.369,0,.734.028,1.102.083,2.387.365,4.561,1.943,6.115,4.444,1.533,2.473,2.284,5.56,2.191,8.66Z" style="fill:url(#uuid-322dd4bf-6468-4802-81f0-34e7895d3bfc);" transform="matrix(0.9999999999999999, 0, 0, 0.9999999999999999, -5.684341886080802e-14, 0)"></path>
</svg>
