<svg version="1.1" xmlns:xlink="http://www.w3.org/1999/xlink" x="0px" y="0px" xml:space="preserve" class="fastsvg">
                                    <path id="fast" stroke-dasharray="1100 1000" d="M16.082.001c-1.794 0-3.498.338-5.114 1.016A14.842 14.842 0 006.615 3.81a14.54 14.54 0 00-3.099 4.117 13.09 13.09 0 00-1.442 4.976L.001 37.083c1.253 0 2.385-.135 3.39-.406a14.586 14.586 0 002.89-1.117l1.95-22.758a10.89 10.89 0 01.791-3.3c.463-1.05 1.032-1.968 1.708-2.747a7.732 7.732 0 012.29-1.828c.887-.474 1.787-.71 2.701-.71H23.8L24.161 0zM76.3 3.353c-1.253 0-2.4.152-3.441.457-1.006.27-1.972.643-2.893 1.117l-1.65 19.254c-.155 1.795.044 3.473.588 5.031a12.188 12.188 0 002.39 4.113 12.137 12.137 0 003.877 2.742c1.534.678 3.2 1.016 4.995 1.016l.366-4.266c-.948 0-1.813-.22-2.588-.66a6.597 6.597 0 01-1.972-1.879c-.543-.779-.955-1.696-1.237-2.746-.249-1.05-.322-2.166-.22-3.351zM31.964 12.09c-1.795 0-3.498.338-5.114 1.015a14.712 14.712 0 00-7.447 6.86 13.219 13.219 0 00-1.448 5.027c-.153 1.795.041 3.474.585 5.031a12.188 12.188 0 002.39 4.114 12.154 12.154 0 003.881 2.742c1.5.677 3.146 1.015 4.94 1.015.983 0 1.922-.101 2.82-.304.932-.203 1.823-.491 2.668-.864l.561-6.55c-.736 1.083-1.607 1.93-2.608 2.539-.967.61-1.99.914-3.074.914-.915 0-1.775-.22-2.584-.66a6.597 6.597 0 01-1.972-1.88c-.543-.778-.959-1.696-1.241-2.745-.249-1.05-.322-2.167-.22-3.352.104-1.22.37-2.352.799-3.402a10.775 10.775 0 011.711-2.743c.677-.778 1.44-1.391 2.29-1.832.888-.474 1.788-.71 2.702-.71 1.422 0 2.632.49 3.631 1.472 1.034.982 1.757 2.255 2.166 3.813.123.541.193 1.1.212 1.675.055.542.056 1.117.004 1.727l-.906 10.566c.84.474 1.738.847 2.697 1.117.993.271 2.098.407 3.317.407l1.037-12.09c.153-1.795-.041-3.47-.585-5.027-.544-1.558-1.358-2.915-2.444-4.067-1.05-1.185-2.328-2.115-3.827-2.793-1.5-.677-3.146-1.016-4.94-1.016zm25.176.812c-1.343-.135-2.568-.05-3.678.254-1.076.305-2.011.762-2.809 1.371a8.077 8.077 0 00-1.96 2.133 6.765 6.765 0 00-.916 2.39 5.64 5.64 0 00-.017 1.981c.114.644.38 1.286.8 1.93.418.643 1.007 1.27 1.768 1.879.797.575 1.817 1.117 3.06 1.625.92.338 1.739.643 2.46.914.722.27 1.31.558 1.759.863.481.305.823.664 1.025 1.07.236.407.312.897.23 1.473-.147.914-.618 1.676-1.415 2.285-.795.576-1.97.813-3.518.711-.774-.068-1.617-.287-2.534-.66-.88-.406-1.743-1.184-2.592-2.336a15.142 15.142 0 00-1.621 1.727 16.24 16.24 0 00-1.168 1.726c.901.948 2.003 1.76 3.3 2.438 1.299.643 2.637 1.015 4.017 1.117a13.45 13.45 0 003.686-.305c1.242-.27 2.346-.71 3.312-1.32 1-.61 1.844-1.37 2.532-2.285.691-.948 1.122-2.031 1.295-3.25.283-1.727-.061-3.237-1.035-4.524-.94-1.287-2.39-2.318-4.355-3.097-.953-.339-1.761-.626-2.418-.864-.654-.27-1.208-.524-1.661-.761s-.806-.474-1.057-.711a2.33 2.33 0 01-.526-.965c-.1-.406-.069-.779.095-1.117.168-.373.397-.681.689-.918.328-.271.7-.474 1.118-.61a3.295 3.295 0 011.283-.152c.776.034 1.607.254 2.486.66.916.373 1.815 1.138 2.699 2.29a10.36 10.36 0 001.565-1.676 15.46 15.46 0 001.22-1.782c-.902-.948-1.951-1.726-3.152-2.336-1.167-.61-2.49-.998-3.966-1.168zm19.677.407l-.401 4.675h5.386l.401-4.675zM9.465 14.985l-.353 4.118h8.281l.353-4.118z"></path>
                                </svg>
