<?xml version="1.0" encoding="utf-8"?>
<svg xmlns="http://www.w3.org/2000/svg" viewBox="0.001 -0.002 208.5719 51.563" width="208.572px" height="51.563px">
  <g transform="matrix(1, 0, 0, 1, 0, -7.105427357601002e-15)">
    <path id="fast" stroke-dasharray="1100 1000" d="M16.082.001c-1.794 0-3.498.338-5.114 1.016A14.842 14.842 0 006.615 3.81a14.54 14.54 0 00-3.099 4.117 13.09 13.09 0 00-1.442 4.976L.001 37.083c1.253 0 2.385-.135 3.39-.406a14.586 14.586 0 002.89-1.117l1.95-22.758a10.89 10.89 0 01.791-3.3c.463-1.05 1.032-1.968 1.708-2.747a7.732 7.732 0 012.29-1.828c.887-.474 1.787-.71 2.701-.71H23.8L24.161 0zM76.3 3.353c-1.253 0-2.4.152-3.441.457-1.006.27-1.972.643-2.893 1.117l-1.65 19.254c-.155 1.795.044 3.473.588 5.031a12.188 12.188 0 002.39 4.113 12.137 12.137 0 003.877 2.742c1.534.678 3.2 1.016 4.995 1.016l.366-4.266c-.948 0-1.813-.22-2.588-.66a6.597 6.597 0 01-1.972-1.879c-.543-.779-.955-1.696-1.237-2.746-.249-1.05-.322-2.166-.22-3.351zM31.964 12.09c-1.795 0-3.498.338-5.114 1.015a14.712 14.712 0 00-7.447 6.86 13.219 13.219 0 00-1.448 5.027c-.153 1.795.041 3.474.585 5.031a12.188 12.188 0 002.39 4.114 12.154 12.154 0 003.881 2.742c1.5.677 3.146 1.015 4.94 1.015.983 0 1.922-.101 2.82-.304.932-.203 1.823-.491 2.668-.864l.561-6.55c-.736 1.083-1.607 1.93-2.608 2.539-.967.61-1.99.914-3.074.914-.915 0-1.775-.22-2.584-.66a6.597 6.597 0 01-1.972-1.88c-.543-.778-.959-1.696-1.241-2.745-.249-1.05-.322-2.167-.22-3.352.104-1.22.37-2.352.799-3.402a10.775 10.775 0 011.711-2.743c.677-.778 1.44-1.391 2.29-1.832.888-.474 1.788-.71 2.702-.71 1.422 0 2.632.49 3.631 1.472 1.034.982 1.757 2.255 2.166 3.813.123.541.193 1.1.212 1.675.055.542.056 1.117.004 1.727l-.906 10.566c.84.474 1.738.847 2.697 1.117.993.271 2.098.407 3.317.407l1.037-12.09c.153-1.795-.041-3.47-.585-5.027-.544-1.558-1.358-2.915-2.444-4.067-1.05-1.185-2.328-2.115-3.827-2.793-1.5-.677-3.146-1.016-4.94-1.016zm25.176.812c-1.343-.135-2.568-.05-3.678.254-1.076.305-2.011.762-2.809 1.371a8.077 8.077 0 00-1.96 2.133 6.765 6.765 0 00-.916 2.39 5.64 5.64 0 00-.017 1.981c.114.644.38 1.286.8 1.93.418.643 1.007 1.27 1.768 1.879.797.575 1.817 1.117 3.06 1.625.92.338 1.739.643 2.46.914.722.27 1.31.558 1.759.863.481.305.823.664 1.025 1.07.236.407.312.897.23 1.473-.147.914-.618 1.676-1.415 2.285-.795.576-1.97.813-3.518.711-.774-.068-1.617-.287-2.534-.66-.88-.406-1.743-1.184-2.592-2.336a15.142 15.142 0 00-1.621 1.727 16.24 16.24 0 00-1.168 1.726c.901.948 2.003 1.76 3.3 2.438 1.299.643 2.637 1.015 4.017 1.117a13.45 13.45 0 003.686-.305c1.242-.27 2.346-.71 3.312-1.32 1-.61 1.844-1.37 2.532-2.285.691-.948 1.122-2.031 1.295-3.25.283-1.727-.061-3.237-1.035-4.524-.94-1.287-2.39-2.318-4.355-3.097-.953-.339-1.761-.626-2.418-.864-.654-.27-1.208-.524-1.661-.761s-.806-.474-1.057-.711a2.33 2.33 0 01-.526-.965c-.1-.406-.069-.779.095-1.117.168-.373.397-.681.689-.918.328-.271.7-.474 1.118-.61a3.295 3.295 0 011.283-.152c.776.034 1.607.254 2.486.66.916.373 1.815 1.138 2.699 2.29a10.36 10.36 0 001.565-1.676 15.46 15.46 0 001.22-1.782c-.902-.948-1.951-1.726-3.152-2.336-1.167-.61-2.49-.998-3.966-1.168zm19.677.407l-.401 4.675h5.386l.401-4.675zM9.465 14.985l-.353 4.118h8.281l.353-4.118z"/>
  </g>
  <g id="Page-1" stroke="none" stroke-width="1" fill="none" fill-rule="evenodd" transform="matrix(1, 0, 0, 1, 82, -7.105427357601002e-15)">
    <g id="Switch-Logo-Red" transform="translate(-97.000000, -26.000000)" fill="#f1404b">
      <g id="Logo" transform="translate(50.000000, 26.000000)">
        <g id="Logo-Right" transform="translate(47.000000, 0.000000)">
          <path id="mage" stroke-dasharray="1100 1000" d="M15.47-.002c-1.796 0-3.47.342-5.018 1.02S7.54 2.625 6.353 3.81a14.06 14.06 0 00-2.887 4.062 14.46 14.46 0 00-1.35 5.031L0 37.592c1.22 0 2.335-.135 3.34-.406a14.26 14.26 0 002.94-1.117l1.985-23.164c.105-1.22.338-2.357.699-3.406.394-1.05.879-1.964 1.453-2.743.609-.779 1.304-1.388 2.087-1.828.82-.474 1.69-.71 2.604-.71s1.723.236 2.427.71a4.876 4.876 0 011.773 1.828c.475.78.803 1.693.984 2.743.214 1.05.27 2.187.165 3.406L18.34 37.593c1.253 0 2.381-.136 3.387-.407 1.039-.27 2.022-.643 2.943-1.117l1.986-23.164c.154-1.795-.007-3.473-.483-5.03-.476-1.559-1.227-2.912-2.245-4.063-.983-1.186-2.205-2.116-3.671-2.793-1.432-.678-3.027-1.02-4.788-1.02zm18.386 0c-1.727 0-3.326.308-4.801.918s-2.799 1.455-3.976 2.539c1.295 1.49 2.179 3.215 2.654 5.18.587-1.321 1.372-2.387 2.356-3.2s2.118-1.218 3.405-1.218c.915 0 1.727.236 2.432.71a4.876 4.876 0 011.773 1.829c.475.779.802 1.692.983 2.742.215 1.05.27 2.187.165 3.406l-2.116 24.688c1.253 0 2.38-.135 3.386-.406a14.586 14.586 0 002.89-1.117l1.985-23.164c.154-1.795-.007-3.474-.483-5.032-.476-1.557-1.206-2.91-2.19-4.062-.983-1.185-2.205-2.116-3.671-2.793-1.432-.677-3.03-1.02-4.792-1.02zm82.846 12.55c-1.795 0-3.515.34-5.165 1.016a14.864 14.864 0 00-4.357 2.793c-1.25 1.152-2.28 2.522-3.095 4.114a13.239 13.239 0 00-1.447 5.03c-.153 1.796.041 3.47.585 5.028a12.208 12.208 0 002.39 4.117 12.154 12.154 0 003.881 2.743c1.534.677 3.197 1.015 4.992 1.015a13.03 13.03 0 004.961-.965 14.492 14.492 0 004.238-2.64l-2.734-3.051c-.585.508-1.199.952-1.84 1.324a9.68 9.68 0 01-1.957.864 6.485 6.485 0 01-2.303.203c-.948 0-1.808-.22-2.584-.66a6.293 6.293 0 01-1.98-1.782c-.542-.779-.956-1.675-1.242-2.691-.251-1.016-.326-2.116-.224-3.301.107-1.253.358-2.403.753-3.453.431-1.084.967-2.001 1.606-2.746.643-.78 1.37-1.371 2.184-1.778.85-.44 1.766-.66 2.748-.66 1.253 0 2.201.186 2.847.559.682.339 1.175.745 1.473 1.219.332.474.511.947.538 1.422.064.44.089.744.074.914-.017.203-.135.596-.354 1.171-.216.542-.7 1.067-1.455 1.575s-1.872.863-3.346 1.066c-1.44.203-3.405.051-5.902-.457l-.052.61a9.913 9.913 0 00.389 3.757 22.53 22.53 0 005.602.406c1.874-.135 3.547-.473 5.016-1.015 1.506-.576 2.758-1.37 3.76-2.387 1.004-1.05 1.603-2.318 1.799-3.809a6.809 6.809 0 00-.453-3.609 8.42 8.42 0 00-2.024-3.047c-.872-.88-1.946-1.574-3.224-2.082-1.274-.542-2.642-.812-4.098-.812zm-56.238.052a13.11 13.11 0 00-5.118 1.015 14.842 14.842 0 00-4.353 2.793 14.692 14.692 0 00-3.09 4.063 13.239 13.239 0 00-1.448 5.03c-.153 1.796.041 3.47.585 5.028a12.208 12.208 0 002.39 4.117 12.137 12.137 0 003.877 2.743c1.5.677 3.15 1.015 4.945 1.015.982 0 1.92-.101 2.819-.304a13.94 13.94 0 002.664-.864l.561-6.554c-.736 1.083-1.604 1.933-2.604 2.543-.967.61-1.991.914-3.075.914-.914 0-1.775-.22-2.584-.66a6.623 6.623 0 01-1.975-1.883c-.543-.78-.955-1.693-1.238-2.742-.248-1.05-.322-2.167-.22-3.352.104-1.22.37-2.352.8-3.402.462-1.05 1.031-1.968 1.707-2.746a7.745 7.745 0 012.294-1.829c.887-.474 1.787-.71 2.701-.71 1.423 0 2.632.49 3.632 1.472 1.033.982 1.757 2.255 2.165 3.813.123.541.194 1.1.212 1.675a9.25 9.25 0 01.005 1.727l-.906 10.566c.84.474 1.738.847 2.697 1.117.993.271 2.097.407 3.317.407l1.036-12.09c.154-1.795-.04-3.473-.584-5.031-.544-1.558-1.358-2.911-2.445-4.063-1.05-1.185-2.327-2.115-3.827-2.793S62.26 12.6 60.464 12.6zm28.187.101c-1.795 0-3.468.338-5.017 1.016a13.256 13.256 0 00-4.098 2.793c-1.183 1.151-2.146 2.521-2.892 4.113a14.318 14.318 0 00-1.345 4.98c-.154 1.795.011 3.47.487 5.028.476 1.558 1.204 2.932 2.186 4.117.985 1.151 2.192 2.065 3.624 2.742 1.432.678 3.048 1.016 4.843 1.016.982 0 1.82-.102 2.514-.305.695-.203 1.464-.49 2.309-.863l.557-6.504c-.7 1.05-1.449 1.9-2.249 2.543-.763.61-1.686.914-2.77.914-.914 0-1.745-.22-2.486-.66-.705-.474-1.293-1.104-1.768-1.883-.442-.779-.77-1.692-.984-2.742a13.702 13.702 0 01-.115-3.403c.102-1.185.333-2.301.694-3.351.395-1.05.88-1.967 1.454-2.746.612-.813 1.308-1.439 2.09-1.88.82-.473 1.69-.71 2.605-.71.914 0 1.724.22 2.431.66s1.298 1.05 1.773 1.828c.475.78.803 1.696.984 2.746.214 1.05.271 2.166.17 3.352L92.51 38.76a10.468 10.468 0 01-.846 3.351c-.463 1.05-1.032 1.967-1.708 2.746a7.732 7.732 0 01-2.29 1.828c-.85.44-1.732.66-2.646.66-.782.034-1.67-.101-2.66-.406-.957-.305-1.93-.998-2.92-2.082l-.055.051c-.563.643-1.041 1.286-1.435 1.93s-.72 1.303-.982 1.98A10.945 10.945 0 0080.4 50.85c1.314.474 2.736.711 4.26.711 1.794 0 3.498-.338 5.114-1.015a14.176 14.176 0 004.302-2.793 14.239 14.239 0 003.145-4.063 13.239 13.239 0 001.447-5.031l1.17-13.055c.15-1.76-.011-3.422-.487-4.98-.473-1.592-1.223-2.962-2.241-4.113-.983-1.185-2.205-2.116-3.671-2.793-1.432-.677-3.027-1.016-4.788-1.016z"/>
        </g>
      </g>
    </g>
  </g>
</svg>
