<svg xmlns="http://www.w3.org/2000/svg" width="450" height="144" class="cmsp11-w-80 cmsp11-h-auto cmsp11-max-w-full" viewBox="0 0 450 144" fill="none">
  <path d="M197.012 89.8199L183.792 43.6499H165.373L184.723 102.96H190.552L180.757 132H199.476L229.131 43.6499H210.593L197.012 89.8199Z" fill="#0A23B9"></path>
  <path d="M277.716 43.6499L263.414 83.7599L249.202 43.6499H230.904L254.01 101.7H272.849L295.924 43.6499H277.716Z" fill="#0A23B9"></path>
  <path d="M341.234 47.5199C336.607 44.2499 330.598 42.1499 324.017 42.1499C307.432 42.1499 293.971 55.3499 293.971 72.7199C293.971 90.0899 307.582 103.23 323.957 103.23C330.598 103.23 336.607 101.16 341.234 97.7999V101.73H358V43.6799H341.234V47.5199ZM340.152 80.9399C337.418 85.1699 332.611 88.0199 326.992 88.0199C318.699 88.0199 311.548 81.1499 311.548 72.6599C311.548 64.1699 318.819 57.3899 326.992 57.3899C332.551 57.3899 337.418 60.2399 340.152 64.5299V80.9399Z" fill="#0A23B9"></path>
  <path d="M137.43 42.15C130.67 42.15 124.66 44.61 119.733 48.54V12.03H97.6787L92 28.95H102.787V101.7H120.574V64.95C123.098 61.17 127.665 57.57 133.915 57.57C141.516 57.57 147.075 61.98 147.075 73.68V101.73H164.772V73.68C164.772 51 151.311 42.15 137.46 42.15H137.43Z" fill="#0A23B9"></path>
  <path d="M332.07 12H312.57L306.891 28.95H326.361L332.07 12Z" fill="#0A23B9"></path>
  <path d="M332.791 28.95H352.291L358 12H338.5L332.791 28.95Z" fill="#0A23B9"></path>
</svg>
