<svg width="320" height="103" viewBox="0 0 320 103" fill="none" xmlns="http://www.w3.org/2000/svg">
<path d="M0 49.0667C0 4.41604 4.41605 0 49.0667 0C93.7173 0 98.1333 4.41604 98.1333 49.0667C98.1333 93.7173 93.7173 98.1333 49.0667 98.1333C4.41605 98.1333 0 93.7173 0 49.0667" fill="#F6F7FF"/>
<path d="M51.5933 38.5615C46.775 38.5615 42.487 40.3169 38.9762 43.1147V17.0667H23.2505L19.2002 29.1444H26.8893V81.0667H39.5522V54.8358C41.3533 52.1295 44.599 49.5604 49.0608 49.5604C54.4733 49.5604 58.4322 52.7147 58.4322 61.0529V81.0667H71.0493V61.0529C71.0493 44.8701 61.4493 38.5615 51.575 38.5615H51.5933Z" fill="#0A23B9"/>
<path d="M54.5908 28.202L58.0171 17.9688H69.9725L66.5189 28.202H54.5908Z" fill="#14FFAF"/>
<path d="M68.7152 18.8709L65.8721 27.309H55.8394L58.6642 18.8709H68.7152M71.2211 17.0667H57.3703L53.3335 29.1041H67.1661L71.2211 17.0667V17.0667Z" fill="#0A23B9"/>
<path d="M205.519 72.4052L196.118 39.5732H183.021L196.78 81.7493H200.925L193.96 102.4H207.271L228.36 39.5732H215.177L205.519 72.4052Z" fill="#0A23B9"/>
<path d="M262.909 39.5732L252.739 68.0959L242.633 39.5732H229.621L246.051 80.8532H259.448L275.857 39.5732H262.909Z" fill="#0A23B9"/>
<path d="M308.077 42.3253C304.787 39.9999 300.514 38.5066 295.835 38.5066C284.04 38.5066 274.468 47.8933 274.468 60.2453C274.468 72.5973 284.147 81.9413 295.792 81.9413C300.514 81.9413 304.787 80.4693 308.077 78.0799V80.8746H320V39.5946H308.077V42.3253ZM307.308 66.0906C305.364 69.0986 301.945 71.1253 297.95 71.1253C292.053 71.1253 286.968 66.2399 286.968 60.2026C286.968 54.1653 292.138 49.3439 297.95 49.3439C301.903 49.3439 305.364 51.3706 307.308 54.4213V66.0906Z" fill="#0A23B9"/>
<path d="M163.15 38.5066C158.343 38.5066 154.069 40.2559 150.565 43.0506V17.0879H134.882L130.844 29.1199H138.515V80.8532H151.164V54.7199C152.958 52.0319 156.206 49.4719 160.65 49.4719C166.056 49.4719 170.009 52.6079 170.009 60.9279V80.8746H182.593V60.9279C182.593 44.7999 173.021 38.5066 163.171 38.5066H163.15Z" fill="#0A23B9"/>
<path d="M301.561 17.0667H287.694L283.656 29.12H297.501L301.561 17.0667Z" fill="#0A23B9"/>
<path d="M302.074 29.12H315.94L320 17.0667H306.133L302.074 29.12Z" fill="#0A23B9"/>
</svg>
