<svg xmlns="http://www.w3.org/2000/svg" xmlns:xlink="http://www.w3.org/1999/xlink" height="956" viewBox="0 0 2560 956" width="2560"><clipPath id="a"><path d="m0 717h1920v-717h-1920z"/></clipPath><clipPath id="b"><path d="m174.604 632.973h1566.056v-538.431h-1566.056z"/></clipPath><g clip-path="url(#a)" transform="matrix(1.3333333 0 0 -1.3333333 0 956)"><g clip-path="url(#b)"><path d="m0 0c-4.983-11.239-11.778-21.059-20.385-29.447-8.608-8.394-18.652-15.062-30.126-20.006-11.481-4.944-23.712-7.417-36.695-7.417-12.988 0-25.142 2.473-36.467 7.417-11.326 4.944-21.292 11.612-29.899 20.006-8.608 8.388-15.403 18.208-20.386 29.447-4.983 11.24-7.475 23.301-7.475 36.192v.448 1.801.897c.297 12.588 3.016 24.347 8.154 35.291 5.132 10.938 12.005 20.457 20.613 28.549 8.607 8.091 18.495 14.454 29.672 19.105 11.17 4.644 23.104 6.97 35.788 6.97 12.983 0 25.214-2.473 36.695-7.418 11.474-4.945 21.518-11.618 30.126-20.007 8.607-8.394 15.402-18.206 20.385-29.446 4.984-11.241 7.475-23.306 7.475-36.19 0-12.891-2.491-24.952-7.475-36.192m30.126 84.745c-6.342 14.984-15.403 28.471-27.181 40.461-12.083 11.69-25.822 20.681-41.225 26.975-15.402 6.294-31.711 9.441-48.926 9.441-17.214 0-33.452-3.147-48.699-9.441-15.253-6.294-28.922-15.285-40.998-26.975-11.778-11.99-20.839-25.399-27.18-40.236-6.343-14.838-9.67-30.647-9.967-47.43v-.9-.448-.9c.297-16.488 3.624-32.299 9.967-47.428 6.341-15.14 15.402-28.549 27.18-40.24 12.076-11.989 25.745-21.13 40.998-27.423 15.247-6.293 31.485-9.442 48.699-9.442 17.215 0 33.524 3.149 48.926 9.442 15.403 6.293 29.142 15.434 41.225 27.423 11.778 11.691 20.839 25.1 27.181 40.24 6.342 15.129 9.662 30.94 9.966 47.428v.9.448.451c-.304 16.78-3.624 32.663-9.966 47.654" fill="#ff9c00" fill-rule="evenodd" transform="translate(1700.5679 365.701)"/><g fill="#4ea6b9"><path d="m0 0c-4.53 0-8.381-1.572-11.552-4.722-3.171-3.147-4.757-6.967-4.757-11.463v-41.361c0-4.495 1.586-8.316 4.757-11.464 3.171-3.147 7.022-4.721 11.552-4.721s8.381 1.574 11.552 4.721c3.171 3.148 4.757 6.969 4.757 11.464v41.361c0 4.496-1.586 8.316-4.757 11.463-3.171 3.15-7.022 4.722-11.552 4.722m86.753-69.235c-4.983-11.394-11.708-21.283-20.159-29.671-8.459-8.394-18.426-15.061-29.9-20.007-11.481-4.945-23.712-7.418-36.694-7.418-12.989 0-25.22 2.473-36.694 7.418-11.482 4.946-21.519 11.613-30.126 20.007-8.607 8.388-15.403 18.208-20.386 29.446-4.983 11.239-7.474 23.302-7.474 36.192v.449 2.249.897c.297 12.589 3.015 24.347 8.154 35.291 5.132 10.938 12.005 20.458 20.612 28.549 8.607 8.092 18.574 14.455 29.899 19.106 11.326 4.644 23.331 6.97 36.015 6.97 12.982 0 25.213-2.474 36.694-7.418 11.474-4.946 21.441-11.618 29.9-20.008 8.451-8.394 15.176-18.206 20.159-29.445 4.983-11.241 7.475-23.307 7.475-36.191 0-12.89-2.492-25.03-7.475-36.416m35.788 157.574c-3.171 3.147-7.022 4.721-11.552 4.721s-8.459-1.574-11.779-4.721c-3.326-3.146-4.982-6.966-4.982-11.462v-25.627c-.609.598-1.289 1.35-2.039 2.249-.757.899-1.586 1.644-2.492 2.247-12.082 11.985-25.751 21.131-40.998 27.424-15.254 6.295-31.485 9.442-48.699 9.442s-33.523-3.147-48.926-9.442c-15.403-6.293-29.149-15.439-41.224-27.424-11.779-11.689-20.839-25.027-27.181-40.011-6.343-14.992-9.669-30.874-9.967-47.655v-.899-.449-.45c.298-16.789 3.624-32.75 9.967-47.881 6.342-15.136 15.402-28.546 27.181-40.236 12.075-11.99 25.821-21.13 41.224-27.423 15.403-6.295 31.712-9.442 48.926-9.442s33.445 3.147 48.699 9.442c15.247 6.293 28.916 15.433 40.998 27.423 2.11 2.093 3.625 3.745 4.531 4.945v-25.627c0-4.494 1.656-8.316 4.982-11.462 3.32-3.147 7.249-4.721 11.779-4.721s8.381 1.574 11.552 4.721c3.171 3.146 4.757 6.968 4.757 11.462v219.394c0 4.496-1.586 8.316-4.757 11.462m-339.983-28.545c-11.481 11.084-24.315 19.555-38.506 25.399-14.2 5.844-29.298 8.768-45.302 8.768-15.707 0-30.735-2.924-45.076-8.768-14.347-5.844-27.11-14.315-38.279-25.399-7.249-7.194-13.294-14.992-18.121-23.379-2.421 4.195-5.21 8.239-8.381 12.137-3.171 3.893-6.42 7.643-9.74 11.242-11.481 11.084-24.314 19.555-38.506 25.399-14.2 5.844-29.297 8.768-45.302 8.768-15.707 0-30.734-2.924-45.075-8.768-14.348-5.844-27.11-14.315-38.28-25.399-11.177-11.092-19.706-23.759-25.595-37.991-5.889-14.238-8.834-29.151-8.834-44.73v-2.249-116.888c0-4.496 1.585-8.32 4.757-11.467 3.171-3.146 7.021-4.72 11.551-4.72 4.531 0 8.381 1.574 11.553 4.72 3.17 3.147 4.756 6.971 4.756 11.467v117.337 1.8c0 11.687 2.265 22.624 6.795 32.818 4.531 10.186 10.646 19.107 18.348 26.748 7.701 7.643 16.683 13.711 26.954 18.208 10.264 4.495 21.292 6.744 33.07 6.744 11.779 0 22.878-2.249 33.297-6.744 10.419-4.497 19.48-10.565 27.181-18.208 7.701-7.641 13.817-16.562 18.347-26.748 4.53-10.194 6.795-21.131 6.795-32.818v-119.137c0-4.496 1.586-8.32 4.757-11.467 3.171-3.146 7.022-4.72 11.552-4.72s8.38 1.574 11.552 4.72c3.171 3.147 4.757 6.971 4.757 11.467v117.337 1.8c0 11.687 2.265 22.624 6.795 32.818 4.53 10.186 10.646 19.107 18.347 26.748 7.702 7.643 16.684 13.711 26.955 18.208 10.263 4.495 21.292 6.744 33.07 6.744s22.877-2.249 33.296-6.744c10.42-4.497 19.48-10.565 27.182-18.208 7.701-7.641 13.817-16.562 18.347-26.748 4.53-10.194 6.795-21.131 6.795-32.818v-119.137c0-4.496 1.586-8.32 4.756-11.467 3.172-3.146 7.022-4.72 11.553-4.72 4.53 0 8.38 1.574 11.551 4.72 3.172 3.147 4.757 6.971 4.757 11.467v119.137c0 15.579-2.944 30.492-8.833 44.73-5.89 14.232-14.426 26.899-25.596 37.991m-456.181 33.266c-4.53 0-8.381-1.574-11.552-4.721-3.171-3.146-4.757-6.966-4.757-11.462v-116.89-.449-1.798c0-11.689-2.265-22.634-6.795-32.82-4.53-10.193-10.646-19.105-18.347-26.748s-16.691-13.642-26.955-17.984c-10.27-4.348-21.291-6.519-33.07-6.519-11.778 0-22.877 2.171-33.297 6.519-10.419 4.342-19.479 10.341-27.18 17.984-7.702 7.643-13.747 16.634-18.121 26.975-4.382 10.339-6.569 21.354-6.569 33.042v118.688c0 4.496-1.585 8.316-4.757 11.462-3.171 3.147-7.022 4.721-11.551 4.721-4.531 0-8.381-1.574-11.552-4.721-3.172-3.146-4.757-6.966-4.757-11.462v-118.688c0-15.89 2.945-30.872 8.834-44.957 5.889-14.091 14.418-26.678 25.595-37.764 11.17-11.092 23.932-19.557 38.28-25.4 14.341-5.845 29.368-8.768 45.075-8.768 16.004 0 31.103 2.923 45.302 8.768 14.192 5.843 26.876 14.308 38.053 25.4 11.17 11.086 19.706 23.673 25.596 37.764 5.889 14.085 8.834 29.067 8.834 44.957v1.798 116.89c0 4.496-1.586 8.316-4.757 11.462-3.171 3.147-7.022 4.721-11.552 4.721m-272.712-218.041h-65.687c-12.989 0-25.143 2.472-36.468 7.418-11.326 4.945-21.221 11.61-29.673 20.005-8.458 8.386-15.176 18.209-20.159 29.446-4.983 11.24-7.475 23.302-7.475 36.192v213.547c0 4.793-1.586 8.767-4.757 11.914-3.171 3.146-7.177 4.72-12.004 4.72-4.531 0-8.459-1.574-11.779-4.72-3.327-3.147-4.983-7.121-4.983-11.914v-213.547c0-17.083 3.171-33.268 9.513-48.554 6.342-15.285 15.552-28.928 27.634-40.912 12.38-11.99 26.197-21.131 41.451-27.424 15.247-6.293 31.485-9.441 48.7-9.441h65.687c4.827 0 8.905 1.574 12.231 4.72 3.32 3.147 4.983 7.116 4.983 11.915 0 4.495-1.663 8.388-4.983 11.689-3.326 3.293-7.404 4.946-12.231 4.946" fill-rule="evenodd" transform="translate(1313.9243 434.7115)"/><path d="m0 0h21.03c1.314-6.426 7.447-10.077 15.48-10.077 7.886 0 13.29 2.337 13.29 8.325 0 3.943-2.483 6.717-8.325 7.739l-19.569 3.506c-13.582 2.336-20.446 8.762-20.446 20.153 0 15.918 15.188 23.658 33.444 23.658 19.276 0 32.42-8.762 33.443-23.512h-20.446c-1.168 5.842-5.696 8.762-13.436 8.762-6.864 0-12.121-2.19-12.121-7.01 0-3.358 1.899-5.695 7.886-6.717l19.57-3.067c14.019-2.337 21.029-9.201 21.029-21.03 0-17.671-15.918-25.703-34.465-25.703-18.693 0-34.466 8.471-36.364 24.973" transform="translate(1317.8488 145.624)"/><path d="m0 0c0 11.537-7.156 21.614-17.963 21.614-11.245 0-17.963-9.347-17.963-21.614s6.864-21.468 17.963-21.468c10.807 0 17.963 10.077 17.963 21.468m22.344 0c0-21.614-12.414-39.431-32.129-39.431-11.391 0-22.344 5.258-26.141 24.827v-50.384h-22.344v103.104h18.985l2.483-22.198c4.819 18.986 15.918 23.513 28.039 23.513 18.547 0 31.107-17.379 31.107-39.431" transform="translate(1457.7952 159.7898)"/><path d="m0 0c0 7.594 5.257 11.391 12.121 11.391s12.122-3.797 12.122-11.391c0-7.448-5.258-11.245-12.122-11.245s-12.121 3.797-12.121 11.245m23.22-97.117h-22.344v58.708h-11.099v17.525h33.443z" transform="translate(1497.4142 218.79)"/><path d="m0 0v-17.525h-8.909c-13.143 0-20.445-7.156-20.445-21.614v-37.094h-22.344v76.233h18.108l2.191-23.805c3.213 17.525 11.392 23.805 22.052 23.805z" transform="translate(1588.8303 197.9062)"/><path d="m0 0c0 7.594 5.257 11.391 12.121 11.391s12.122-3.797 12.122-11.391c0-7.448-5.258-11.245-12.122-11.245s-12.121 3.797-12.121 11.245m23.22-97.117h-22.344v58.708h-11.099v17.525h33.443z" transform="translate(1609.2078 218.79)"/><path d="m0 0c0 7.594 5.257 11.391 12.121 11.391s12.121-3.797 12.121-11.391c0-7.448-5.257-11.245-12.121-11.245s-12.121 3.797-12.121 11.245m23.22-97.117h-22.343v58.708h-11.1v17.525h33.443z" transform="translate(1655.0918 218.79)"/><path d="m0 0v-18.401h-15.772c-16.21 0-24.389 8.616-24.389 25.119v33.589h-11.099v17.525h11.099v20.883h22.345v-4.527c0-7.74-4.819-16.356-16.649-16.356h34.319v-17.525h-17.67v-30.377c0-6.425 3.359-9.93 9.639-9.93z" transform="translate(1740.66 140.0746)"/><path d="m0 0c0 11.188-6.939 20.817-17.419 20.817-10.904 0-17.419-8.921-17.419-20.817s6.656-20.676 17.419-20.676c10.48 0 17.419 9.63 17.419 20.676m21.668 0c0-21.384-12.18-37.953-30.165-37.953-11.896 0-22.517 4.39-27.191 22.658l-2.407-21.667h-18.41v103.38h21.667v-52.114c3.824 19.118 14.445 23.649 25.35 23.649 19.118 0 31.156-16.994 31.156-37.953" transform="translate(1159.6416 159.2607)"/><path d="m0 0-24.783-80.438c-4.39-14.303-12.604-21.243-28.04-21.243h-15.719v17.561h12.604c6.514 0 9.488 2.549 12.32 10.055h-13.736l-24.359 74.065h21.951l18.835-65.285 18.977 65.285z" transform="translate(1267.5527 196.2227)"/></g></g></g></svg>
