<svg xmlns="http://www.w3.org/2000/svg" width="142" height="164" fill="none"><g clip-path="url(#mmfr25-full_svg__a)"><path fill="#EE6524" d="M141.66 123.859v-82L70.997.86.34 41.86v82l70.657 41z"></path><path fill="#fff" d="m60.004 78.016-.048-20.123-9.824 16.58h-3.481l-9.775-16.148v19.69h-7.245V44.473h6.391l12.49 20.845 12.297-20.845h6.343l.092 33.544H60zM105.118 78.016l-.049-20.123-9.823 16.58h-3.481L81.99 58.326v19.69h-7.245V44.473h6.391l12.489 20.845 12.298-20.845h6.342l.093 33.544h-7.245zM29.631 121.339V87.796h18.026v3.411H33.455v11.436h12.908v3.411H33.455v15.28h-3.824zM60.358 121.339h-3.824V87.796h12.288q8.273 0 8.273 9.561c0 5.379-1.975 8.49-5.93 9.321l6.74 14.656h-4.302l-6.266-14.416h-6.979zm8.366-17.684q4.252.001 4.253-4.598V95.8c0-3.061-1.42-4.598-4.253-4.598h-8.366v12.448h8.366z"></path><path fill="#FFD4B5" d="M97.313 106.027H86.63v-2.154l5.456-5.707q1.313-1.345 1.892-2.493c.387-.765.577-1.53.577-2.285v-.672q0-3.231-2.807-3.231c-.924 0-1.67.24-2.224.727-.56.481-.947 1.164-1.17 2.045l-1.8-.728a6.2 6.2 0 0 1 .723-1.541 5.03 5.03 0 0 1 2.627-2.045q.85-.294 1.904-.295 2.52.002 3.72 1.307c.8.869 1.197 2.154 1.197 3.843 0 .585-.049 1.137-.152 1.645a6 6 0 0 1-.538 1.525 9.5 9.5 0 0 1-1.045 1.602q-.654.844-1.659 1.903l-4.482 4.706h8.47v1.837zM111.7 89.808h-7.104l-.462 7.166h.255a3.5 3.5 0 0 1 1.159-1.541c.533-.405 1.251-.607 2.165-.607.701 0 1.349.115 1.931.35s1.082.58 1.506 1.044q.629.696.98 1.744.349 1.043.348 2.438-.002 2.895-1.431 4.412-1.428 1.525-4.03 1.525c-1.203 0-2.252-.295-3.155-.88s-1.578-1.312-2.024-2.171l1.545-1.164c.413.776.908 1.367 1.496 1.771q.872.607 2.138.607c1.131 0 1.963-.306 2.496-.929q.8-.927.8-2.706v-.618q0-1.779-.8-2.706-.8-.928-2.496-.93-1.158.002-1.801.438-.644.441-1.11 1.088l-1.751-.235.593-9.933h8.752z"></path></g><defs><clipPath id="mmfr25-full_svg__a"><path fill="#fff" d="M.34 0h141.32v164H.34z"></path></clipPath></defs></svg>
