<svg xmlns="http://www.w3.org/2000/svg" viewBox="70.1 50 259.8 300"><path fill="#EE6524" d="M329.9 275V125L200 50 70.1 125v150L200 350z"/><g fill="#fff"><path d="m184.06 173.37-.07-29.02-14.23 23.91h-5.04l-14.17-23.29v28.4h-10.5V125h9.26l18.1 30.06L185.24 125h9.19l.14 48.37h-10.5ZM249.45 173.37l-.07-29.02-14.23 23.91h-5.04l-14.17-23.29v28.4h-10.5V125h9.26l18.1 30.06L250.63 125h9.19l.14 48.37h-10.5ZM140.04 275v-83.43h45.06v8.49h-35.5v28.45h32.27V237H149.6v38.01h-9.56ZM215 275h-9.56v-83.43h30.72c13.78 0 20.68 7.93 20.68 23.79q0 20.085-14.82 23.19l16.85 36.46h-10.76l-15.66-35.86H215v35.86Zm20.91-43.98c7.09 0 10.64-3.81 10.64-11.43v-8.1c0-7.62-3.55-11.43-10.64-11.43h-20.92v30.96z"/></g></svg>
