<svg aria-hidden="true" width="117" height="24" fill="#07353d" xmlns="http://www.w3.org/2000/svg"><path d="m55.74 3.109 1.937 18.241h-6.431l-.388-13.023-2.495 13.023h-6.517L39.308 8.436l-.366 12.914h-6.431L34.447 3.11H42.9l2.172 11.893 1.893-11.893h8.797-.021ZM60.193 20.828a2.591 2.591 0 0 1-.774-1.891c0-.74.258-1.37.774-1.892a2.536 2.536 0 0 1 1.872-.782c.73 0 1.333.26 1.85.782.516.522.774 1.153.774 1.87 0 .718-.258 1.37-.775 1.892a2.523 2.523 0 0 1-1.85.782 2.57 2.57 0 0 1-1.87-.782v.021ZM91.662 15.937c0 1.13-.258 2.109-.775 2.913-.516.804-1.44 1.413-2.753 1.87-1.333.434-3.162.674-5.528.674H71.421c.13-3.24.194-6.284.194-9.132s-.065-5.87-.194-9.131h5.851c0 .022 5.291.022 5.291.022 2.065 0 3.678.174 4.861.521 1.183.348 2.022.848 2.517 1.5.495.653.731 1.479.731 2.48 0 1-.344 1.934-1.054 2.717-.71.804-1.914 1.435-3.613 1.913 3.785 0 5.678 1.217 5.678 3.653h-.021ZM77.25 7.718v2.348h4.775c1.033 0 1.743-.087 2.151-.282.41-.174.603-.522.603-1 0-.479-.215-.653-.624-.827-.43-.152-1.14-.239-2.13-.239H77.25Zm4.775 9.045c.86 0 1.528-.044 1.98-.109.451-.065.774-.217.989-.391.193-.196.301-.457.301-.783s-.237-.74-.71-.935c-.473-.196-1.312-.283-2.538-.283h-4.775v2.544h4.775l-.022-.043ZM94.092 21.372c.108-2.696.172-4.936.172-6.675 0-1.74-.064-4.435-.193-7.044h5.958c-.13 2.5-.194 4.848-.194 7.044 0 2.196.065 4.066.172 6.675h-5.915ZM113.343 17.002a360.28 360.28 0 0 1 3.657-.13c-.129.89-.194 2.39-.194 4.5H102.46v-4.218a26.423 26.423 0 0 0 2.323-1.479c.839-.587 1.893-1.347 3.205-2.304a32.436 32.436 0 0 1 1.742-1.283c-1.119 0-2.646.065-4.582.174-1.312.065-2.194.109-2.688.13 0-2.217-.043-3.782-.151-4.717h14.497v4.218a127.412 127.412 0 0 0-3.613 2.543 195.59 195.59 0 0 1-3.893 2.74c1.355-.044 2.71-.087 4.043-.152v-.022Z"/><path d="M94.652 5.392c-.517-.522-.753-1.196-.753-2.044 0-.848.258-1.5.753-2.044C95.147.761 95.942.5 96.975.5c1.032 0 1.764.283 2.28.826.538.544.796 1.218.796 2.022 0 .805-.258 1.522-.775 2.044-.516.522-1.29.783-2.323.783-1.032 0-1.828-.261-2.323-.783h.022Z"/><path d="M21.113 2.174a45.401 45.401 0 0 0-17.53.935c-1.678.435-3.764 2.24-3.57 4.61L.85 17.74c.108 1.217.603 2.348 1.657 2.478.107 0 .322.044.645.066 0 .239.064.478.107.717.13.63.366 1.087.71 1.37.237.195.603.304 1.119.304h.086c.43 0 .925-.065 1.44-.174a8.279 8.279 0 0 0 1.872-.652c.409.217.86.326 1.334.348h.129a3.32 3.32 0 0 0 1.032-.174c.732.456 1.614.848 2.56 1.13a9.84 9.84 0 0 0 1.764.327c.516.043.172 0 .236 0 .474 0 .818-.087 1.033-.24.409-.282.71-.782.925-1.456.021-.087.043-.174.064-.283 1.205.109 2.022.174 2.194.174 1.786.065 3.506-.717 3.743-2.957.387-3.913.796-7.827 1.183-11.762.258-2.522-1.635-4.5-3.55-4.783h-.02Zm-14.67 8.37a.967.967 0 0 1 1.356.022 3.42 3.42 0 0 0 2.517 1.109 3.42 3.42 0 0 0 2.516-1.109c.366-.391.968-.391 1.355-.022.387.37.387.979.022 1.37-1.033 1.109-2.43 1.718-3.893 1.718-1.463 0-2.861-.609-3.894-1.718a.992.992 0 0 1 .022-1.37Zm10.046 9.458v.022c0 .478-.086.978-.215 1.391-.172.522-.366.74-.452.805-.043 0-.194.043-.56.021a6.028 6.028 0 0 1-1.505-.282c-1.118-.326-2.15-.826-2.86-1.435-.087.043-.151.108-.259.152-.258.13-.559.174-.86.174-.323 0-.602-.087-.86-.24a2.353 2.353 0 0 1-.366-.282c-.602.413-1.42.761-2.28.957a5.4 5.4 0 0 1-1.248.152c-.236 0-.365-.044-.408-.044-.065-.065-.194-.26-.302-.695a4.616 4.616 0 0 1-.086-1.24v-.021c0-.435.022-1.066.13-1.61.129-.695.322-.847.322-.847.022 0 .172-.044.409-.022.387 0 .86.087 1.333.24.517.152 1.463.5 2.216 1.108.107-.087.215-.152.344-.196.258-.13.56-.173.882-.173.301 0 .58.086.839.239.086.043.172.108.236.152.99-.718 2.237-1.044 2.904-1.174 1.29-.261 2.065-.152 2.194-.087.086.043.28.326.366 1.043.086.653.064 1.37.021 1.849l.065.043Z"/></svg>
