<svg width="149" height="49" viewBox="0 0 149 49" fill="none" xmlns="http://www.w3.org/2000/svg">
<path d="M23.3683 2.29999C23.3683 1.47156 24.0399 0.799988 24.8683 0.799988C29.6151 0.799988 34.2552 2.20756 38.202 4.84472C42.1488 7.48187 45.2249 11.2302 47.0414 15.6156C48.8579 20.001 49.3332 24.8266 48.4072 29.4822C47.4811 34.1377 45.1953 38.4141 41.8389 41.7705C38.4824 45.127 34.206 47.4128 29.5505 48.3388C24.8949 49.2649 20.0693 48.7896 15.6839 46.9731C11.2985 45.1566 7.5502 42.0804 4.91305 38.1337C2.27589 34.1869 0.868317 29.5467 0.868317 24.8C0.868317 23.9716 1.53989 23.3 2.36832 23.3C3.19674 23.3 3.86832 23.9716 3.86832 24.8C3.86832 28.9534 5.09995 33.0135 7.40745 36.467C9.71496 39.9204 12.9947 42.612 16.832 44.2015C20.6692 45.7909 24.8916 46.2068 28.9652 45.3965C33.0388 44.5862 36.7807 42.5861 39.7176 39.6492C42.6545 36.7123 44.6545 32.9705 45.4648 28.8969C46.2751 24.8233 45.8592 20.6009 44.2698 16.7636C42.6803 12.9264 39.9887 9.64663 36.5353 7.33912C33.0819 5.03162 29.0217 3.79999 24.8683 3.79999C24.0399 3.79999 23.3683 3.12842 23.3683 2.29999Z" fill="url(#paint0_linear_8_194)"/>
<path d="M23.3683 8.72856C23.3683 7.90013 24.0399 7.22856 24.8683 7.22856C28.9336 7.22856 32.873 8.63812 36.0155 11.2171C39.158 13.7961 41.309 17.3848 42.1021 21.372C42.8952 25.3591 42.2813 29.4979 40.3649 33.0831C38.4486 36.6683 35.3484 39.4782 31.5926 41.0339C27.8368 42.5896 23.6578 42.7949 19.7676 41.6148C15.8774 40.4347 12.5167 37.9423 10.2582 34.5621C7.99968 31.182 6.98303 27.1234 7.3815 23.0777C7.77996 19.032 9.56888 15.2497 12.4434 12.3751C13.0292 11.7893 13.979 11.7893 14.5648 12.3751C15.1505 12.9609 15.1505 13.9106 14.5648 14.4964C12.181 16.8802 10.6975 20.0168 10.3671 23.3717C10.0366 26.7267 10.8797 30.0924 12.7526 32.8954C14.6255 35.6985 17.4124 37.7654 20.6385 38.744C23.8645 39.7226 27.33 39.5523 30.4446 38.2622C33.5591 36.9721 36.13 34.642 37.7192 31.6689C39.3083 28.6958 39.8174 25.2636 39.1598 21.9572C38.5021 18.6508 36.7183 15.6748 34.1123 13.5361C31.5064 11.3975 28.2395 10.2286 24.8683 10.2286C24.0399 10.2286 23.3683 9.55699 23.3683 8.72856Z" fill="url(#paint1_linear_8_194)"/>
<path d="M24.8682 20.5821C22.5387 20.5821 20.6502 22.4705 20.6502 24.8C20.6502 27.1295 22.5387 29.0179 24.8682 29.0179C27.1977 29.0179 29.0861 27.1295 29.0861 24.8C29.0861 22.4705 27.1977 20.5821 24.8682 20.5821Z" fill="url(#paint2_linear_8_194)"/>
<path fill-rule="evenodd" clip-rule="evenodd" d="M13.7254 24.8C13.7254 18.646 18.7142 13.6571 24.8683 13.6571C31.0223 13.6571 36.0111 18.646 36.0111 24.8C36.0111 30.954 31.0223 35.9428 24.8683 35.9428C18.7142 35.9428 13.7254 30.954 13.7254 24.8ZM24.8683 16.6571C20.3711 16.6571 16.7254 20.3028 16.7254 24.8C16.7254 29.2972 20.3711 32.9428 24.8683 32.9428C29.3655 32.9428 33.0111 29.2972 33.0111 24.8C33.0111 20.3028 29.3655 16.6571 24.8683 16.6571Z" fill="url(#paint3_linear_8_194)"/>
<path d="M60.1183 28.243V6.75599H64.3544L75.0365 20.6305V6.75599H79.2111V28.243H75.2821L64.3237 13.8774V28.243H60.1183Z" fill="#0B0F1E"/>
<path d="M91.2446 28.55C89.6484 28.55 88.2057 28.1816 86.9165 27.4449C85.6272 26.7082 84.6041 25.7157 83.8469 24.4675C83.0897 23.2192 82.7111 21.8174 82.7111 20.2621C82.7111 18.7069 83.0795 17.3051 83.8162 16.0568C84.5734 14.7881 85.5965 13.7853 86.8858 13.0486C88.1955 12.3119 89.6484 11.9436 91.2446 11.9436C92.8408 11.9436 94.2835 12.3119 95.5727 13.0486C96.8824 13.7853 97.9056 14.7881 98.6423 16.0568C99.3994 17.3051 99.778 18.7069 99.778 20.2621C99.778 21.8174 99.3994 23.2192 98.6423 24.4675C97.9056 25.7157 96.8926 26.7082 95.6034 27.4449C94.3141 28.1816 92.8612 28.55 91.2446 28.55ZM91.2446 24.8972C92.0836 24.8972 92.8305 24.6926 93.4854 24.2833C94.1607 23.874 94.6927 23.3215 95.0815 22.6257C95.4908 21.9095 95.6955 21.1216 95.6955 20.2621C95.6955 19.3822 95.4908 18.5943 95.0815 17.8986C94.6927 17.2028 94.1607 16.6503 93.4854 16.241C92.8305 15.8112 92.0836 15.5964 91.2446 15.5964C90.426 15.5964 89.6791 15.8112 89.0038 16.241C88.3285 16.6503 87.7964 17.2028 87.4076 17.8986C87.0188 18.5943 86.8244 19.3822 86.8244 20.2621C86.8244 21.1216 87.0188 21.9095 87.4076 22.6257C87.7964 23.3215 88.3285 23.874 89.0038 24.2833C89.6791 24.6926 90.426 24.8972 91.2446 24.8972Z" fill="#0B0F1E"/>
<path d="M102.977 28.243V6.75599L107.182 6.04999V28.243H102.977Z" fill="#0B0F1E"/>
<path d="M118.483 28.4579C116.968 28.4579 115.597 28.0896 114.369 27.3529C113.141 26.6162 112.159 25.6339 111.422 24.4061C110.706 23.1578 110.348 21.7662 110.348 20.2314C110.348 18.6966 110.706 17.3153 111.422 16.0875C112.159 14.8392 113.152 13.8569 114.4 13.1407C115.648 12.404 117.05 12.0357 118.605 12.0357C119.383 12.0357 120.14 12.1482 120.877 12.3733C121.634 12.578 122.33 12.8849 122.964 13.2942V12.2505H127.169V28.243H123.025V26.9231C121.716 27.9463 120.201 28.4579 118.483 28.4579ZM119.158 24.8665C119.935 24.8665 120.641 24.7335 121.276 24.4675C121.931 24.2014 122.493 23.8228 122.964 23.3317V17.1005C122.493 16.6298 121.931 16.2614 121.276 15.9954C120.621 15.7294 119.915 15.5964 119.158 15.5964C118.278 15.5964 117.48 15.801 116.764 16.2103C116.068 16.5991 115.515 17.1516 115.106 17.8679C114.697 18.5636 114.492 19.3515 114.492 20.2314C114.492 21.1114 114.697 21.8992 115.106 22.595C115.515 23.2908 116.068 23.8433 116.764 24.2526C117.48 24.6619 118.278 24.8665 119.158 24.8665Z" fill="#0B0F1E"/>
<g opacity="0.66">
<path d="M63.9306 43.55C63.3905 43.55 62.8884 43.4565 62.4244 43.2695C61.9673 43.0756 61.5622 42.809 61.209 42.4697C60.8628 42.1234 60.5927 41.7252 60.3988 41.2751C60.2118 40.818 60.1183 40.3263 60.1183 39.8C60.1183 39.2737 60.2118 38.7854 60.3988 38.3353C60.5927 37.8782 60.8628 37.48 61.209 37.1407C61.5622 36.7944 61.9708 36.5278 62.4348 36.3408C62.8988 36.1469 63.3974 36.05 63.9306 36.05C64.3115 36.05 64.682 36.1019 65.0421 36.2058C65.4092 36.3028 65.745 36.4447 66.0498 36.6317C66.3614 36.8187 66.6315 37.0438 66.86 37.3069L66.1329 38.0548C65.8628 37.7294 65.5338 37.4835 65.146 37.3173C64.7582 37.1442 64.3531 37.0576 63.9306 37.0576C63.5428 37.0576 63.1827 37.1269 62.8503 37.2654C62.5248 37.4039 62.2409 37.5978 61.9985 37.8471C61.7561 38.0895 61.5657 38.3769 61.4272 38.7093C61.2956 39.0417 61.2298 39.4053 61.2298 39.8C61.2298 40.1878 61.2956 40.5479 61.4272 40.8803C61.5657 41.2127 61.7596 41.5036 62.0089 41.7529C62.2582 42.0022 62.5491 42.1961 62.8815 42.3346C63.2139 42.4731 63.574 42.5424 63.9618 42.5424C64.3842 42.5424 64.7824 42.4593 65.1564 42.2931C65.5373 42.1199 65.8593 41.8776 66.1225 41.5659L66.8392 42.2931C66.5968 42.5493 66.3198 42.7744 66.0082 42.9683C65.7035 43.1553 65.3711 43.3007 65.011 43.4046C64.6578 43.5015 64.2977 43.55 63.9306 43.55Z" fill="#202C5B"/>
<path d="M73.7168 43.55C73.1905 43.55 72.6988 43.4565 72.2417 43.2695C71.7846 43.0756 71.3795 42.809 71.0263 42.4697C70.6801 42.1234 70.41 41.7252 70.2161 41.2751C70.0291 40.818 69.9356 40.3263 69.9356 39.8C69.9356 39.2737 70.0291 38.7854 70.2161 38.3353C70.41 37.8782 70.6801 37.48 71.0263 37.1407C71.3795 36.7944 71.7846 36.5278 72.2417 36.3408C72.6988 36.1469 73.1905 36.05 73.7168 36.05C74.2431 36.05 74.7348 36.1469 75.1918 36.3408C75.6558 36.5278 76.061 36.7944 76.4072 37.1407C76.7535 37.48 77.0236 37.8782 77.2175 38.3353C77.4114 38.7854 77.5083 39.2737 77.5083 39.8C77.5083 40.3263 77.4114 40.818 77.2175 41.2751C77.0236 41.7252 76.7535 42.1234 76.4072 42.4697C76.061 42.809 75.6558 43.0756 75.1918 43.2695C74.7348 43.4565 74.2431 43.55 73.7168 43.55ZM73.7272 42.5424C74.1011 42.5424 74.4474 42.4731 74.7659 42.3346C75.0914 42.1961 75.3754 42.0057 75.6177 41.7633C75.8601 41.514 76.0506 41.2231 76.1891 40.8907C76.3276 40.5514 76.3968 40.1878 76.3968 39.8C76.3968 39.4053 76.3276 39.0417 76.1891 38.7093C76.0506 38.3769 75.8601 38.0895 75.6177 37.8471C75.3754 37.5978 75.0914 37.4039 74.7659 37.2654C74.4474 37.1269 74.1011 37.0576 73.7272 37.0576C73.3463 37.0576 72.9931 37.1269 72.6676 37.2654C72.3421 37.4039 72.0582 37.5978 71.8158 37.8471C71.5734 38.0895 71.383 38.3769 71.2445 38.7093C71.1129 39.0417 71.0471 39.4053 71.0471 39.8C71.0471 40.1878 71.1129 40.5514 71.2445 40.8907C71.383 41.2231 71.5734 41.514 71.8158 41.7633C72.0582 42.0057 72.3421 42.1961 72.6676 42.3346C72.9931 42.4731 73.3463 42.5424 73.7272 42.5424Z" fill="#202C5B"/>
<path d="M81.15 43.4357V36.1643H82.2095L86.2712 41.5659V36.1643H87.2996V43.4357H86.3439L82.1888 37.8679V43.4357H81.15Z" fill="#202C5B"/>
<path d="M93.7437 43.5396C93.1619 43.5396 92.601 43.4253 92.0608 43.1968C91.5207 42.9683 91.0428 42.6462 90.6273 42.2307L91.2921 41.462C91.6869 41.8498 92.0885 42.1372 92.4971 42.3242C92.9126 42.5112 93.3455 42.6047 93.7956 42.6047C94.1488 42.6047 94.457 42.5562 94.7201 42.4593C94.9902 42.3554 95.198 42.21 95.3434 42.023C95.4888 41.836 95.5615 41.6248 95.5615 41.3893C95.5615 41.0638 95.4473 40.8145 95.2187 40.6414C94.9902 40.4683 94.6128 40.3367 94.0865 40.2467L92.8711 40.0493C92.2063 39.9316 91.7077 39.7169 91.3752 39.4053C91.0498 39.0936 90.887 38.6781 90.887 38.1587C90.887 37.7432 90.9978 37.3796 91.2194 37.068C91.441 36.7494 91.7527 36.5036 92.1543 36.3305C92.5629 36.1573 93.0338 36.0708 93.5671 36.0708C94.0934 36.0708 94.6093 36.1573 95.1149 36.3305C95.6273 36.4967 96.0878 36.739 96.4964 37.0576L95.8939 37.8886C95.1114 37.2931 94.3185 36.9953 93.5151 36.9953C93.1966 36.9953 92.9196 37.0403 92.6841 37.1303C92.4487 37.2203 92.2651 37.3485 92.1336 37.5147C92.002 37.6739 91.9362 37.8609 91.9362 38.0756C91.9362 38.3734 92.0366 38.6019 92.2374 38.7612C92.4383 38.9136 92.7707 39.0244 93.2347 39.0936L94.4085 39.291C95.1772 39.4156 95.7416 39.6407 96.1017 39.9662C96.4618 40.2917 96.6419 40.7384 96.6419 41.3062C96.6419 41.7494 96.5207 42.1407 96.2783 42.48C96.0359 42.8125 95.6966 43.0721 95.2603 43.2591C94.824 43.4461 94.3185 43.5396 93.7437 43.5396Z" fill="#202C5B"/>
<path d="M103.106 43.55C102.476 43.55 101.929 43.4184 101.465 43.1553C101.001 42.8921 100.644 42.5216 100.395 42.0438C100.145 41.559 100.021 40.9877 100.021 40.3298V36.1643H101.112V40.3298C101.112 40.7799 101.191 41.1712 101.35 41.5036C101.517 41.836 101.749 42.0922 102.046 42.2723C102.351 42.4523 102.704 42.5424 103.106 42.5424C103.522 42.5424 103.878 42.4523 104.176 42.2723C104.474 42.0922 104.702 41.836 104.862 41.5036C105.028 41.1712 105.111 40.7799 105.111 40.3298V36.1643H106.202V40.3298C106.202 40.9877 106.073 41.559 105.817 42.0438C105.568 42.5216 105.211 42.8921 104.747 43.1553C104.283 43.4184 103.736 43.55 103.106 43.55Z" fill="#202C5B"/>
<path d="M110.044 43.4357V36.1643H111.135V42.4697H115.321V43.4357H110.044Z" fill="#202C5B"/>
<path d="M119.38 43.4357V37.1303H116.825V36.1643H123.027V37.1303H120.471V43.4357H119.38Z" fill="#202C5B"/>
<path d="M126.432 43.4357V36.1643H127.523V43.4357H126.432Z" fill="#202C5B"/>
<path d="M131.502 43.4357V36.1643H132.562L136.623 41.5659V36.1643H137.652V43.4357H136.696L132.541 37.8679V43.4357H131.502Z" fill="#202C5B"/>
<path d="M145.124 43.55C144.591 43.55 144.092 43.453 143.628 43.2591C143.171 43.0652 142.77 42.7986 142.423 42.4593C142.077 42.113 141.807 41.7148 141.613 41.2647C141.419 40.8076 141.322 40.3194 141.322 39.8C141.322 39.2806 141.416 38.7958 141.603 38.3457C141.797 37.8886 142.067 37.4904 142.413 37.1511C142.759 36.8048 143.161 36.5348 143.618 36.3408C144.075 36.1469 144.57 36.05 145.103 36.05C145.678 36.05 146.222 36.1608 146.734 36.3824C147.247 36.604 147.68 36.9122 148.033 37.3069L147.285 38.0341C147.022 37.7224 146.696 37.4835 146.308 37.3173C145.927 37.1442 145.526 37.0576 145.103 37.0576C144.722 37.0576 144.369 37.1269 144.044 37.2654C143.725 37.4039 143.445 37.5978 143.202 37.8471C142.96 38.0895 142.77 38.3769 142.631 38.7093C142.499 39.0417 142.434 39.4053 142.434 39.8C142.434 40.1878 142.499 40.5514 142.631 40.8907C142.77 41.2231 142.96 41.514 143.202 41.7633C143.452 42.0126 143.739 42.2065 144.065 42.345C144.39 42.4835 144.743 42.5528 145.124 42.5528C145.553 42.5528 145.941 42.4627 146.288 42.2827C146.641 42.1026 146.928 41.8568 147.15 41.5451C147.371 41.2266 147.506 40.8699 147.555 40.4752H145.135V39.5195H148.698V39.8935C148.698 40.4129 148.608 40.8942 148.427 41.3374C148.247 41.7806 147.995 42.1684 147.669 42.5008C147.351 42.8332 146.973 43.0929 146.537 43.2799C146.101 43.46 145.63 43.55 145.124 43.55Z" fill="#202C5B"/>
</g>
<defs>
<linearGradient id="paint0_linear_8_194" x1="12.0837" y1="36.8" x2="53.6529" y2="12.8" gradientUnits="userSpaceOnUse">
<stop stop-color="#0538FF"/>
<stop offset="1" stop-color="#70E3F5"/>
</linearGradient>
<linearGradient id="paint1_linear_8_194" x1="12.0837" y1="36.8" x2="53.6529" y2="12.8" gradientUnits="userSpaceOnUse">
<stop stop-color="#0538FF"/>
<stop offset="1" stop-color="#70E3F5"/>
</linearGradient>
<linearGradient id="paint2_linear_8_194" x1="12.0837" y1="36.8" x2="53.6529" y2="12.8" gradientUnits="userSpaceOnUse">
<stop stop-color="#0538FF"/>
<stop offset="1" stop-color="#70E3F5"/>
</linearGradient>
<linearGradient id="paint3_linear_8_194" x1="12.0837" y1="36.8" x2="53.6529" y2="12.8" gradientUnits="userSpaceOnUse">
<stop stop-color="#0538FF"/>
<stop offset="1" stop-color="#70E3F5"/>
</linearGradient>
</defs>
</svg>
