<svg xmlns="http://www.w3.org/2000/svg" width="120" height="39" viewBox="0 0 120 39" fill="none">
  <path fill-rule="evenodd" clip-rule="evenodd" d="M18.8683 1.80001C18.8683 1.13726 19.4056 0.600006 20.0683 0.600006C23.8657 0.600006 27.5778 1.72607 30.7353 3.83579C33.8927 5.94551 36.3536 8.94414 37.8068 12.4525C39.26 15.9608 39.6402 19.8213 38.8994 23.5457C38.1585 27.2702 36.3299 30.6913 33.6448 33.3764C30.9596 36.0616 27.5385 37.8902 23.814 38.6311C20.0896 39.3719 16.2291 38.9917 12.7208 37.5385C9.21245 36.0853 6.21382 33.6244 4.1041 30.4669C1.99438 27.3095 0.868317 23.5974 0.868317 19.8C0.868317 19.1373 1.40557 18.6 2.06832 18.6C2.73106 18.6 3.26832 19.1373 3.26832 19.8C3.26832 23.1227 4.25362 26.3708 6.09963 29.1336C7.94563 31.8963 10.5694 34.0496 13.6392 35.3212C16.709 36.5927 20.0869 36.9254 23.3458 36.2772C26.6047 35.629 29.5982 34.0289 31.9477 31.6794C34.2972 29.3299 35.8973 26.3364 36.5455 23.0775C37.1937 19.8186 36.861 16.4407 35.5895 13.3709C34.3179 10.3011 32.1646 7.67732 29.4019 5.83131C26.6391 3.98531 23.391 3.00001 20.0683 3.00001C19.4056 3.00001 18.8683 2.46275 18.8683 1.80001ZM18.8683 6.94286C18.8683 6.28012 19.4056 5.74286 20.0683 5.74286C23.3205 5.74286 26.4721 6.87052 28.9861 8.93369C31.5 10.9969 33.2209 13.8679 33.8553 17.0576C34.4898 20.2473 33.9987 23.5583 32.4656 26.4265C30.9325 29.2947 28.4524 31.5425 25.4477 32.7871C22.4431 34.0317 19.0999 34.1959 15.9877 33.2518C12.8756 32.3078 10.1871 30.3138 8.38023 27.6097C6.57341 24.9056 5.76009 21.6587 6.07886 18.4222C6.39763 15.1856 7.82876 12.1598 10.1284 9.86011C10.597 9.39148 11.3568 9.39148 11.8255 9.86011C12.2941 10.3287 12.2941 11.0885 11.8255 11.5572C9.91844 13.4642 8.73165 15.9734 8.4673 18.6574C8.20296 21.3414 8.87742 24.0339 10.3758 26.2764C11.8741 28.5188 14.1036 30.1723 16.6844 30.9552C19.2652 31.7381 22.0377 31.6019 24.5293 30.5698C27.021 29.5377 29.0777 27.6736 30.349 25.2951C31.6203 22.9167 32.0276 20.1709 31.5015 17.5258C30.9753 14.8807 29.5483 12.4998 27.4635 10.7889C25.3788 9.07799 22.7653 8.14286 20.0683 8.14286C19.4056 8.14286 18.8683 7.6056 18.8683 6.94286ZM20.0683 13.2857C16.4705 13.2857 13.554 16.2023 13.554 19.8C13.554 23.3977 16.4705 26.3143 20.0683 26.3143C23.666 26.3143 26.5826 23.3977 26.5826 19.8C26.5826 16.2023 23.666 13.2857 20.0683 13.2857ZM11.154 19.8C11.154 14.8768 15.1451 10.8857 20.0683 10.8857C24.9915 10.8857 28.9826 14.8768 28.9826 19.8C28.9826 24.7232 24.9915 28.7143 20.0683 28.7143C15.1451 28.7143 11.154 24.7232 11.154 19.8ZM20.0682 16.4257C18.2046 16.4257 16.6939 17.9364 16.6939 19.8C16.6939 21.6636 18.2046 23.1744 20.0682 23.1744C21.9318 23.1744 23.4425 21.6636 23.4425 19.8C23.4425 17.9364 21.9318 16.4257 20.0682 16.4257Z" fill="url(#paint0_linear_205_75)"/>
  <path d="M48.2683 22.5544V5.36481H51.6571L60.2028 16.4644V5.36481H63.5425V22.5544H60.3993L51.6326 11.0619V22.5544H48.2683Z" fill="white"/>
  <path d="M73.1693 22.8C71.8924 22.8 70.7382 22.5053 69.7068 21.916C68.6755 21.3266 67.8569 20.5326 67.2512 19.534C66.6454 18.5353 66.3426 17.4139 66.3426 16.1697C66.3426 14.9255 66.6373 13.8041 67.2266 12.8055C67.8323 11.7905 68.6509 10.9883 69.6823 10.3989C70.73 9.80955 71.8924 9.51487 73.1693 9.51487C74.4463 9.51487 75.6004 9.80955 76.6318 10.3989C77.6795 10.9883 78.4981 11.7905 79.0875 12.8055C79.6932 13.8041 79.996 14.9255 79.996 16.1697C79.996 17.4139 79.6932 18.5353 79.0875 19.534C78.4981 20.5326 77.6877 21.3266 76.6564 21.916C75.625 22.5053 74.4626 22.8 73.1693 22.8ZM73.1693 19.8778C73.8405 19.8778 74.4381 19.7141 74.9619 19.3866C75.5022 19.0592 75.9278 18.6172 76.2389 18.0606C76.5663 17.4876 76.73 16.8573 76.73 16.1697C76.73 15.4658 76.5663 14.8355 76.2389 14.2789C75.9278 13.7222 75.5022 13.2802 74.9619 12.9528C74.4381 12.609 73.8405 12.4371 73.1693 12.4371C72.5145 12.4371 71.9169 12.609 71.3767 12.9528C70.8364 13.2802 70.4108 13.7222 70.0997 14.2789C69.7887 14.8355 69.6332 15.4658 69.6332 16.1697C69.6332 16.8573 69.7887 17.4876 70.0997 18.0606C70.4108 18.6172 70.8364 19.0592 71.3767 19.3866C71.9169 19.7141 72.5145 19.8778 73.1693 19.8778Z" fill="white"/>
  <path d="M82.5551 22.5544V5.36481L85.9194 4.8V22.5544H82.5551Z" fill="white"/>
  <path d="M94.9597 22.7263C93.7482 22.7263 92.6513 22.4317 91.6691 21.8423C90.6868 21.2529 89.901 20.4671 89.3116 19.4849C88.7387 18.4862 88.4522 17.373 88.4522 16.1452C88.4522 14.9173 88.7387 13.8123 89.3116 12.83C89.901 11.8314 90.695 11.0456 91.6936 10.4726C92.6923 9.88322 93.8137 9.58854 95.0579 9.58854C95.68 9.58854 96.2857 9.67858 96.8751 9.85867C97.4808 10.0224 98.0374 10.2679 98.5449 10.5954V9.76044H101.909V22.5544H98.594V21.4985C97.5463 22.3171 96.3348 22.7263 94.9597 22.7263ZM95.4999 19.8532C96.122 19.8532 96.6868 19.7468 97.1943 19.534C97.7182 19.3211 98.1684 19.0183 98.5449 18.6254V13.6404C98.1684 13.2639 97.7182 12.9692 97.1943 12.7563C96.6704 12.5435 96.1056 12.4371 95.4999 12.4371C94.796 12.4371 94.1575 12.6008 93.5845 12.9282C93.0279 13.2393 92.5859 13.6813 92.2584 14.2543C91.931 14.8109 91.7673 15.4412 91.7673 16.1452C91.7673 16.8491 91.931 17.4794 92.2584 18.036C92.5859 18.5926 93.0279 19.0347 93.5845 19.3621C94.1575 19.6895 94.796 19.8532 95.4999 19.8532Z" fill="white"/>
  <g opacity="0.66">
    <path d="M51.3182 34.8C50.886 34.8 50.4844 34.7252 50.1132 34.5756C49.7475 34.4205 49.4234 34.2072 49.1409 33.9357C48.8639 33.6587 48.6478 33.3402 48.4927 32.9801C48.3431 32.6144 48.2683 32.2211 48.2683 31.8C48.2683 31.379 48.3431 30.9884 48.4927 30.6283C48.6478 30.2626 48.8639 29.944 49.1409 29.6726C49.4234 29.3956 49.7503 29.1823 50.1215 29.0327C50.4927 28.8776 50.8916 28.8 51.3182 28.8C51.6229 28.8 51.9193 28.8416 52.2074 28.9247C52.501 29.0022 52.7697 29.1158 53.0135 29.2654C53.2628 29.415 53.4788 29.595 53.6617 29.8055L53.0799 30.4039C52.8639 30.1435 52.6007 29.9468 52.2905 29.8139C51.9802 29.6753 51.6561 29.6061 51.3182 29.6061C51.0079 29.6061 50.7198 29.6615 50.4539 29.7723C50.1935 29.8831 49.9664 30.0382 49.7725 30.2377C49.5786 30.4316 49.4262 30.6615 49.3154 30.9274C49.2101 31.1934 49.1575 31.4842 49.1575 31.8C49.1575 32.1103 49.2101 32.3983 49.3154 32.6643C49.4262 32.9302 49.5813 33.1629 49.7808 33.3623C49.9802 33.5618 50.2129 33.7169 50.4788 33.8277C50.7448 33.9385 51.0329 33.9939 51.3431 33.9939C51.6811 33.9939 51.9996 33.9274 52.2988 33.7945C52.6035 33.656 52.8611 33.4621 53.0716 33.2127L53.645 33.7945C53.4511 33.9994 53.2295 34.1795 52.9802 34.3346C52.7365 34.4842 52.4705 34.6006 52.1824 34.6837C51.8999 34.7612 51.6118 34.8 51.3182 34.8Z" fill="#B4BEE4"/>
    <path d="M59.1471 34.8C58.726 34.8 58.3327 34.7252 57.967 34.5756C57.6014 34.4205 57.2773 34.2072 56.9947 33.9357C56.7177 33.6587 56.5016 33.3402 56.3465 32.9801C56.1969 32.6144 56.1221 32.2211 56.1221 31.8C56.1221 31.379 56.1969 30.9884 56.3465 30.6283C56.5016 30.2626 56.7177 29.944 56.9947 29.6726C57.2773 29.3956 57.6014 29.1823 57.967 29.0327C58.3327 28.8776 58.726 28.8 59.1471 28.8C59.5681 28.8 59.9615 28.8776 60.3271 29.0327C60.6983 29.1823 61.0224 29.3956 61.2994 29.6726C61.5764 29.944 61.7925 30.2626 61.9476 30.6283C62.1028 30.9884 62.1803 31.379 62.1803 31.8C62.1803 32.2211 62.1028 32.6144 61.9476 32.9801C61.7925 33.3402 61.5764 33.6587 61.2994 33.9357C61.0224 34.2072 60.6983 34.4205 60.3271 34.5756C59.9615 34.7252 59.5681 34.8 59.1471 34.8ZM59.1554 33.9939C59.4546 33.9939 59.7316 33.9385 59.9864 33.8277C60.2468 33.7169 60.4739 33.5645 60.6679 33.3706C60.8618 33.1712 61.0141 32.9385 61.1249 32.6726C61.2357 32.4011 61.2911 32.1103 61.2911 31.8C61.2911 31.4842 61.2357 31.1934 61.1249 30.9274C61.0141 30.6615 60.8618 30.4316 60.6679 30.2377C60.4739 30.0382 60.2468 29.8831 59.9864 29.7723C59.7316 29.6615 59.4546 29.6061 59.1554 29.6061C58.8507 29.6061 58.5681 29.6615 58.3077 29.7723C58.0474 29.8831 57.8202 30.0382 57.6263 30.2377C57.4324 30.4316 57.28 30.6615 57.1692 30.9274C57.064 31.1934 57.0113 31.4842 57.0113 31.8C57.0113 32.1103 57.064 32.4011 57.1692 32.6726C57.28 32.9385 57.4324 33.1712 57.6263 33.3706C57.8202 33.5645 58.0474 33.7169 58.3077 33.8277C58.5681 33.9385 58.8507 33.9939 59.1554 33.9939Z" fill="#B4BEE4"/>
    <path d="M65.0936 34.7086V28.8914H65.9413L69.1906 33.2127V28.8914H70.0133V34.7086H69.2488L65.9247 30.2543V34.7086H65.0936Z" fill="#B4BEE4"/>
    <path d="M75.1686 34.7917C74.7032 34.7917 74.2545 34.7003 73.8223 34.5175C73.3902 34.3346 73.0079 34.077 72.6755 33.7446L73.2074 33.1296C73.5232 33.4399 73.8445 33.6698 74.1714 33.8194C74.5038 33.969 74.85 34.0438 75.2101 34.0438C75.4927 34.0438 75.7392 34.005 75.9497 33.9274C76.1658 33.8443 76.332 33.728 76.4484 33.5784C76.5647 33.4288 76.6229 33.2598 76.6229 33.0715C76.6229 32.8111 76.5315 32.6116 76.3486 32.4731C76.1658 32.3346 75.8639 32.2294 75.4428 32.1573L74.4705 31.9994C73.9387 31.9053 73.5398 31.7335 73.2738 31.4842C73.0135 31.2349 72.8833 30.9025 72.8833 30.487C72.8833 30.1546 72.9719 29.8637 73.1492 29.6144C73.3265 29.3596 73.5758 29.1629 73.8971 29.0244C74.224 28.8859 74.6007 28.8166 75.0273 28.8166C75.4484 28.8166 75.8611 28.8859 76.2655 29.0244C76.6755 29.1573 77.0439 29.3512 77.3708 29.6061L76.8888 30.2709C76.2628 29.7945 75.6284 29.5562 74.9858 29.5562C74.7309 29.5562 74.5093 29.5922 74.3209 29.6643C74.1326 29.7363 73.9858 29.8388 73.8805 29.9717C73.7752 30.0992 73.7226 30.2488 73.7226 30.4205C73.7226 30.6587 73.8029 30.8416 73.9636 30.969C74.1243 31.0909 74.3902 31.1795 74.7614 31.2349L75.7004 31.3928C76.3154 31.4925 76.7669 31.6726 77.055 31.933C77.3431 32.1934 77.4871 32.5507 77.4871 33.005C77.4871 33.3596 77.3902 33.6726 77.1963 33.944C77.0024 34.21 76.7309 34.4177 76.3819 34.5673C76.0329 34.7169 75.6284 34.7917 75.1686 34.7917Z" fill="#B4BEE4"/>
    <path d="M82.6585 34.8C82.1543 34.8 81.7166 34.6947 81.3454 34.4842C80.9742 34.2737 80.6889 33.9773 80.4895 33.595C80.29 33.2072 80.1903 32.7501 80.1903 32.2238V28.8914H81.0629V32.2238C81.0629 32.5839 81.1266 32.897 81.254 33.1629C81.387 33.4288 81.5726 33.6338 81.8108 33.7778C82.0546 33.9219 82.3371 33.9939 82.6585 33.9939C82.9909 33.9939 83.2762 33.9219 83.5144 33.7778C83.7526 33.6338 83.9355 33.4288 84.0629 33.1629C84.1959 32.897 84.2623 32.5839 84.2623 32.2238V28.8914H85.1349V32.2238C85.1349 32.7501 85.0324 33.2072 84.8274 33.595C84.628 33.9773 84.3427 34.2737 83.9715 34.4842C83.6003 34.6947 83.1626 34.8 82.6585 34.8Z" fill="#B4BEE4"/>
    <path d="M88.2088 34.7086V28.8914H89.0814V33.9357H92.4304V34.7086H88.2088Z" fill="#B4BEE4"/>
    <path d="M95.678 34.7086V29.6643H93.6337V28.8914H98.5949V29.6643H96.5506V34.7086H95.678Z" fill="#B4BEE4"/>
    <path d="M101.32 34.7086V28.8914H102.192V34.7086H101.32Z" fill="#B4BEE4"/>
    <path d="M105.375 34.7086V28.8914H106.223L109.472 33.2127V28.8914H110.295V34.7086H109.53L106.206 30.2543V34.7086H105.375Z" fill="#B4BEE4"/>
    <path d="M116.273 34.8C115.846 34.8 115.447 34.7224 115.076 34.5673C114.711 34.4122 114.389 34.1989 114.112 33.9274C113.835 33.6504 113.619 33.3319 113.464 32.9717C113.309 32.6061 113.231 32.2155 113.231 31.8C113.231 31.3845 113.306 30.9967 113.456 30.6366C113.611 30.2709 113.827 29.9524 114.104 29.6809C114.381 29.4039 114.702 29.1878 115.068 29.0327C115.434 28.8776 115.83 28.8 116.256 28.8C116.716 28.8 117.151 28.8886 117.561 29.0659C117.971 29.2432 118.317 29.4898 118.6 29.8055L118.001 30.3873C117.791 30.138 117.531 29.9468 117.22 29.8139C116.916 29.6753 116.594 29.6061 116.256 29.6061C115.952 29.6061 115.669 29.6615 115.409 29.7723C115.154 29.8831 114.929 30.0382 114.736 30.2377C114.542 30.4316 114.389 30.6615 114.278 30.9274C114.173 31.1934 114.121 31.4842 114.121 31.8C114.121 32.1103 114.173 32.4011 114.278 32.6726C114.389 32.9385 114.542 33.1712 114.736 33.3706C114.935 33.5701 115.165 33.7252 115.425 33.836C115.686 33.9468 115.968 34.0022 116.273 34.0022C116.616 34.0022 116.927 33.9302 117.204 33.7862C117.486 33.6421 117.716 33.4454 117.893 33.1961C118.071 32.9413 118.179 32.656 118.218 32.3402H116.281V31.5756H119.132V31.8748C119.132 32.2903 119.06 32.6753 118.916 33.0299C118.772 33.3845 118.569 33.6947 118.309 33.9607C118.054 34.2266 117.752 34.4344 117.403 34.5839C117.054 34.728 116.677 34.8 116.273 34.8Z" fill="#B4BEE4"/>
  </g>
  <defs>
    <linearGradient id="paint0_linear_205_75" x1="9.84063" y1="29.4" x2="43.096" y2="10.2" gradientUnits="userSpaceOnUse">
      <stop stop-color="#0538FF"/>
      <stop offset="1" stop-color="#70E3F5"/>
    </linearGradient>
  </defs>
</svg>
