<svg xmlns="http://www.w3.org/2000/svg" viewBox="54.3477 0 701.4727 809.4727" width="935.297px" height="1079.3px">
  <defs>
    <clipPath id="646e7b7675">
      <path d="M 54 201 L 407 201 L 407 809.472656 L 54 809.472656 Z M 54 201 " clip-rule="nonzero"/>
    </clipPath>
    <clipPath id="9872a0046d">
      <path d="M 405 201 L 756 201 L 756 809.472656 L 405 809.472656 Z M 405 201 " clip-rule="nonzero"/>
    </clipPath>
    <clipPath id="d1c9bec472">
      <path d="M 165.226562 125.992188 L 644.773438 125.992188 L 644.773438 684.214844 L 165.226562 684.214844 Z M 165.226562 125.992188 " clip-rule="nonzero"/>
    </clipPath>
    <clipPath id="dc4723e93a">
      <path d="M 405 125.992188 L 644.773438 265.496094 L 644.773438 544.503906 L 405 684.007812 L 165.226562 544.503906 L 165.226562 265.496094 Z M 405 125.992188 " clip-rule="nonzero"/>
    </clipPath>
    <clipPath id="c8cc4d5443">
      <path d="M 189.714844 193.371094 L 620.285156 193.371094 L 620.285156 623.941406 L 189.714844 623.941406 Z M 189.714844 193.371094 " clip-rule="nonzero"/>
    </clipPath>
    <clipPath id="6900108267">
      <path d="M 405 193.371094 C 286.101562 193.371094 189.714844 289.757812 189.714844 408.65625 C 189.714844 527.554688 286.101562 623.941406 405 623.941406 C 523.898438 623.941406 620.285156 527.554688 620.285156 408.65625 C 620.285156 289.757812 523.898438 193.371094 405 193.371094 Z M 405 193.371094 " clip-rule="nonzero"/>
    </clipPath>
    <clipPath id="c65fc43451">
      <path d="M 285.472656 335 L 406 335 L 406 542.78125 L 285.472656 542.78125 Z M 285.472656 335 " clip-rule="nonzero"/>
    </clipPath>
    <clipPath id="a9695e0100">
      <path d="M 286 267.21875 L 524 267.21875 L 524 405 L 286 405 Z M 286 267.21875 " clip-rule="nonzero"/>
    </clipPath>
    <clipPath id="c39b6f1380">
      <path d="M 405 335 L 524.871094 335 L 524.871094 542.78125 L 405 542.78125 Z M 405 335 " clip-rule="nonzero"/>
    </clipPath>
  </defs>
  <g clip-path="url(#646e7b7675)">
    <path fill="#988f85" d="M 405.058594 808.949219 L 406.011719 809.472656 L 405.058594 810.042969 L 55.488281 608.175781 L 54.347656 607.507812 L 54.347656 202.535156 L 55.488281 201.871094 L 405.058594 403.738281 L 406.011719 403.164062 L 406.152344 403.308594 L 405.058594 403.925781 Z M 405.058594 808.949219 " fill-opacity="1" fill-rule="nonzero"/>
  </g>
  <path fill="#cec2b6" d="M 754.679688 201.871094 L 406.011719 403.164062 L 405.058594 403.738281 L 55.488281 201.871094 L 405.058594 0 Z M 754.679688 201.871094 " fill-opacity="1" fill-rule="nonzero"/>
  <g clip-path="url(#9872a0046d)">
    <path fill="#675f57" d="M 755.820312 202.535156 L 755.820312 607.507812 L 754.679688 608.175781 L 406.011719 809.472656 L 405.058594 808.949219 L 405.058594 403.925781 L 406.152344 403.308594 L 754.871094 201.964844 Z M 755.820312 202.535156 " fill-opacity="1" fill-rule="nonzero"/>
  </g>
  <g clip-path="url(#d1c9bec472)">
    <g clip-path="url(#dc4723e93a)">
      <path fill="#d65326" d="M 165.226562 125.992188 L 644.773438 125.992188 L 644.773438 684.214844 L 165.226562 684.214844 Z M 165.226562 125.992188 " fill-opacity="1" fill-rule="nonzero"/>
    </g>
  </g>
  <g clip-path="url(#c8cc4d5443)">
    <g clip-path="url(#6900108267)">
      <path fill="#ec8120" d="M 189.714844 193.371094 L 620.285156 193.371094 L 620.285156 623.941406 L 189.714844 623.941406 Z M 189.714844 193.371094 " fill-opacity="1" fill-rule="nonzero"/>
    </g>
  </g>
  <g clip-path="url(#c65fc43451)">
    <path fill="#988f85" d="M 405.019531 542.429688 L 405.34375 542.609375 L 405.019531 542.804688 L 286.089844 474.125 L 285.703125 473.898438 L 285.703125 336.121094 L 286.089844 335.894531 L 405.019531 404.574219 L 405.34375 404.378906 L 405.390625 404.429688 L 405.019531 404.636719 Z M 405.019531 542.429688 " fill-opacity="1" fill-rule="nonzero"/>
  </g>
  <g clip-path="url(#a9695e0100)">
    <path fill="#cec2b6" d="M 523.964844 335.894531 L 405.34375 404.378906 L 405.019531 404.574219 L 286.089844 335.894531 L 405.019531 267.21875 Z M 523.964844 335.894531 " fill-opacity="1" fill-rule="nonzero"/>
  </g>
  <g clip-path="url(#c39b6f1380)">
    <path fill="#675f57" d="M 524.351562 336.121094 L 524.351562 473.898438 L 523.964844 474.125 L 405.34375 542.609375 L 405.019531 542.429688 L 405.019531 404.636719 L 405.390625 404.429688 L 524.027344 335.929688 Z M 524.351562 336.121094 " fill-opacity="1" fill-rule="nonzero"/>
  </g>
</svg>
