<svg xmlns="http://www.w3.org/2000/svg" width="150" height="150" viewBox="0 0 150 150">
<g>
<path d="M 133.44,37.10 L 135.13,38.10 L 135.50,38.32 L 136.10,38.68 L 136.75,39.08 L 139.00,40.48 L 139.00,77.59 L 139.00,81.12 L 139.00,82.84 L 138.99,85.99 L 138.98,87.53 L 138.97,90.33 L 138.97,91.69 L 138.95,94.15 L 138.94,95.35 L 138.91,97.50 L 138.90,98.54 L 138.86,100.41 L 138.83,102.21 L 138.73,105.03 L 138.67,106.33 L 138.53,108.28 L 138.45,109.16 L 138.25,110.42 L 138.15,110.98 L 137.89,111.71 L 137.43,112.43 L 137.00,112.86 L 136.08,113.54 L 135.03,114.00 L 134.94,114.00 L 134.52,114.16 L 134.26,114.27 L 133.40,114.71 L 132.91,114.97 L 131.51,115.75 L 130.73,116.18 L 128.67,117.36 L 127.55,118.01 L 124.73,119.67 L 123.97,120.11 L 122.28,121.10 L 121.41,121.62 L 119.49,122.75 L 118.51,123.33 L 116.34,124.61 L 115.23,125.27 L 112.81,126.71 L 111.56,127.44 L 108.87,129.05 L 104.50,131.64 L 103.95,131.97 L 102.43,132.84 L 101.63,133.30 L 99.77,134.35 L 94.00,137.52 L 93.17,137.96 L 91.73,138.74 L 91.04,139.12 L 89.82,139.79 L 88.64,140.44 L 86.72,141.55 L 85.78,142.10 L 83.97,143.23 L 80.85,145.25 L 80.12,145.73 L 78.58,146.47 L 78.21,146.62 L 77.58,146.82 L 76.85,146.94 L 76.75,146.93 L 76.13,146.66 L 75.74,146.49 L 75.51,146.37 L 75.78,135.02 L 76.06,123.33 L 96.53,111.54 L 117.00,99.76 L 117.00,52.11 L 127.04,46.43 L 130.91,44.14 L 133.15,42.72 L 134.03,42.11 L 135.61,40.98 L 136.08,40.57 L 136.49,40.19 L 136.60,40.04 L 136.76,39.79 L 136.74,39.72 L 136.10,39.04 L 135.22,38.35 L 134.61,37.92 L 133.27,37.02 L 132.64,36.63 M 26.97,118.75 L 28.04,119.37 L 30.27,120.67 L 31.51,121.39 L 34.08,122.88 L 35.47,123.68 L 41.23,127.01 L 44.29,128.77 L 50.47,132.33 L 53.50,134.07 L 66.34,141.45 L 66.01,141.26 L 64.79,140.58 L 62.15,139.10 L 59.45,137.57 L 53.50,134.15 L 50.47,132.41 L 44.29,128.82 L 41.23,127.05 L 35.47,123.70 L 34.08,122.90 L 31.51,121.40 L 30.27,120.68 L 28.04,119.38 L 26.97,118.75 L 25.16,117.69 L 23.00,116.43 L 25.16,117.69 M 97.00,87.57 L 87.03,93.29 L 84.33,94.82 L 83.12,95.51 L 80.78,96.80 L 79.83,97.32 L 78.09,98.26 L 77.52,98.55 L 77.01,98.81 L 76.84,98.88 L 76.57,99.00 L 76.53,99.00 L 76.42,98.77 L 76.36,98.39 L 76.32,98.09 L 76.20,96.67 L 76.16,95.63 L 76.07,93.35 L 76.04,91.97 L 76.00,89.09 L 76.00,76.03 L 79.75,73.68 L 81.74,72.47 L 83.43,71.47 L 84.38,70.92 L 88.39,68.61 L 90.25,67.58 L 97.00,63.83 M 79.39,6.45 L 80.02,6.74 L 81.53,7.50 L 82.33,7.91 L 84.22,8.92 L 85.22,9.45 L 87.55,10.73 L 88.77,11.40 L 91.58,12.98 L 93.04,13.81 L 96.39,15.71 L 98.13,16.70 L 102.06,18.95 L 104.10,20.13 L 108.67,22.76 L 111.03,24.12 L 116.29,27.15 L 125.00,32.18 L 125.26,32.34 L 123.60,31.38 L 122.43,30.71 L 120.01,29.32 L 118.68,28.55 L 113.09,25.34 L 110.03,23.57 L 103.79,19.98 L 100.65,18.17 L 91.64,13.06 L 88.88,11.52 L 87.60,10.82 L 85.12,9.47 L 84.01,8.87 L 81.87,7.73 L 80.96,7.26 L 79.36,6.44 M 74.30,5.22 L 74.61,5.06 L 75.52,5.06 L 75.65,5.08 L 74.62,5.26 L 73.71,5.64 L 73.45,5.88 L 73.74,5.61 Z" fill="rgba(103,95,87,1)"/>
<path d="M 25.31,33.96 L 23.54,35.05 L 22.74,35.55 L 21.19,36.54 L 20.52,36.98 L 19.23,37.84 L 18.70,38.21 L 17.71,38.92 L 17.34,39.20 L 16.69,39.72 L 16.51,39.90 L 16.24,40.22 L 16.26,40.28 L 17.10,41.08 L 18.28,41.95 L 19.13,42.50 L 20.96,43.69 L 22.04,44.36 L 24.32,45.73 L 25.55,46.44 L 34.50,51.61 L 34.77,75.63 L 35.03,99.65 L 55.27,111.33 L 60.73,114.46 L 63.20,115.85 L 65.62,117.20 L 66.73,117.81 L 68.89,118.99 L 69.86,119.51 L 71.70,120.49 L 72.48,120.90 L 73.95,121.65 L 74.53,121.94 L 75.57,122.43 L 75.91,122.57 L 76.45,122.78 L 76.52,122.76 L 77.13,122.47 L 77.92,122.07 L 78.48,121.76 L 79.71,121.09 L 80.48,120.67 L 82.10,119.76 L 83.04,119.24 L 85.00,118.14 L 86.09,117.52 L 88.33,116.26 L 89.53,115.57 L 89.89,115.37 L 76.06,123.33 L 75.78,135.02 L 75.50,146.71 L 53.50,134.07 L 50.47,132.33 L 44.29,128.77 L 41.23,127.01 L 35.47,123.68 L 34.08,122.88 L 31.51,121.39 L 30.27,120.67 L 28.04,119.37 L 26.97,118.75 L 25.16,117.69 L 23.00,116.43 L 14.50,111.42 L 14.24,75.94 L 13.98,40.45 L 30.24,31.02 L 30.46,30.89 M 55.86,64.11 L 56.24,64.29 L 56.52,64.43 L 57.83,65.12 L 58.74,65.62 L 60.72,66.71 L 61.89,67.36 L 64.32,68.74 L 65.63,69.50 L 69.42,71.64 L 71.71,72.89 L 72.68,73.38 L 74.45,74.29 L 75.06,74.57 L 75.62,74.81 L 75.82,74.89 L 76.16,75.00 L 76.23,75.00 L 77.25,74.66 L 78.43,74.12 L 79.22,73.72 L 80.90,72.86 L 81.87,72.34 L 83.36,71.52 L 81.74,72.47 L 79.75,73.68 L 76.00,76.03 L 76.00,89.09 L 76.04,91.97 L 76.07,93.35 L 76.16,95.63 L 76.20,96.67 L 76.32,98.09 L 76.36,98.39 L 76.42,98.76 L 76.24,98.82 L 75.87,98.93 L 75.78,98.92 L 75.01,98.69 L 74.21,98.35 L 73.69,98.10 L 72.57,97.53 L 71.90,97.18 L 70.50,96.42 L 69.72,95.98 L 66.38,94.07 L 64.52,92.95 L 60.69,90.62 L 58.75,89.37 L 55.00,86.97 L 55.00,75.49 L 55.04,71.03 L 55.11,68.41 L 55.16,67.37 L 55.27,65.49 L 55.34,64.91 L 55.41,64.39 L 55.44,64.23 L 55.51,64.00 L 55.55,64.00 M 63.50,11.77 L 62.32,12.44 L 57.34,15.30 L 55.00,16.66 L 52.98,17.84 L 51.39,18.76 L 50.49,19.28 L 46.66,21.50 L 44.51,22.75 L 42.80,23.74 L 44.22,22.91 L 46.46,21.61 L 50.42,19.32 L 51.34,18.79 L 52.96,17.84 L 55.00,16.66 L 57.34,15.30 L 62.32,12.44 L 63.50,11.77 L 65.58,10.59 L 68.00,9.24 L 65.58,10.59 Z" fill="rgba(152,143,133,1)"/>
<path d="M 117.00,99.78 L 97.27,111.14 L 94.56,112.70 L 89.53,115.57 L 88.33,116.26 L 86.09,117.52 L 85.00,118.14 L 84.77,118.27 L 85.38,117.92 L 87.61,116.66 L 88.82,115.97 L 93.86,113.09 L 96.59,111.51 L 116.50,100.02 L 117.00,75.51 M 55.25,111.31 L 60.71,114.45 L 61.10,114.67 L 60.73,114.46 L 55.27,111.33 L 35.05,99.66 M 74.21,98.35 L 73.69,98.10 L 72.56,97.53 L 71.89,97.18 L 70.72,96.54 L 71.90,97.18 L 72.57,97.53 L 73.69,98.10 L 74.21,98.35 L 75.01,98.69 L 75.78,98.92 L 75.01,98.69 M 76.90,5.27 L 77.32,5.45 L 78.56,6.04 L 79.24,6.37 L 80.96,7.26 L 81.87,7.73 L 84.01,8.87 L 85.12,9.47 L 87.60,10.82 L 88.88,11.52 L 91.64,13.06 L 100.65,18.17 L 103.79,19.98 L 110.03,23.57 L 113.09,25.34 L 118.68,28.55 L 120.01,29.32 L 122.43,30.71 L 123.60,31.38 L 125.64,32.55 L 126.61,33.11 L 128.19,34.01 L 129.95,35.02 L 130.84,35.53 L 132.48,36.53 L 133.27,37.02 L 134.61,37.92 L 135.22,38.35 L 136.10,39.04 L 136.74,39.72 L 136.76,39.79 L 136.60,40.04 L 136.49,40.19 L 136.08,40.57 L 135.61,40.98 L 134.03,42.11 L 133.15,42.72 L 130.91,44.14 L 127.04,46.43 L 117.00,52.11 L 117.00,52.51 L 116.96,51.83 L 116.92,51.50 L 116.84,51.00 L 116.79,51.00 L 116.28,50.79 L 115.60,50.45 L 115.11,50.18 L 114.02,49.60 L 113.34,49.23 L 111.90,48.43 L 111.06,47.96 L 109.31,46.98 L 108.34,46.43 L 106.33,45.29 L 105.25,44.67 L 100.73,42.08 L 98.29,40.65 L 91.21,36.55 L 89.01,35.27 L 87.98,34.68 L 85.98,33.53 L 85.07,33.00 L 83.33,32.00 L 82.57,31.56 L 81.13,30.74 L 80.54,30.41 L 79.47,29.80 L 79.09,29.58 L 78.43,29.21 L 78.28,29.13 L 77.48,28.86 L 76.86,28.81 L 76.46,28.87 L 75.60,29.06 L 75.03,29.26 L 73.81,29.74 L 73.02,30.10 L 71.32,30.93 L 70.25,31.49 L 67.95,32.72 L 66.53,33.50 L 63.51,35.18 L 61.69,36.22 L 59.82,37.28 L 58.79,37.87 L 56.69,39.07 L 55.55,39.73 L 35.04,51.50 L 35.02,75.56 L 35.00,96.75 L 34.77,75.63 L 34.50,51.61 L 25.55,46.44 L 24.32,45.73 L 22.04,44.36 L 20.96,43.69 L 19.13,42.50 L 18.28,41.95 L 17.10,41.08 L 16.26,40.28 L 16.24,40.22 L 16.51,39.90 L 16.69,39.72 L 17.34,39.20 L 17.71,38.92 L 18.70,38.21 L 19.23,37.84 L 20.52,36.98 L 21.19,36.54 L 22.74,35.55 L 23.54,35.05 L 25.31,33.96 L 31.21,30.45 L 35.42,28.01 L 44.51,22.75 L 46.66,21.50 L 50.49,19.28 L 51.39,18.76 L 52.98,17.84 L 55.00,16.66 L 57.34,15.30 L 62.32,12.44 L 63.50,11.77 L 65.58,10.59 L 68.00,9.24 L 69.24,8.55 L 71.46,7.23 L 71.95,6.92 L 72.73,6.41 L 73.45,5.88 L 73.71,5.64 L 74.62,5.26 L 76.10,5.00 L 76.21,5.00 M 70.50,96.42 L 70.49,96.42 L 69.79,96.03 M 69.72,95.98 L 69.71,95.98 L 69.23,95.70 M 97.06,87.54 L 97.00,87.57 L 97.00,85.05 M 55.00,86.97 L 54.94,86.93 L 55.00,84.32 M 86.30,57.65 L 96.50,63.50 L 96.52,64.18 L 94.75,65.11 L 94.44,65.27 L 93.28,65.91 L 92.62,66.27 L 90.93,67.22 L 84.90,70.64 L 83.86,71.24 L 81.87,72.34 L 80.90,72.86 L 79.22,73.72 L 78.43,74.12 L 77.25,74.66 L 76.23,75.00 L 76.16,75.00 L 75.82,74.89 L 75.62,74.81 L 75.06,74.57 L 74.45,74.29 L 72.68,73.38 L 71.71,72.89 L 69.42,71.64 L 65.63,69.50 L 64.32,68.74 L 61.89,67.36 L 60.72,66.71 L 58.74,65.62 L 57.83,65.12 L 56.52,64.43 L 56.24,64.29 L 55.86,64.11 L 55.55,64.00 L 55.51,64.00 L 55.49,64.09 L 55.50,63.58 L 76.09,51.79 Z" fill="rgba(206,194,182,1)"/>
<path d="M 77.48,28.86 L 78.28,29.13 L 78.43,29.21 L 79.09,29.58 L 79.47,29.80 L 80.54,30.41 L 81.13,30.74 L 82.57,31.56 L 83.33,32.00 L 85.07,33.00 L 85.98,33.53 L 87.98,34.68 L 89.01,35.27 L 91.21,36.55 L 98.29,40.65 L 100.73,42.08 L 105.25,44.67 L 106.33,45.29 L 108.34,46.43 L 109.31,46.98 L 111.06,47.96 L 111.90,48.43 L 113.34,49.23 L 114.02,49.60 L 115.11,50.18 L 115.60,50.45 L 116.28,50.79 L 116.79,51.00 L 116.84,51.00 L 116.92,51.50 L 116.96,51.83 L 117.02,52.93 L 117.05,53.55 L 117.10,55.20 L 117.12,56.08 L 117.14,58.20 L 117.15,59.31 L 117.16,61.83 L 117.16,63.13 L 117.14,65.99 L 117.00,75.51 L 116.50,100.02 L 96.59,111.51 L 93.86,113.09 L 88.82,115.97 L 87.61,116.66 L 85.38,117.92 L 84.30,118.53 L 82.36,119.62 L 81.43,120.14 L 79.84,121.03 L 79.09,121.44 L 77.89,122.09 L 77.35,122.38 L 76.62,122.76 L 76.09,122.99 L 76.05,122.99 L 75.56,122.75 L 75.25,122.60 L 74.27,122.07 L 73.72,121.77 L 72.29,120.99 L 71.53,120.57 L 69.73,119.56 L 68.78,119.03 L 66.65,117.83 L 65.55,117.21 L 63.16,115.84 L 60.71,114.45 L 55.25,111.31 L 35.00,99.63 L 35.02,75.56 L 35.04,51.50 L 55.55,39.73 L 56.69,39.07 L 58.79,37.87 L 59.82,37.28 L 61.69,36.22 L 63.51,35.18 L 66.53,33.50 L 67.95,32.72 L 70.25,31.49 L 71.32,30.93 L 73.02,30.10 L 73.81,29.74 L 75.03,29.26 L 75.60,29.06 L 76.46,28.87 L 76.86,28.81 M 76.50,39.50 L 73.49,39.52 L 71.77,39.55 L 71.03,39.59 L 68.33,39.77 L 67.25,39.96 L 65.21,40.41 L 64.22,40.78 L 62.19,41.61 L 60.97,42.22 L 55.12,45.56 L 51.84,47.99 L 50.44,49.38 L 47.77,52.29 L 46.60,54.00 L 44.34,57.61 L 43.28,59.75 L 42.11,62.16 L 41.47,63.54 L 41.21,64.16 L 40.33,66.45 L 40.08,67.54 L 39.69,69.73 L 39.62,71.07 L 39.56,72.46 L 39.55,73.27 L 39.55,74.96 L 39.55,75.95 L 39.69,80.53 L 39.90,82.96 L 40.11,84.02 L 40.59,86.08 L 40.95,87.12 L 41.78,89.25 L 42.35,90.50 L 44.37,94.27 L 45.95,96.69 L 46.85,97.84 L 48.70,100.10 L 49.72,101.15 L 51.80,103.21 L 52.92,104.15 L 55.19,105.97 L 56.38,106.78 L 58.80,108.32 L 60.05,108.98 L 62.58,110.22 L 63.86,110.71 L 66.45,111.61 L 67.75,111.91 L 71.23,112.58 L 73.01,112.71 L 76.58,112.82 L 78.38,112.68 L 81.96,112.27 L 83.73,111.88 L 87.25,110.98 L 88.95,110.36 L 92.31,108.99 L 93.91,108.15 L 97.03,106.35 L 98.48,105.30 L 101.28,103.10 L 102.54,101.87 L 104.95,99.30 L 105.97,97.88 L 109.33,92.42 L 110.99,88.74 L 111.54,86.81 L 112.46,82.89 L 112.66,80.77 L 112.90,76.41 L 112.79,74.00 L 112.47,69.58 L 112.15,67.16 L 111.91,66.11 L 111.37,64.07 L 111.00,63.08 L 110.18,61.09 L 109.63,60.00 L 106.37,54.72 L 103.70,51.37 L 102.19,49.83 L 99.04,46.88 L 97.35,45.62 L 93.91,43.26 L 92.15,42.36 L 88.82,40.83 L 86.87,40.16 L 85.80,39.96 L 83.53,39.65 L 82.03,39.58 L 80.47,39.53 L 79.55,39.52 L 77.63,39.50 Z" fill="rgba(214,83,38,1)"/>
<path d="M 67.75,111.91 L 66.45,111.61 L 63.86,110.71 L 62.58,110.22 L 60.05,108.98 L 58.80,108.32 L 56.38,106.78 L 55.19,105.97 L 52.92,104.15 L 51.80,103.21 L 49.72,101.15 L 48.70,100.10 L 46.85,97.84 L 45.95,96.69 L 44.37,94.27 L 42.35,90.50 L 41.78,89.25 L 40.95,87.12 L 40.59,86.08 L 40.11,84.02 L 39.90,82.96 L 39.69,80.53 L 39.55,75.95 L 39.55,74.96 L 39.55,73.27 L 39.56,72.46 L 39.62,71.07 L 39.69,69.73 L 40.08,67.54 L 40.33,66.45 L 41.21,64.16 L 41.47,63.54 L 42.11,62.16 L 43.28,59.75 L 44.34,57.61 L 46.60,54.00 L 47.77,52.29 L 50.44,49.38 L 51.84,47.99 L 55.12,45.56 L 60.97,42.22 L 62.19,41.61 L 64.22,40.78 L 65.21,40.41 L 67.25,39.96 L 68.33,39.77 L 71.03,39.59 L 71.77,39.55 L 73.49,39.52 L 76.50,39.50 L 77.63,39.50 L 79.55,39.52 L 80.47,39.53 L 82.03,39.58 L 83.53,39.65 L 85.80,39.96 L 86.87,40.16 L 88.82,40.83 L 92.15,42.36 L 93.91,43.26 L 97.35,45.62 L 99.04,46.88 L 102.19,49.83 L 103.70,51.37 L 106.37,54.72 L 109.63,60.00 L 110.18,61.09 L 111.00,63.08 L 111.37,64.07 L 111.91,66.11 L 112.15,67.16 L 112.47,69.58 L 112.79,74.00 L 112.90,76.41 L 112.66,80.77 L 112.46,82.89 L 111.54,86.81 L 110.99,88.74 L 109.33,92.42 L 105.97,97.88 L 104.95,99.30 L 102.54,101.87 L 101.28,103.10 L 98.48,105.30 L 97.03,106.35 L 93.91,108.15 L 92.31,108.99 L 88.95,110.36 L 87.25,110.98 L 83.73,111.88 L 81.96,112.27 L 78.38,112.68 L 76.58,112.82 L 73.01,112.71 L 71.23,112.58 M 87.06,93.27 L 97.06,87.54 L 96.78,75.52 L 96.50,63.50 L 86.30,57.65 L 76.09,51.79 L 65.80,57.69 L 55.50,63.58 L 55.22,75.26 L 54.94,86.93 L 58.72,89.35 L 60.67,90.60 L 64.50,92.94 L 66.37,94.07 L 69.71,95.98 L 70.49,96.42 L 71.89,97.18 L 72.56,97.53 L 73.69,98.10 L 74.21,98.35 L 75.01,98.69 L 75.78,98.92 L 75.87,98.93 L 76.24,98.82 L 76.46,98.75 L 77.06,98.50 L 77.73,98.22 L 79.62,97.29 L 80.64,96.78 L 83.07,95.49 L 84.33,94.81 Z" fill="rgba(236,129,32,1)"/>
</g>
</svg>