<svg xmlns="http://www.w3.org/2000/svg" xml:space="preserve" id="Layer_2" x="0" y="0" version="1.1" viewBox="0 0 1350.4 546.6"><style>.st6{fill:#005061}</style><path d="m348.9 62 26 26.1-85.2 75.9-144-125.9-123.8 126V378l127.7 122.4L313 360.2v-152l91.4-88.6 27.4 28 19.1-107.7zm-83.2 280-117.9 98.8-78.5-79.4V183.5l79.2-82.8 117.2 104.9z" style="fill:#004f61"/><path d="M110.8 187.8v167.7l53.6 50.2 32-30.8-37.5-36.3V208.7l37.5-37.6-34.8-33.5z" style="fill:#39a669"/><path d="m394.3 154.4-36.9 36.1-.5 173.3-76.7 78.2-16.7-16.6-31.5 31.4 51.3 47 122-123.6V164z" style="fill:#3ba569"/><path d="M563 178.2c-52.1 0-94.4 40.5-94.4 90.5s42.3 90.5 94.4 90.5 94.4-40.5 94.4-90.5-42.2-90.5-94.4-90.5m-.4 145.7c-31.5 0-57-25.3-57-56.4s25.5-56.4 57-56.4 57 25.3 57 56.4-25.5 56.4-57 56.4" style="fill:#004f62"/><path d="M758.7 254.2v-30.9c-13.9-4.8-29.4 4.3-43.9 22.9v-22.5h-33.2v129.4h34.6v-65.6c3.1-21.4 16.8-32.5 42.5-33.3" style="fill:#005060"/><path d="m767.2 225.5 53.5 127.7h34.1l54.3-129.1h-33.4l-36.3 89.4-36-88z" style="fill:#005063"/><path d="M1061.5 177.5h33.9v175.2h-33.9zM1128 177.5h33.9v175.2H1128zM1316.7 282.7c0-8.6-1.8-17.2-5.5-25-8.7-18.2-30-43.8-79.4-32.6 0 0-62.8 17.3-39.7 92.5.5 1.5 1.1 3 1.8 4.4 21.6 40.1 83.2 49.7 115.9 11l-18.5-17.2c-29.3 21.5-59.1 16.6-70.2-15.2h95.6zm-94.8-4.4c1.2-13.3 6.8-23.5 19.5-28.5q35.1-8.1 44.7 28.5z" class="st6"/><path d="m230.5 89.2 49.8-47.6 56.5 55.1L304 130l-28.7-27.8-15.8 15.1z" style="fill:#3aa467"/><path d="M978.1 224.1h-20.2c-9.2 0-17.5 0-43.4 16.6l14.8 20c27.4-17 68-18.4 68 17.5h-42.9c-21 0-45.3 17-45.3 38 0 22.1 18.1 40.2 40.2 40.2h15.8c8 0 23.6-3.2 30.4-14.2h4.3l1.2 10.9h31.4v-74.8c-.1-29.9-24.4-54.2-54.3-54.2m18.3 75.9v7.7c0 8.5-4.5 16.4-12 20.3-6.6 3.4-14.7 5-24.9 3.9-5.3-.6-10.3-3.3-13.4-7.6-7.9-11 1.3-23.6 15.1-25.7h35.3v1.4z" class="st6"/></svg>