<svg id="Calque_1" data-name="Calque 1" xmlns="http://www.w3.org/2000/svg" viewBox="0 0 601 251.44"><defs><style>.cls-1{fill:#3675ba;}.cls-2{fill:#2b3c7a;}</style></defs><rect class="cls-1" x="449.6" width="18.27" height="17.91"/><polygon class="cls-2" points="601 0 498.67 0 498.67 17.91 583.09 17.91 583.09 177.55 284.27 177.55 284.27 17.91 449.6 17.91 449.6 0 266.36 0 266.36 195.46 601 195.46 601 0"/><path class="cls-2" d="M150.51,87.08c-4.08-7.13-13.26-11.65-22.88-11.65-21-.14-37.44,12.82-37.44,37.59,0,25.2,15.73,38.31,37,38.17,8-.15,19.24-4.23,23.32-12.68l.87,10.49h16.76V77.18h-17Zm-21.28,47.79c-11.8,0-21.27-8.16-21.27-21.85s9.47-21.71,21.27-21.71C157.21,91.31,157.21,134.87,129.23,134.87Zm-81.15-88c-16,0-32,.14-48.08.14V149H19.23V119H48.08C98.06,119,97.91,46.88,48.08,46.88Zm0,54.48H19.23V65.23H48.08C72.56,65.23,72.71,101.36,48.08,101.36ZM444.59,75c-23.32,0-41.52,15.74-46.17,37.59-4.89,23,6.57,38.31,31.34,38.31,10.93,0,24.12-3.78,33.37-11.65l-9-11.22c-5,4.23-14.1,6.7-20.66,6.7-12.53,0-18.89-6.41-18.16-15.29h56.09C480.48,89.85,468.63,75,444.59,75Zm-25.84,29.72c4.6-9.32,13.46-14,23.07-14,10.2,0,16.5,4.66,15.68,14ZM534.56,76c-9,0-17.1,3.65-25.9,10.78l.91-9.76H493.69l-15.3,72H496l7.8-36.71c2.33-10.93,11.71-20.11,22.64-20.11,11.36,0,15.57,8.31,13.25,19.23l-8,37.59h17.77l8-37.73C562.31,88.69,551.46,76,534.56,76ZM223,108.65l-7.43,19.81-6.85-20.25-10.93-31H177.09l28.71,70.65L192.39,179h19.52L255.77,77.18H236.1Zm178.86-52.6,1.92-9H325.38l-3.84,18.07H372l-67.21,72.84L302.39,149h79.7L386,130.79H333.07Z"/><path class="cls-2" d="M273.9,241.85h-3.65v-28.7h13.32c13.53,0,13.49,19.43,0,19.43H273.9Zm9.67-12.59c8.72,0,8.63-12.79,0-12.79H273.9v12.79Z"/><path class="cls-2" d="M306.86,221.15c6.28,0,10.81,4.34,10.81,10.61s-4.61,10.58-10.81,10.58-10.72-4.3-10.72-10.58S300.7,221.15,306.86,221.15Zm0,3.11a7.47,7.47,0,1,0,7.33,7.5A7.17,7.17,0,0,0,306.9,224.26Z"/><path class="cls-2" d="M323.78,221.6l5.61,16.72,5.45-16.72h2.8l5.49,16.72,5.57-16.72h3.77l-7.2,20.29h-3.94l-2.85-7.54L336.26,227,334,234.35l-2.81,7.54H327.3L320,221.6Z"/><path class="cls-2" d="M374.71,238.73a12.15,12.15,0,0,1-9,3.61c-6.41,0-10.9-4.1-10.9-10.7,0-6.11,4.49-10.49,10.73-10.49s11.14,3.68,10.34,11.72H358.29c.38,3.94,3.6,6.36,7.54,6.36,2.3,0,5.23-.86,6.57-2.5l2.35,2Zm-2.1-8.65c-.12-3.89-2.89-5.9-6.95-5.9-3.6,0-6.7,2-7.37,5.9Z"/><path class="cls-2" d="M384.09,224.59a7,7,0,0,1,6.37-3.44,8.27,8.27,0,0,1,4.81,1.59l-1.55,2.87a5.77,5.77,0,0,0-3.6-1.14,5.88,5.88,0,0,0-6.07,6.06v11.32h-3.44V221.64h3.18Z"/><path class="cls-2" d="M416.3,238.73a12.16,12.16,0,0,1-9,3.61c-6.41,0-10.89-4.1-10.89-10.7,0-6.11,4.48-10.49,10.73-10.49s11.14,3.68,10.34,11.72H399.88c.37,3.94,3.6,6.36,7.54,6.36,2.3,0,5.23-.86,6.57-2.5l2.35,2Zm-2.1-8.65c-.12-3.89-2.89-5.9-6.95-5.9-3.6,0-6.7,2-7.37,5.9Z"/><path class="cls-2" d="M442.6,213.11v28.74h-3.27l-.17-3.73a8.91,8.91,0,0,1-7.74,4.22c-5.91,0-10.48-3.69-10.48-10.62s4.57-10.57,10.48-10.57c2.88,0,6.24,1.39,7.7,4.14V213.15h3.44Zm-18.26,18.57c0,5,3.31,7.46,7.33,7.46a7.42,7.42,0,0,0-.05-14.84A7,7,0,0,0,424.34,231.68Z"/><path class="cls-2" d="M463.29,225.2c1.5-2.74,5.11-4,8-4,5.9,0,9.88,3.77,9.88,10.57s-4.61,10.58-10.51,10.58a8.15,8.15,0,0,1-7.37-3.93l-.17,3.48h-3.23v-28.7h3.4Zm.21,6.48c0,4.43,2.8,7.42,6.91,7.42a7,7,0,0,0,7.28-7.38c0-5-3.26-7.34-7.28-7.34S463.5,227.34,463.5,231.68Z"/><path class="cls-2" d="M491,251.44h-3.77l4.36-9.88-8.38-20h3.94l4.06,10.49,2.3,5.82,2.18-5.78,4.57-10.53H504Z"/><path class="cls-2" d="M522.17,238.53h16v3.32H518.49v-28.7h3.68Z"/><path class="cls-2" d="M544.33,251.44h-3.77l4.35-9.88-8.37-20h3.93l4.07,10.49,2.3,5.82,2.18-5.78,4.56-10.53h3.77Z"/><path class="cls-2" d="M565,224.59a7,7,0,0,1,6.37-3.44,8.3,8.3,0,0,1,4.82,1.59l-1.55,2.87a5.8,5.8,0,0,0-3.61-1.14,5.89,5.89,0,0,0-6.07,6.06v11.32H561.5V221.64h3.18Z"/><path class="cls-2" d="M595.63,241.85l-.08-3.57a8.87,8.87,0,0,1-7.63,4.06c-5.94,0-10.59-4-10.59-10.62,0-6.84,4.77-10.57,10.63-10.57,3.27,0,6.08,1.27,7.67,4.14l0-3.69H599v20.25Zm-15-10a7.22,7.22,0,0,0,7.45,7.42c10,0,10-15,0-14.93A7.13,7.13,0,0,0,580.64,231.85Z"/></svg>