<svg width="83" height="29" viewBox="0 0 83 29" fill="none" xmlns="http://www.w3.org/2000/svg">
  <path d="M83 18.3206H80.5138V12.5457C80.5138 12.5226 80.3951 12.1928 80.3678 12.133C80.0173 11.358 78.9146 11.2505 78.3066 11.7881C78.2 11.8821 77.8663 12.4357 77.8663 12.5457V18.3206H75.3801V12.5457C75.3801 12.4294 75.0874 11.8654 74.9711 11.7571C74.5139 11.3285 73.6293 11.3843 73.173 11.7881C73.0663 11.8821 72.7327 12.4357 72.7327 12.5457V18.3206H70.2464V9.47894H72.7327C72.7647 9.47894 72.6765 10.0397 72.7728 10.1162C73.9862 8.86719 76.2992 8.96596 77.3466 10.3559C77.6394 10.195 77.815 9.9489 78.1133 9.7649C79.6404 8.82178 82.0071 9.11252 82.7169 10.9143C82.781 11.0776 82.9984 11.7842 82.9984 11.9092V18.3214L83 18.3206Z" fill="#333333"/>
  <path d="M53.6464 4.85895V10.1958C55.0949 8.80346 57.9877 8.8871 58.8747 10.8578C58.9485 11.0219 59.1803 11.6949 59.1803 11.8288V18.3206H56.8144C56.8055 18.3206 56.6941 18.2099 56.6941 18.2012V12.5457C56.6941 12.5122 56.4855 12.0677 56.4406 12.0008C55.8896 11.1836 54.4949 11.3699 53.9319 12.1123C53.887 12.1713 53.6464 12.5958 53.6464 12.6253V18.3206H51.1602V4.85895H53.6464Z" fill="#333333"/>
  <path d="M63.9924 16.0903H68.8846V18.3206H60.3833V16.6877L65.5571 11.3118C66.7833 10.0517 66.1915 8.26739 64.2803 8.53025C63.5023 8.63699 63.0123 9.46699 63.0299 10.1958H60.3833C60.5461 8.43148 61.6417 6.8551 63.4141 6.39549C67.4739 5.34325 70.5239 8.99384 67.4819 12.427C66.3751 13.6768 65.0422 14.7784 63.9924 16.0903Z" fill="#333333"/>
  <path d="M25.3756 3.90469L34.9628 13.5015L25.3066 23.0944C25.1093 22.8697 23.9688 21.8932 23.9696 21.706L24.0097 21.5881L32.1509 13.5015L24.0073 5.41574C23.9536 5.356 23.9752 5.31936 24.0073 5.25802C24.1878 4.90993 25.1157 4.29101 25.3756 3.90469Z" fill="#FF7950"/>
  <path d="M15.0697 0.000796112V0L15.0705 0.000796112H15.0697Z" fill="#FF7950"/>
  <path fill-rule="evenodd" clip-rule="evenodd" d="M15.0697 0.000796112H13.0655V10.9932C12.4701 11.0073 11.8752 10.9986 11.282 10.9899C9.46148 10.9632 7.65761 10.9368 5.90758 11.5707C-0.574267 13.9181 -2.06681 22.3583 3.15829 26.8461C7.71932 30.7635 14.8741 29.1179 17.3041 23.6862C18.1819 21.7246 18.1533 19.7308 18.1239 17.6743C18.116 17.1244 18.1081 16.5701 18.1174 16.0106H25.3355L21.8122 19.5664C21.7938 19.6684 23.0963 20.962 23.1989 20.9437L30.1475 14.0193H8.37296C6.92854 14.0193 4.99329 15.3232 4.17684 16.4631C0.339223 21.8207 6.54357 28.4719 12.1761 25.1248C13.4874 24.3457 15.0697 22.3217 15.0697 20.7501V16.0098H16.1132C16.0963 16.5933 16.1066 17.1783 16.1168 17.7612C16.1518 19.7535 16.1864 21.7214 15.1347 23.5221C12.6284 27.8147 6.3952 28.1986 3.40771 24.2079C-0.0545643 19.5832 3.2425 13.1678 8.93517 12.9846L30.1475 12.983L23.2101 6.05537L21.8082 7.44774L25.3355 10.9924H18.1174V0H16.1124V10.9924H15.0697V0.000796112ZM13.0647 20.5111V16.0106H8.53338C7.24214 16.0106 5.71191 17.442 5.28363 18.5978C3.70207 22.8689 9.34742 25.9978 12.1809 22.5009C12.5114 22.0931 13.0647 21.0185 13.0647 20.5111Z" fill="#FF7950"/>
  <path fill-rule="evenodd" clip-rule="evenodd" d="M43.8619 22.383V17.6045C44.9879 18.7165 46.7852 18.7388 48.115 17.9653C50.12 16.7992 50.5346 13.9372 49.7976 11.9076C48.9009 9.43905 45.9784 8.34539 43.8627 10.1161C43.8506 10.073 43.8577 9.92059 43.8645 9.77562C43.8716 9.62312 43.8783 9.47888 43.8619 9.47888H41.3757V22.383H43.8619ZM45.1924 16.3229C48.5264 16.7825 48.4077 10.9056 45.2045 11.4106C44.8059 11.4735 44.0199 11.9506 43.898 12.3425C43.8178 12.6014 43.8074 15.0158 43.8659 15.3304C43.9549 15.8083 44.7441 16.2608 45.1924 16.3229Z" fill="#333333"/>
</svg>
