<svg xmlns="http://www.w3.org/2000/svg" viewBox="28.76 29.37 325.01 97.28">
  <circle cx="77.4" cy="78.01" r="48.64" style="fill:#e84127" transform="matrix(1, 0, 0, 1, 0, 3.552713678800501e-15)"/>
  <path d="M77.4,78l3.82,3.82a7,7,0,1,1-10,10l-1.93-1.93L67.15,92,69.08,94a10.13,10.13,0,0,0,11,2.19,10.11,10.11,0,0,0,6.24-9.35,10.12,10.12,0,0,0-3-7.15l-3.82-3.82L77.4,78Z" style="fill:#fff" transform="matrix(1, 0, 0, 1, 0, 3.552713678800501e-15)"/>
  <path d="M82.69,72.71l3.81,3.81A14.52,14.52,0,1,1,66,97.06l-1.95-2-2.17,2.17,1.95,2A17.59,17.59,0,1,0,88.67,74.35l-3.81-3.81-2.17,2.17Z" style="fill:#fff" transform="matrix(1, 0, 0, 1, 0, 3.552713678800501e-15)"/>
  <path d="M77.4,78l-3.81-3.82a6.88,6.88,0,0,1-1.53-2.28,7.07,7.07,0,0,1-.54-2.7,7,7,0,0,1,.54-2.7,6.92,6.92,0,0,1,1.53-2.29,7,7,0,0,1,10,0l1.61,1.61,2.17-2.17-1.61-1.61a10.12,10.12,0,0,0-14.3,0,10.11,10.11,0,0,0-2.2,11,10,10,0,0,0,2.2,3.28l3.81,3.82L77.4,78Z" style="fill:#fff" transform="matrix(1, 0, 0, 1, 0, 3.552713678800501e-15)"/>
  <path d="M72.12,83.32,68.3,79.51A14.52,14.52,0,1,1,88.84,59l1.55,1.54,2.17-2.17L91,56.8a17.53,17.53,0,0,0-24.88,0,17.58,17.58,0,0,0,0,24.88l3.81,3.81,2.18-2.17Z" style="fill:#fff" transform="matrix(1, 0, 0, 1, 0, 3.552713678800501e-15)"/>
  <path d="M98.32,99A2.35,2.35,0,1,1,96,96.66,2.35,2.35,0,0,1,98.32,99Z" style="fill:#fff" transform="matrix(1, 0, 0, 1, 0, 3.552713678800501e-15)"/>
  <path d="M154.16,87.9l3.57-4.24a14.21,14.21,0,0,0,9.48,3.78c3.11,0,4.7-1.43,4.7-3.23,0-2.06-1.68-2.69-6.08-3.7-6.09-1.38-10.41-3.1-10.41-8.68,0-5.33,4.36-9,10.66-9a16.65,16.65,0,0,1,11.29,4l-3.23,4.45a13.35,13.35,0,0,0-8.23-3.19c-2.64,0-4.24,1.39-4.24,3.11,0,2.1,1.72,2.77,6.17,3.77,6.21,1.39,10.33,3.24,10.33,8.57,0,5.5-4.16,9.15-11.21,9.15A18.5,18.5,0,0,1,154.16,87.9Z" style="fill:#443244" transform="matrix(1, 0, 0, 1, 0, 3.552713678800501e-15)"/>
  <path d="M205.66,70.48v21.7h-6.12V89.45A7.73,7.73,0,0,1,193,92.69c-4.7,0-8.06-3.49-8.06-8.4V70.48h5.92V83c0,2.69,1.68,4.53,4.11,4.53a4.31,4.31,0,0,0,4.53-4.19l0,.12v-13Z" style="fill:#443244" transform="matrix(1, 0, 0, 1, 0, 3.552713678800501e-15)"/>
  <path d="M226.52,90.8a7.92,7.92,0,0,1-5,1.89A6.3,6.3,0,0,1,215,86.06V75.44h-3v-5h3v-6h5.88v6h4.7v5h-4.7v9.65A2.21,2.21,0,0,0,223,87.52a3.11,3.11,0,0,0,2.09-.71Z" style="fill:#443244" transform="matrix(1, 0, 0, 1, 0, 3.552713678800501e-15)"/>
  <path d="M253.19,70.48v21.7h-6.12V89.45a7.74,7.74,0,0,1-6.55,3.24c-4.7,0-8.06-3.49-8.06-8.4V70.48h5.92V83c0,2.69,1.68,4.53,4.11,4.53A4.31,4.31,0,0,0,247,83.33l0,.12v-13Z" style="fill:#443244" transform="matrix(1, 0, 0, 1, 0, 3.552713678800501e-15)"/>
  <path d="M281.89,78.37V92.18H276V79.68c0-2.69-1.68-4.54-4.11-4.54a4.32,4.32,0,0,0-4.53,4.2l-.05-.13v13h-6.12V70.48h6.12v2.73A7.74,7.74,0,0,1,273.83,70C278.53,70,281.89,73.46,281.89,78.37Z" style="fill:#443244" transform="matrix(1, 0, 0, 1, 0, 3.552713678800501e-15)"/>
  <path d="M353.77,78.37V92.23h-5.88V79.42c0-2.52-1.59-4.28-3.86-4.28a3.93,3.93,0,0,0-4.2,4V92.23H334V79.42c0-2.52-1.6-4.28-3.82-4.28a3.91,3.91,0,0,0-4.2,4V92.18h-6.13V70.48h6.13v2.86A6.35,6.35,0,0,1,331.82,70a7.71,7.71,0,0,1,6.88,3.94A7.55,7.55,0,0,1,345.75,70C350.28,70,353.77,73.46,353.77,78.37Z" style="fill:#443244" transform="matrix(1, 0, 0, 1, 0, 3.552713678800501e-15)"/>
  <path d="M312.06,92.18h-5.71V90.5a11,11,0,0,1-7.14,2.33,10.07,10.07,0,0,1-7.44-3.24,12.17,12.17,0,0,1,0-16.37A10,10,0,0,1,299.21,70a10.74,10.74,0,0,1,7.14,2.38V70.6h5.71Zm-7.57-6.12a6.15,6.15,0,0,0,1.86-4.65,6.24,6.24,0,0,0-1.86-4.67,6,6,0,0,0-4.28-1.82,5.8,5.8,0,0,0-4.35,1.78,7.33,7.33,0,0,0,0,9.41,5.85,5.85,0,0,0,4.35,1.75A6,6,0,0,0,304.49,86.06Z" style="fill:#443244" transform="matrix(1, 0, 0, 1, 0, 3.552713678800501e-15)"/>
</svg>
