<svg xmlns="http://www.w3.org/2000/svg" width="620" height="184" viewBox="0 0 620 184" fill="none">
<path fill-rule="evenodd" clip-rule="evenodd" d="M192.985 117.287L202.325 107.527C208.458 112.617 215.378 115.668 223.445 115.668C230.814 115.668 234.582 112.142 234.582 107.705C234.582 102.626 230.601 101.073 220.152 98.6073C205.722 95.1804 195.486 90.9399 195.486 77.1829C195.486 63.4259 205.84 55.0435 220.744 55.0435C231.786 55.0435 240.382 58.6063 247.317 64.7226L238.035 74.4235C232.431 70.253 226.261 67.9869 220.341 67.9869C213.778 67.9869 210.295 71.4138 210.295 75.6543C210.295 80.8317 214.37 82.4835 224.914 84.9736C239.629 88.4005 249.391 92.9369 249.391 106.078C249.391 119.218 239.534 128.636 222.829 128.636C211.221 128.636 200.887 124.66 192.985 117.287Z" fill="#443244"/>
<path d="M302.703 73.8545V127.354H288.178V120.623C285.097 125.48 279.316 128.587 272.658 128.587C261.521 128.587 253.56 120.007 253.56 107.877V73.8298H267.587V104.672C267.587 111.304 271.568 115.84 277.325 115.84C283.391 115.84 288.059 111.279 288.059 105.486L288.154 105.806V73.8298H302.679L302.703 73.8545Z" fill="#443244"/>
<path fill-rule="evenodd" clip-rule="evenodd" d="M307.472 81.5592L328.465 59.6198V73.8546H339.602V86.0584H328.465V109.85C328.465 113.375 330.645 115.841 333.346 115.841C335.337 115.841 337.327 115.126 338.322 114.09L341.805 123.927H341.782C338.796 126.713 334.128 128.587 329.958 128.587C320.907 128.587 314.533 121.856 314.533 112.241V86.0584H307.472V81.5592Z" fill="#443244"/>
<path d="M393.153 73.8545V127.354H378.628V120.623C375.547 125.48 369.766 128.587 363.108 128.587C351.971 128.587 344.01 120.007 344.01 107.877V73.8298H358.037V104.672C358.037 111.304 362.018 115.84 367.776 115.84C373.841 115.84 378.509 111.279 378.509 105.486L378.604 105.806V73.8298H393.129L393.153 73.8545Z" fill="#443244"/>
<path d="M449.333 93.3067V127.354H435.306V96.5117C435.306 89.8798 431.325 85.3434 425.567 85.3434C419.501 85.3434 414.833 89.9044 414.833 95.6982L414.739 95.3776V127.354H400.214V73.8546H414.739V80.5852C417.819 75.7283 423.601 72.6219 430.259 72.6219C441.395 72.6219 449.357 81.2015 449.357 93.3067H449.333Z" fill="#443244"/>
<path d="M508.995 127.354H495.465V123.188C490.892 127.034 485.253 128.957 478.547 128.957C471.841 128.957 465.894 126.294 460.918 120.969C455.942 115.643 453.431 108.913 453.431 100.802C453.431 92.6904 455.942 85.9598 460.966 80.5852C465.989 75.2106 471.841 72.5233 478.547 72.5233C485.253 72.5233 490.939 74.471 495.465 78.391V74.1258H508.995V127.329V127.354ZM491.058 112.266C493.996 109.307 495.465 105.486 495.465 100.802C495.465 96.1173 493.996 92.2713 491.058 89.2881C488.12 86.305 484.731 84.8011 480.917 84.8011C476.746 84.8011 473.311 86.2557 470.609 89.1648C467.908 92.074 466.558 95.9447 466.558 100.777C466.558 105.609 467.908 109.48 470.609 112.34C473.311 115.224 476.746 116.654 480.917 116.654C484.755 116.654 488.12 115.175 491.058 112.216V112.266Z" fill="#443244"/>
<path d="M596 93.3067V127.453H582.067V95.8954C582.067 89.6825 578.3 85.3434 572.921 85.3434C567.163 85.3434 562.969 89.3867 562.969 95.0818V127.477H549.037V95.92C549.037 89.7072 545.269 85.3681 539.985 85.3681C534.109 85.3681 530.034 89.4113 530.034 95.1064V127.403H515.509V73.9039H530.034V80.9303C532.522 75.8516 537.592 72.6465 543.966 72.6465C551.027 72.6465 557.093 76.3693 560.268 82.3849C562.946 76.4926 569.32 72.6465 576.973 72.6465C587.707 72.6465 595.976 81.2262 595.976 93.3313L596 93.3067Z" fill="#443244"/>
<path d="M26.087 92H28.1604C28.1604 83.1764 29.9492 74.7865 33.1746 67.1557C38.0126 55.7026 46.1166 45.9438 56.3075 39.0584C66.4985 32.173 78.7629 28.1611 91.9895 28.1611C100.812 28.1611 109.2 29.9502 116.83 33.176C128.281 38.0148 138.039 46.12 144.923 56.3125C151.807 66.5051 155.819 78.7714 155.819 92C155.819 100.824 154.03 109.213 150.804 116.844C145.966 128.297 137.862 138.056 127.671 144.942C117.48 151.827 105.216 155.839 91.9895 155.839C83.1672 155.839 74.7787 154.05 67.149 150.824C55.6977 145.985 45.9404 137.88 39.0561 127.687C32.1717 117.495 28.1604 105.229 28.1604 92H24C24 101.379 25.8973 110.338 29.3394 118.471C34.5027 130.683 43.1216 141.052 53.9766 148.384C64.8316 155.717 77.9227 160 91.9895 160C101.367 160 110.325 158.102 118.456 154.66C130.666 149.496 141.034 140.875 148.365 130.019C155.697 119.162 159.979 106.069 159.979 92C159.979 82.6207 158.082 73.6616 154.64 65.5292C149.476 53.3171 140.857 42.9484 130.002 35.6157C119.147 28.283 106.056 24 91.9895 24C82.6116 24 73.6539 25.8975 65.5228 29.3402C53.3126 34.5043 42.9454 43.1246 35.6139 53.9813C28.2824 64.838 24 77.931 24 92H26.0734H26.087Z" fill="#E84127"/>
<path d="M92.0021 91.973L97.1789 97.1506C98.0868 98.0587 98.778 99.1023 99.2523 100.241C99.7266 101.379 99.9705 102.613 99.9705 103.9C99.9705 105.188 99.7266 106.421 99.2523 107.56C98.778 108.698 98.0868 109.742 97.1789 110.65C96.2709 111.558 95.2274 112.25 94.0891 112.724C92.9507 113.198 91.7175 113.442 90.4301 113.442C89.1426 113.442 87.9094 113.198 86.7711 112.724C85.6327 112.25 84.5892 111.558 83.6813 110.65L81.0658 108.034L78.125 110.976L80.7405 113.591C82.0279 114.879 83.5457 115.882 85.1855 116.573C86.8253 117.251 88.6141 117.617 90.4301 117.617C92.2595 117.617 94.0348 117.265 95.6746 116.573C97.3144 115.896 98.8322 114.879 100.12 113.591C101.407 112.304 102.41 110.786 103.101 109.146C103.779 107.506 104.144 105.717 104.144 103.9C104.144 102.071 103.792 100.295 103.101 98.655C102.423 97.015 101.407 95.497 100.12 94.2094L94.9428 89.0318L92.0021 91.973Z" fill="#E84127"/>
<path d="M99.1717 84.8028L104.348 89.9804C106.219 91.8509 107.655 94.0059 108.631 96.3643C109.607 98.7227 110.122 101.271 110.122 103.9C110.122 106.543 109.607 109.078 108.631 111.436C107.655 113.795 106.219 115.95 104.348 117.82C102.478 119.691 100.324 121.127 97.9656 122.103C95.6075 123.079 93.0598 123.594 90.4308 123.594C87.7881 123.594 85.254 123.079 82.8959 122.103C80.5379 121.127 78.3832 119.691 76.513 117.82L73.8704 115.177L70.9297 118.118L73.5723 120.761C75.8219 123.011 78.4374 124.76 81.2968 125.939C84.1563 127.118 87.2461 127.742 90.4308 127.742C93.6019 127.742 96.7052 127.118 99.5647 125.939C102.424 124.76 105.053 123.011 107.289 120.761C109.539 118.511 111.287 115.896 112.466 113.036C113.645 110.176 114.268 107.085 114.268 103.9C114.268 100.729 113.645 97.6248 112.466 94.765C111.287 91.9051 109.539 89.2756 107.289 87.0392L102.112 81.8616L99.1717 84.8028Z" fill="#E84127"/>
<path d="M92.0028 92.0271L86.826 86.8495C85.918 85.9414 85.2269 84.8978 84.7525 83.7592C84.2782 82.6207 84.0343 81.3873 84.0343 80.0997C84.0343 78.8121 84.2782 77.5787 84.7525 76.4401C85.2269 75.3016 85.918 74.2579 86.826 73.3498C87.734 72.4417 88.7774 71.7505 89.9158 71.2761C91.0542 70.8017 92.2874 70.5577 93.5748 70.5577C94.8622 70.5577 96.0954 70.8017 97.2338 71.2761C98.3721 71.7505 99.4156 72.4417 100.324 73.3498L102.492 75.5185L105.433 72.5773L103.264 70.4086C101.977 69.121 100.459 68.118 98.8193 67.4268C97.1796 66.7491 95.3907 66.3831 93.5748 66.3831C91.7453 66.3831 89.97 66.7355 88.3302 67.4268C86.6905 68.1045 85.1727 69.121 83.8852 70.4086C82.5978 71.6963 81.595 73.2143 80.9038 74.8543C80.2262 76.4943 79.8604 78.2835 79.8604 80.0997C79.8604 81.9295 80.2127 83.705 80.9038 85.345C81.5814 86.9851 82.5978 88.5031 83.8852 89.7907L89.062 94.9683L92.0028 92.0271Z" fill="#E84127"/>
<path d="M84.8467 99.1971L79.6699 94.0195C77.7998 92.1491 76.3633 89.994 75.3876 87.6356C74.4118 85.2772 73.8969 82.7291 73.8969 80.0996C73.8969 77.4566 74.4118 74.922 75.3876 72.5637C76.3633 70.2053 77.7998 68.0502 79.6699 66.1798C81.5401 64.3093 83.6948 62.8726 86.0528 61.8967C88.4109 60.9208 90.9586 60.4058 93.5877 60.4058C96.2303 60.4058 98.7644 60.9208 101.122 61.8967C103.48 62.8726 105.635 64.3093 107.505 66.1798L109.606 68.2806L112.547 65.3394L110.446 63.2386C108.197 60.9886 105.581 59.2401 102.722 58.061C99.8621 56.8818 96.7723 56.2583 93.5877 56.2583C90.4165 56.2583 87.3132 56.8818 84.4537 58.061C81.5943 59.2401 78.9652 60.9886 76.7292 63.2386C74.4796 65.4885 72.7314 68.1044 71.5524 70.9643C70.3734 73.8242 69.75 76.9145 69.75 80.0996C69.75 83.2712 70.3734 86.3751 71.5524 89.235C72.7314 92.0948 74.4796 94.7243 76.7292 96.9607L81.906 102.138L84.8467 99.1971Z" fill="#E84127"/>
<path d="M117.181 123.621C118.932 123.621 120.352 122.201 120.352 120.45C120.352 118.698 118.932 117.278 117.181 117.278C115.43 117.278 114.01 118.698 114.01 120.45C114.01 122.201 115.43 123.621 117.181 123.621Z" fill="#E84127"/>
</svg>
