<?xml version="1.0" encoding="UTF-8" standalone="no"?>
<!DOCTYPE svg PUBLIC "-//W3C//DTD SVG 1.1//EN" "http://www.w3.org/Graphics/SVG/1.1/DTD/svg11.dtd">
<svg width="100%" height="100%" viewBox="0 0 952 319" version="1.1" xmlns="http://www.w3.org/2000/svg" xmlns:xlink="http://www.w3.org/1999/xlink" xml:space="preserve" xmlns:serif="http://www.serif.com/" style="fill-rule:evenodd;clip-rule:evenodd;stroke-linejoin:round;stroke-miterlimit:2;">
    <g transform="matrix(1.04006,0,0,0.932559,-59.3507,-114.312)">
        <rect id="noir-fond-blanc" serif:id="noir fond blanc" x="57.065" y="122.578" width="914.533" height="341.988" style="fill:none;"/>
        <g id="noir-fond-blanc1" serif:id="noir fond blanc">
            <g transform="matrix(4.00619,0,0,4.46799,-1140.66,-522.484)">
                <g transform="matrix(1,0,-0.305731,1,64.1167,0)">
                    <text x="363.439px" y="209.716px" style="font-family:'LucidaGrande', 'Lucida Grande', sans-serif;font-weight:500;font-size:13px;fill:rgb(39,125,190);">e<tspan x="370.048px 377.388px 384.937px 391.483px 398.918px " y="209.716px 209.716px 209.716px 209.716px 209.716px ">xpand</tspan></text>
                </g>
                <g transform="matrix(1,0,-0.305731,1,64.1167,0)">
                    <text x="409.947px" y="209.716px" style="font-family:'LucidaGrande', 'Lucida Grande', sans-serif;font-weight:500;font-size:13px;fill:rgb(70,63,63);stroke:white;stroke-width:0.28px;">y<tspan x="416.106px 423.458px 430.893px " y="209.716px 209.716px 209.716px ">our</tspan></text>
                </g>
                <g transform="matrix(1,0,-0.305731,1,64.1167,0)">
                    <text x="439.059px" y="209.716px" style="font-family:'LucidaGrande', 'Lucida Grande', sans-serif;font-weight:500;font-size:13px;fill:rgb(39,125,190);"><tspan x="439.059px 446.608px 454.043px 460.037px 463.162px 470.597px 477.206px 483.2px " y="209.716px 209.716px 209.716px 209.716px 209.716px 209.716px 209.716px 209.716px ">business</tspan></text>
                </g>
            </g>
            <g transform="matrix(0.749357,0,0,0.835737,78.3579,141.64)">
                <path d="M72.76,261.213C44.165,235.13 26.213,197.576 26.213,155.862C26.213,77.17 90.1,13.282 168.792,13.282C247.483,13.282 311.371,77.17 311.371,155.862C311.371,234.553 247.483,298.441 168.792,298.441C140.92,298.441 114.905,290.426 92.928,276.577C93.04,276.041 175.385,145.976 174.818,146.24C173.587,146.814 77.537,254.796 72.903,261.058C72.852,261.108 72.804,261.159 72.76,261.213Z" style="fill:rgb(32,121,187);"/>
            </g>
            <g transform="matrix(0.749357,0,0,0.835737,78.3579,141.64)">
                <path d="M1030,254C1017,254 970,253 955,253C929,253 929,253 918,239L824,125L823,253L747,253L729,204L658,203L640,253L615,253C553.245,257.858 543.297,220.891 541,214C537,201 538.911,198.159 537.911,155.159L537.7,93.939L497.855,94.099L513.355,63.33C512.355,63.33 452,148 452,148C452,149 525,252 525,252L467,252L454,232L420,185L379,246C376,250 376,250 347,250L319,250C319,249 392,150 392,150L321.461,51.039C321.461,51.039 378.537,50.09 379.537,50.09C381.537,50.09 423,115 423,115L464,54L466,53C467,52 507,52 590,52L713,52L784,237L784,52L817,52L921,182L921,53C921,53 1050.14,53.872 1051.14,53.872L1060.02,55.334C1133.34,63.704 1135.25,138.721 1135.45,152.72C1135.58,162.325 1133.96,228.346 1078,247C1066,251 1054,253 1030,254ZM607,231L616,211C618,207 670.987,64.15 670.987,64.15C670.987,64.15 670.683,66.543 657.282,84.298C647.717,96.971 628.01,94.163 617.395,94.278L585,94.278L585,154C585,195 585,196 587,201C590,206 595,211 602,214C606,216 606,216 606,222C606,226 606,230 607,231ZM1055,216C1082,206 1095.06,184.741 1095,151C1095.8,150.522 1093.31,122.293 1089.44,115.812C1085.96,102.789 1064.87,92.438 1064.87,92.438C1058.47,90.041 1046.14,85.603 1016.2,84.736C999.989,84.266 959.153,83.377 959.153,83.377C959.153,84.377 1000,97 1000,97L1000,219L1024,219C1046,218 1048,218 1055,216ZM722.037,174.115L694,99L665,174L722.037,174.115Z" style="fill:rgb(51,49,48);fill-rule:nonzero;"/>
            </g>
        </g>
    </g>
</svg>
