<svg xmlns="http://www.w3.org/2000/svg" viewBox="0 0 939 269"><defs><style>.cls-1{fill:#eeba05;}.cls-2{fill:#393938;}.cls-3{fill:#ec6863;}.cls-4{fill:#369ad6;}</style></defs><path class="cls-1" d="M88.4,159.6c0-11.5,8.4-20.8,20.6-20.8s20.6,9.3,20.6,20.8c0,11.7-8.4,20.8-20.6,20.8S88.4,171.3,88.4,159.6Z"/><path class="cls-2" d="M170.6,164.3l45.8-53.5H176V90.4h76.6v13.9l-46,53.5h47.2v20.5H170.5v-14Z"/><path class="cls-2" d="M274.2,134.3c0-28.7,22.2-46,45.7-46,27.1,0,41.4,18.3,41.4,42.2a70,70,0,0,1-1.1,11.7H293.5V124.7h49l-4.1,5c0-14.1-6.1-21.5-17.7-21.5-12.9,0-21.3,8.7-21.3,26.2,0,18.2,9.9,26.2,27,26.2,8,0,14.8-2.2,22.6-6.1l8.6,15.7a67.57,67.57,0,0,1-34.8,10.3C295.5,180.4,274.2,163.5,274.2,134.3Z"/><path class="cls-2" d="M383.4,90.4h21.2l1.9,11.7h.7c7.6-7.5,17.3-13.8,30.4-13.8,19.9,0,28.6,13.6,28.6,35.7v54.2H440.1V127.3c0-11.7-3.4-16.9-12.9-16.9-6.9,0-11.7,3.2-17.8,9.2v58.6H383.3V90.4Z"/><path class="cls-3" d="M509.5,159.6c0-11.5,8.4-20.8,20.6-20.8s20.6,9.3,20.6,20.8c0,11.7-8.4,20.8-20.6,20.8S509.5,171.3,509.5,159.6Z"/><path class="cls-2" d="M593.7,141.8v-31H571.6V91.4l23.3-1,3.4-26.9h21.5V90.4h37v20.4h-37v30.7c0,13.4,5.6,18.4,18.5,18.4a51.88,51.88,0,0,0,17.4-3.1l4.7,18.8c-7.8,2.3-17,4.8-28.7,4.8C603.7,180.4,593.7,164.9,593.7,141.8Z"/><path class="cls-2" d="M677.4,134.4c0-29.2,21.6-46.1,44.8-46.1S767,105.2,767,134.4s-21.6,46-44.8,46S677.4,163.5,677.4,134.4Zm63,0c0-15.2-6.1-25.1-18.1-25.1s-18.1,9.8-18.1,25.1,6.1,25,18.1,25S740.4,149.5,740.4,134.4Z"/><path class="cls-4" d="M807.9,159.6c0-11.5,8.4-20.8,20.6-20.8s20.6,9.3,20.6,20.8c0,11.7-8.4,20.8-20.6,20.8S807.9,171.3,807.9,159.6Z"/></svg>
