<?xml version="1.0" encoding="UTF-8"?>
<svg xmlns="http://www.w3.org/2000/svg" viewBox="0 0 119 83" fill="none" style="transition: height 0.3s;" class="h-20">
  <path d="M27.23 37.25V11.498L7.789 37.25h19.443Zm11.518 0c.413 0 .62.203.619.606V40.8c0 .406-.206.608-.619.608H31.44v20.125c0 .405-.207.609-.62.609h-2.968c-.415 0-.62-.204-.62-.609V41.407H.61a.564.564 0 0 1-.531-.348.573.573 0 0 1 .044-.65l2.392-3.158L27.231 4.529l3.1-4.156a.607.607 0 0 1 .71-.216c.264.086.398.29.398.607V37.25h7.31ZM43.94.172A.613.613 0 0 1 44.385 0h3.278c.413 0 .62.202.62.605V40.58c0 .405-.207.608-.62.608H44.74c-.414 0-.62-.202-.62-.608V5.758l-4.696 4.592c-.265.289-.545.289-.84 0L36.5 8.314c-.297-.288-.297-.576 0-.866l7.44-7.276Z" fill="#161615"></path>
  <path d="M76.524 27.14a27.196 27.196 0 0 0-8.77 5.757 26.486 26.486 0 0 0-5.89 8.574 26.375 26.375 0 0 0 0 20.958 26.456 26.456 0 0 0 5.89 8.573 27.157 27.157 0 0 0 8.77 5.76 28.132 28.132 0 0 0 21.438 0 27.172 27.172 0 0 0 8.77-5.76 26.51 26.51 0 0 0 5.891-8.572 26.375 26.375 0 0 0 0-20.958 26.53 26.53 0 0 0-5.891-8.575 27.216 27.216 0 0 0-8.77-5.757 28.134 28.134 0 0 0-21.438 0Zm-1.639 53.434a32.464 32.464 0 0 1-10.098-6.67 31.714 31.714 0 0 1-6.822-9.873 30.658 30.658 0 0 1 0-24.162 32.248 32.248 0 0 1 9.418-12.03 32.178 32.178 0 0 1 29.14-5.56 32.211 32.211 0 0 1 13.177 7.717 31.076 31.076 0 0 1 6.776 9.873 30.165 30.165 0 0 1 0 24.162 31.1 31.1 0 0 1-6.776 9.873 32.403 32.403 0 0 1-34.816 6.67" fill="#FB0"></path>
  <path fill-rule="evenodd" clip-rule="evenodd" d="M47.328 48.037a6.174 6.174 0 0 0-4.248 1.62 5.716 5.716 0 0 0-1.932 4.037 5.786 5.786 0 0 0 .42 2.505 6.04 6.04 0 0 0 1.363 2.034l.002.001a6.15 6.15 0 0 0 4.633 1.732 6.104 6.104 0 0 0 4.09-1.84l.11-.115a.483.483 0 0 0 .142-.336V53.931a.475.475 0 0 0-.505-.5h-3.185a.475.475 0 0 0-.503.5v1.19a.474.474 0 0 0 .502.496h1.465v1.319a3.941 3.941 0 0 1-5.288-.359 3.704 3.704 0 0 1-.699-4.106c.205-.448.497-.852.859-1.186a3.953 3.953 0 0 1 5.394.014.478.478 0 0 0 .687.018l.893-.85.003-.002a.502.502 0 0 0 .155-.326.475.475 0 0 0-.148-.37l-.002-.002a6.175 6.175 0 0 0-4.208-1.73ZM74.775 48.022h-.512a.473.473 0 0 0-.505.5v10.96a.473.473 0 0 0 .505.5h1.145a.473.473 0 0 0 .505-.5v-6.753l5.41 7.063v.001a.482.482 0 0 0 .387.19h.547a.473.473 0 0 0 .505-.5V48.522a.476.476 0 0 0-.505-.5h-1.146a.473.473 0 0 0-.505.5v6.809l-5.442-7.1a.476.476 0 0 0-.386-.209h-.004ZM88.929 48.03a.489.489 0 0 0-.344.132.481.481 0 0 0-.143.351v10.968a.474.474 0 0 0 .505.5h7.394a.473.473 0 0 0 .505-.5v-1.186a.474.474 0 0 0-.505-.5h-5.68v-2.696h4.002a.471.471 0 0 0 .505-.498v-1.19a.476.476 0 0 0-.504-.5h-4.003v-2.694h5.68a.474.474 0 0 0 .505-.5v-1.204a.481.481 0 0 0-.142-.35.488.488 0 0 0-.344-.133h-7.431Z" fill="#161615"></path>
</svg>
