<?xml version="1.0" encoding="UTF-8"?>
<svg xmlns="http://www.w3.org/2000/svg" version="1.1" viewBox="0 0 841.89 841.89">
  <defs>
    <style>
      .cls-1 {
        fill: #16191d;
      }

      .cls-2 {
        fill: #f47b24;
      }
    </style>
  </defs>
  <!-- Generator: Adobe Illustrator 28.7.3, SVG Export Plug-In . SVG Version: 1.2.0 Build 164)  -->
  <g>
    <g id="Layer_1">
      <g>
        <g>
          <path class="cls-1" d="M59.56,491.53c51.39-113.38,102.39-225.82,153.91-339.5,51.36,113.3,102.51,226.11,153.43,338.43-1.54,1.59-3.01,1.05-4.3,1.05-31.51,0-63,0-94.54.15-3.69,0-5.23-1.62-6.78-5-25.44-55.43-50.94-110.82-76.48-166.16-.31-.68-.69-1.33-1.41-2.71-6.75,15.51-13.26,30.43-19.73,45.37-17.81,41.21-35.61,82.44-53.39,123.7-1.55,3.66-3.37,4.88-6.88,4.79-14.23-.27-28.51-.11-43.83-.11Z"/>
          <path class="cls-1" d="M727.4,304.12c0,28.31.17,56.62-.14,84.93-.06,5.99,1.51,7.48,6.42,7.03,5.37-.52,10.8,0,16.21-.17,2.66-.1,3.72.8,3.66,4.02-.17,8.38-.17,16.76,0,25.15.06,3.2-.94,4.18-3.62,4.11-5.93-.16-11.88.25-17.81-.14-4.07-.29-4.9,1.44-4.85,5.76.21,16.95,0,33.89.18,50.84,0,4.5-.66,6.24-5.07,5.99-17.94-.8-35.9-1.33-53.87-1.58-4.34-.06-5.05-1.86-5-6.25.21-15.75-.06-31.5.18-47.24.07-4.62-.91-5.99-5.13-5.99-32.09.2-64.19,0-96.28.25-4.76,0-5.24-1.69-5.76-6.65-1.73-17.4,3.44-31.47,11.86-45.87,31.37-53.6,61.8-107.95,92.43-162.1,1.91-3.38,3.92-4.79,7.51-4.69,17.97.22,35.93.22,53.9,0,4.02,0,5.3,1.04,5.24,5.88-.16,28.91-.05,57.82-.05,86.73ZM595.68,393.07c1.67,1.51,3.09.98,4.4.98,19.52,0,39.05-.13,58.57.16,4.28.06,5.1-1.53,5.08-6.06-.16-32.87-.08-65.75-.08-98.62v-8.47l-67.97,112.01Z"/>
          <path class="cls-1" d="M389.46,404.92v-78.62q0-8.12-7.53-8.12c-11.83,0-23.66-.11-35.48.07-3.16,0-4.56-.72-4.3-4.65.32-5.03.32-10.08,0-15.1-.3-4.25,1.28-4.97,4.61-4.94,22.01.13,44.08.07,66.05.07s45.47.08,68.21-.1c3.7,0,5.11,1.05,4.81,5.37-.32,4.63-.32,9.28,0,13.91.27,4.14-.8,5.56-4.68,5.49-13.25-.28-26.5.1-39.78-.23-4.12-.1-4.98,1.28-4.97,5.72.14,53.22,0,106.46.24,159.68,0,6.06-1.52,7.27-6.45,7.27-12.17-.11-24.34.34-36.5.91-3.66.17-4.4-1.21-4.38-5.03.22-27.24.15-54.47.15-81.69Z"/>
          <g>
            <path class="cls-1" d="M492.6,392.51c0-30.73.09-61.45-.09-92.17,0-4.72.98-6.07,5.1-6.07,13.8.32,27.6.22,41.44,0,3.24,0,4.41.76,4.4,4.95-.12,62.45-.12,124.89,0,187.34,0,3.96-.88,5.14-4.3,5.08-13.96-.22-27.97-.3-41.9,0-4.14.11-4.68-1.69-4.66-5.89.08-30.98.02-62.13.02-93.25Z"/>
            <path class="cls-2" d="M517.92,213.5c6.29-.01,12.43,1.91,17.67,5.54,5.24,3.62,9.33,8.78,11.75,14.83,2.43,6.04,3.08,12.7,1.89,19.13-1.2,6.43-4.19,12.35-8.61,17.01-4.42,4.66-10.06,7.85-16.22,9.17-6.16,1.32-12.55.71-18.38-1.75-5.83-2.46-10.82-6.67-14.36-12.08-3.54-5.42-5.45-11.8-5.51-18.36-.3-18.04,14.26-33.38,31.77-33.49Z"/>
          </g>
        </g>
        <g>
          <path class="cls-2" d="M361.17,643.17h-26.64c-1.98,0-3.61-.17-4.67-2.59-7.64-17.48-15.39-34.9-23.29-52.79,3.4,0,6.19.23,8.96,0,10.08-1,17.58-9.61,17.95-20.45.38-10.84-5.51-18.83-15.67-21.27-13.63-3.24-13.83-3.02-13.83,12.46,0,26.13-.11,52.27.09,78.39,0,4.62-.66,6.63-5.18,6.31-6.6-.47-13.24-.29-19.85,0-3.26.12-4.15-1.15-4.13-4.82.11-33.9.11-67.8,0-101.7,0-2.59-.08-4.72,3.1-4.62,18.32.61,36.69-1.19,54.98,1.06,6.05.78,11.83,3.22,16.88,7.09,17.03,12.81,15.55,40-2.76,51.65q-7.95,5.04-3.6,14.17l17.66,37.1Z"/>
          <path class="cls-2" d="M364.37,587.64c.04-7.4,1.34-14.73,3.85-21.56,2.51-6.83,6.18-13.02,10.79-18.23,4.61-5.21,10.07-9.33,16.08-12.13,6-2.8,12.43-4.22,18.91-4.18,29.53,0,52.24,24.24,52.24,55.95s-22.71,56.16-50.43,55.76c-28.98-.47-51.57-24.9-51.44-55.62ZM438.02,586.68c-.3-10.59-1.24-20.83-5.87-30.15-3.94-7.92-9.6-12.68-17.85-12.4-8.07.3-13.62,5.43-16.57,13.49-7.54,20.54-7.29,41.2,1.25,61.31,3.62,8.53,9.7,13.84,18.54,13.15,8.85-.69,13.27-7.2,16.26-15.72,3.37-9.6,3.72-19.74,4.24-29.68Z"/>
          <path class="cls-2" d="M556.77,587.63v-49.9c0-2.44-.8-5.43,3-5.34,17.95.44,35.98-1.3,53.8,2.35,13.62,2.81,24.17,16.94,24.21,31.6.05,14.67-10.22,27.37-24.23,30.62-8.05,1.87-16.2,1.7-24.31,1.45-3.87-.13-5.27,1.06-5.14,5.73.3,11.22-.1,22.47.19,33.72.11,4.47-1.24,5.56-4.86,5.38-5.68-.33-11.36-.33-17.03,0-4.28.27-5.89-.93-5.77-6.34.39-16.43.16-32.85.16-49.26ZM584.02,566.35c0,4.95.1,9.91,0,14.85-.08,2.71.88,3.89,3.17,4.23,7.28,1.13,14.18.39,18.89-6.87,4.34-6.7,5.2-14.46,1.63-21.88-3.75-7.78-10.41-10.05-17.79-9.97-4.27,0-6.56,1.88-5.94,7.39.45,4.02.09,8.17.09,12.25h-.05Z"/>
          <path class="cls-2" d="M549.09,573.55c0,10.14-.55,20.35.13,30.44,1.13,17.12-7.09,27.23-19.03,34.18-15.81,9.27-35.52,5.55-48.53-8.33-6.39-6.82-9.83-15.04-9.79-25.2.09-22.68.07-45.36-.06-68.01,0-3.97.87-5.33,4.42-5.19,5.85.32,11.73.31,17.58,0,3.66-.19,4.77,1.01,4.74,5.36-.22,22.46-.16,44.91-.08,67.43,0,12.03,7.17,22.2,16.43,23.81,10.9,1.91,18.99-6.13,19.88-20.46.52-8.16.24-16.39.25-24.64,0-15.33.15-30.67-.09-45.98,0-4.24.94-5.52,4.68-5.51,9.47,0,9.47-.16,9.47,10.37v31.73Z"/>
          <path class="cls-2" d="M269.87,609.04c0,17.46-3.4,18.04-11,23.91-21.76,16.96-55.46,12.64-72.39-10.28-13.19-17.87-14.57-37.54-4.66-59.65,4.43-10.12,11.52-18.41,20.27-23.72,8.75-5.31,18.73-7.38,28.56-5.91,12.97,1.89,23.7,8.13,32.02,19.79,1.99,2.78,2.45,4.49-.76,6.32-3.02,1.71-5.94,5.45-8.78,5.29-2.84-.16-3.56-5.5-4.91-8.64-6.46-14.95-30.95-16.39-38.41.17-9.31,20.66-9.69,41.35.14,61.79,7.32,15.25,24.99,15.56,35.85,4.72,1.54-1.53,1.42-3.36,1.41-5.29,0-6.04.27-12.11-.09-18.15-.27-4.55,1.33-5.56,4.89-5.34,4.34.34,8.69.34,13.02,0,4.21-.39,5.27,1.62,4.87,5.95-.25,2.98-.04,6.03-.04,9.05Z"/>
        </g>
      </g>
    </g>
  </g>
</svg>