<svg width="1511" height="1196" viewBox="0 0 1511 1196" fill="none" xmlns="http://www.w3.org/2000/svg">
<path fill-rule="evenodd" clip-rule="evenodd" d="M586.023 258.574C521.534 258.574 469.137 309.03 469.137 371.325C469.137 433.621 521.342 484.077 586.023 484.077C650.513 484.077 702.91 433.621 702.91 371.325C702.91 309.03 650.513 258.574 586.023 258.574ZM605.984 0.101562C807.321 0.101562 987.737 174.056 987.737 368.411L981.979 742.185C981.979 936.54 807.321 1094.1 605.984 1094.1C404.648 1094.1 229.99 936.54 229.99 742.185L232.677 593.368C214.059 467.319 113.679 360.214 0.0554199 329.613C140.358 144.365 307.146 0.101562 597.347 0.101562V0.283725C600.226 0.283725 603.105 0.101562 605.984 0.101562Z" fill="#292A34"/>
<path fill-rule="evenodd" clip-rule="evenodd" d="M1204.24 483.895C1213.45 483.895 1222.47 484.077 1231.49 484.623C1227.84 531.072 1216.71 575.517 1199.25 616.865C1235.71 608.85 1273.72 604.661 1312.68 604.661C1382.93 604.661 1449.91 618.322 1510.94 642.913C1420.74 784.808 1258.55 879.527 1073.34 879.527C1067.77 879.527 1062.21 879.527 1056.64 879.345C1145.31 910.311 1223.62 961.859 1285.62 1028.16C1174.1 1104.3 1038.02 1148.93 891.004 1148.93C850.506 1148.93 810.776 1145.47 772.198 1139.09C935.148 1075.7 1055.11 924.7 1055.11 748.378L1058.75 506.846C1104.43 491.909 1153.37 483.895 1204.24 483.895Z" fill="#292A34"/>
</svg>
