<?xml version="1.0" encoding="UTF-8"?>
<svg id="Calque_5" data-name="Calque 5" xmlns="http://www.w3.org/2000/svg" viewBox="0 0 471.89 444.53">
  <defs>
    <style>
      .cls-1 {
        fill: #fff;
      }

      .cls-2 {
        fill: #142d37;
      }

      .cls-3 {
        fill: #32ffc3;
      }
    </style>
  </defs>
  <circle class="cls-2" cx="231.78" cy="222" r="219"/>
  <path class="cls-1" d="m261.03,369h-58.35c-24.8,0-44.01-6.06-57.63-18.17-13.76-12.11-20.5-28.89-20.5-50.59v-147.61c0-21.83,6.74-38.73,20.36-50.72,13.62-11.99,32.83-17.92,57.63-17.92h58.49c24.51,0,43.58,5.93,57.49,17.92,13.76,11.99,20.64,28.89,20.64,50.72v21.32c0,5.3-3.01,7.95-9.03,7.95h-31.68c-5.73,0-8.6-2.65-8.6-7.95v-19.43c0-21.83-12.04-32.8-36.27-32.8h-43.87c-24.23,0-36.27,10.98-36.27,32.8v144.08c0,21.83,12.04,32.8,36.27,32.8h43.87c24.23,0,36.27-10.98,36.27-32.8v-19.56c0-5.3,2.87-7.95,8.6-7.95h31.68c6.02,0,9.03,2.65,9.03,7.95v21.32c0,21.57-6.88,38.48-20.64,50.59-13.76,11.99-32.97,18.04-57.49,18.04Z"/>
  <path class="cls-3" d="m250.71,258h-36.85c-3.35,0-6.07-2.72-6.07-6.07v-36.85c0-3.35,2.72-6.07,6.07-6.07h36.85c3.35,0,6.07,2.72,6.07,6.07v36.85c0,3.35-2.72,6.07-6.07,6.07Z"/>
</svg>