<svg xmlns="http://www.w3.org/2000/svg" viewBox="261.4462 179.1617 68.5 68.49">
  <defs>
    <clipPath id="clippath">
      <path class="cls-2" d="M33.06,0C14.8,0,0,14.8,0,33.06s14.8,33.06,33.06,33.06h.01c18.26,0,33.06-14.8,33.06-33.06S51.33,0,33.07,0h-.01Z" style="fill: none; stroke-width: 0px;"></path>
    </clipPath>
    <clipPath id="clippath-1">
      <rect class="cls-2" x="-75.11" y="-86.33" width="345.13" height="244.03" style="fill: none; stroke-width: 0px;"></rect>
    </clipPath>
    <clipPath id="clippath-2">
      <path class="cls-2" d="M30.27,46.29l.34-3.08c.42-.06.78-.14,1.1-.23,2.05-.49,3.81-1.41,5.29-2.87.53-.53,1.01-1.12,1.45-1.77.13.08.27.17.44.27.07.04.15.09.3.18.12.07.21.13.3.19,1.64,1.02,2.83,1.72,3.99,2.29-1.64,3.49-4.91,5-9.66,5.01h-3.55M23.51,39.44c-.67-.5-.94-1.12-.88-1.81.18-1.84,2.29-2.86,5.69-2.86,2.75,0,4.86.6,7.66,2.12-.3.44-.64.84-.99,1.19-1.43,1.42-3.27,2.15-5.63,2.41-.19.02-.38.03-.57.05-.14,0-.27.02-.38.02-.05,0-.09,0-.11,0-2.25,0-3.85-.43-4.78-1.12M40.99,36.57c-.09-.05-.18-.11-.3-.18-.15-.09-.23-.14-.3-.18-.25-.15-.42-.26-.6-.37-.02,0-.03-.02-.05-.03.74-1.89,1.2-4.14,1.37-6.79.03-.43.04-.86.03-1.29.26.14.51.3.75.46,2.02,1.44,3.03,3.94,2.78,7.94-.06.86-.16,1.67-.31,2.41-.96-.49-1.98-1.1-3.37-1.96M34.7,33.14c-.95-.37-1.9-.66-2.88-.86l.64-5.78h2.59c1.16,0,2.22.09,3.17.25.07.66.09,1.34.05,2.06-.14,2.18-.49,4.01-1.02,5.52-.89-.48-1.69-.86-2.55-1.19M28.17,16.68h-4.64l-1.37,11.67,2.82.33,1.08-9.16h2.57c.84,0,1.57,0,2.16,0,2.99.01,5.37,1.66,6.6,4.25-.74-.07-1.52-.11-2.33-.11-1.26,0-2.41,0-3.38,0h-1.77s-.91,8.28-.91,8.28c-.22,0-.44-.01-.66-.01-2,0-3.83.32-5.28,1.02-1.86.89-3.04,2.39-3.24,4.41-.16,1.68.53,3.26,2,4.36,1.38,1.03,3.37,1.61,5.92,1.68l-.64,5.72h1.58s.1,0,.19,0h4.96c8.06-.02,13.11-4.02,13.68-12.83.32-4.94-1.08-8.39-3.96-10.44-.87-.62-1.83-1.09-2.88-1.43-1.28-4.54-4.96-7.73-9.85-7.75h-2.64" style="fill: none; stroke-width: 0px;"></path>
    </clipPath>
    <clipPath id="clippath-3">
      <rect class="cls-2" x="-75.11" y="-86.33" width="345.13" height="244.03" style="fill: none; stroke-width: 0px;"></rect>
    </clipPath>
  </defs>
  <g>
    <g class="cls-1" style="clip-path: url(#clippath);" transform="matrix(1, 0, 0, 1, 262.63623, 180.341705)" id="object-0">
      <g class="cls-5" style="clip-path: url(#clippath-1);">
        <g>
          <g id="object-1">
            <path class="cls-4" d="M-1.19-1.18h68.5v68.49H-1.19V-1.18Z" style="fill: rgb(1, 1, 1); stroke-width: 0px;"></path>
          </g>
        </g>
      </g>
    </g>
    <g>
      <g>
        <g>
          <g>
            <g>
              <g class="cls-7" style="clip-path: url(#clippath-2);" transform="matrix(1, 0, 0, 1, 262.63623, 180.341705)">
                <g class="cls-6" style="clip-path: url(#clippath-3);">
                  <path class="cls-3" d="M18.6,15.49h30.14v34.83h-30.14V15.49Z" style="fill: rgb(255, 255, 255); stroke-width: 0px;"></path>
                </g>
              </g>
            </g>
          </g>
        </g>
      </g>
    </g>
  </g>
</svg>
