<svg xmlns="http://www.w3.org/2000/svg" viewBox="1262.0931 53.7374 469.8115 362.9776" width="165.739mm" height="128.051mm">
  <defs>
    <linearGradient id="uuid-322dd4bf-6468-4802-81f0-34e7895d3bfc" x1="1375.183" y1="382.803" x2="1624.758" y2="124.409" href="#uuid-0d84af2e-598e-404c-a801-c86ef3839255"></linearGradient>
    <linearGradient id="uuid-0d84af2e-598e-404c-a801-c86ef3839255" x1="1417.199" y1="422.412" x2="1503.037" y2="377.73" gradientUnits="userSpaceOnUse">
      <stop offset="0" stop-color="#2b4d9b"></stop>
      <stop offset="1" stop-color="#388ecc"></stop>
    </linearGradient>
  </defs>
  <path d="M1722.647,242.763c-14.906-9.294-18.461-20.38-18.516-20.559l-.241-.737c-13.879-38.211-44.129-52.107-68.867-52.528-19.619-78.778-118.091-103.856-145.801-100.467-25.192,2.963-46.172-5.34-46.368-5.422l-4.577-1.887c-.247-.167-15.279-8.236-17.852-7.359-3.397,1.157,6.237,23.823,8.595,29.3.015.034.029.068.044.103.317.735.506,1.164.506,1.164l.039-.103c14.153,30.35,65.541,68.762,112.442,73.861,19.829,2.15,21.172,14.737,22.595,28.069.307,2.88.603,5.663,1.092,8.281l-21.985.909c-60.595-35.73-113.881-47.243-158.392-34.228-47.856,13.986-64.747,44.728-68.03,53.409l-.389.923c-.207.551-1.771,4.754-3.658,11.347-3.452-2.039-7.255-3.404-11.217-4.01-9.367-1.419-18.716,1.399-26.284,7.944-7.038,6.091-11.726,14.779-13.201,24.466-1.516,9.935.524,19.836,5.739,27.876,5.302,8.171,13.221,13.435,22.302,14.813,5.763.882,11.513.103,16.983-2.232,2.322,12.698,6.986,23.48,13.904,32.106,16.728,20.848,45.355,28.565,85.178,22.908l57.254-10.031c6.506-1.398,10.538-7.82,9.525-13.504-.586-3.293-2.873-6.132-6.273-7.785-3.08-1.516-6.809-1.77-10.537-1.238-.232.033-.419.066-.755.115l-52.869,8.977c-30.659,4.368-51.866-.441-62.986-14.282-8.433-10.5-11.788-26.443-9.935-47.422.062-.4.083-.792.117-1.585,1.988-20.153,7.951-37.832,8.788-39.685,7.834-17.353,18.134-30.253,53.341-40.408,38.569-11.127,86.418.207,142.184,33.684l2.966,1.778,56.406-1.902-1.357-13.38c-.424-2.646-.768-5.615-1.14-8.784-2.618-22.447-6.58-56.372-46.795-60.74-30.325-3.293-62.29-23.136-80.693-42.427,9.504,1.047,18.912,1.04,28.059-.034,11.313-1.302,39.506,3.762,66.793,19.133,22.013,12.395,49.406,34.959,54.894,72.074l1.809,12.181,12.119-2.253c1.547-.282,38.19-6.738,53.861,36.061.954,3.011,6.432,17.955,24.469,30.894-9.739,8.461-43.195,24.982-68.095,22.667l-7.258-.655-2.243,4.692c-4.664,8.846-22.116,37.852-50.881,39.595-26.732,1.619-44.77,13.345-55.597,23.597l-6.311-3.08c10.576-28.324,10.187-51.77-1.168-69.724-17.8-28.131-55.104-31.073-62.004-31.342l-.954-.062s-2.451.027-3.789.372c-6.538,1.199-11.227,5.56-11.382,11.024-.152,5.464,4.509,10.197,11.058,11.706l3.428.51c.313.007,31.338.903,43.685,20.414,8.25,13.049,6.642,32.575-4.785,58.032l-4.685,10.438,116.296,56.648,3.524,1.178c1.519.372,3.028.558,4.471.558,4.875,0,9.063-2.094,10.865-5.898,2.429-5.147-.183-11.506-6.111-15.605l-68.825-33.815c9.697-6.786,21.014-10.61,33.708-11.382,33.477-2.026,54.953-27.407,65.287-43.509,31.045-.903,75.233-19.05,85.454-38.865,1.648-3.476,2.132-6.683,2.132-6.683.927-7.158-2.411-14.028-9.101-18.196ZM1306.802,259.415l-.317,3.162c-1.378,7.413-6.873,12.739-12.284,11.878-2.58-.393-4.861-2.129-6.414-4.878-1.712-3.038-2.329-6.855-1.733-10.762.627-4.106,2.494-7.682,5.267-10.08,1.888-1.64,3.989-2.508,6.073-2.508.369,0,.734.028,1.102.083,2.387.365,4.561,1.943,6.115,4.444,1.533,2.473,2.284,5.56,2.191,8.66Z" style="fill:url(#uuid-322dd4bf-6468-4802-81f0-34e7895d3bfc);" transform="matrix(1, 0, 0, 1, -2.2737367544323206e-13, 2.842170943040401e-14)"></path>
</svg>
