<svg xmlns="http://www.w3.org/2000/svg" viewBox="0 0 258 256">
  <g id="Layer" fill-rule="evenodd">
    <path fill="#ff9c00" d="M556.1 126v1.8c-.3 16.5-3.7 32.3-10 47.4-6.4 15.1-15.4 28.5-27.2 40.2-12.1 12-25.8 21.1-41.2 27.4-15.4 6.3-31.7 9.4-48.9 9.4s-33.5-3.1-48.7-9.4c-15.3-6.3-28.9-15.4-41-27.4-11.8-11.7-20.9-25.1-27.2-40.2-6.4-15.1-9.7-30.9-10-47.4v-2.2c.3-16.8 3.7-32.6 10-47.4 6.4-14.8 15.4-28.2 27.2-40.2 12.1-11.7 25.7-20.7 41-27 15.2-6.3 31.5-9.4 48.7-9.4 17.2 0 33.5 3.1 48.9 9.4 15.4 6.3 29.1 15.3 41.2 27 11.8 12 20.9 25.5 27.2 40.5 6.3 15 9.6 30.9 10 47.5Zm-40.2 37.3c5-11.2 7.5-23.3 7.5-36.2 0-12.9-2.5-25-7.5-36.2-5-11.2-11.8-21-20.4-29.4-8.6-8.4-18.6-15.1-30.1-20s-23.7-7.4-36.7-7.4c-12.7 0-24.6 2.4-35.8 7-11.2 4.6-21.1 11.1-29.7 19.1-8.6 8-15.5 17.6-20.6 28.5-5.2 11-7.9 22.7-8.2 35.3v3.1c0 12.9 2.5 25 7.5 36.2 5 11.2 11.8 21 20.4 29.4 8.6 8.4 18.6 15.1 29.9 20 11.4 4.9 23.5 7.4 36.5 7.4s25.2-2.5 36.7-7.4c11.4-4.9 21.5-11.6 30.1-20 8.6-8.3 15.4-18.2 20.4-29.4Z"/>
    <path fill="#4ea6b9" d="M-804.8 224.2c3.3 3.3 5 7.2 5 11.7 0 4.8-1.7 8.8-5 11.9-3.3 3.1-7.4 4.7-12.2 4.7h-65.9c-17.2 0-33.5-3.1-48.7-9.4-15.3-6.3-29.1-15.4-41.5-27.4-12-12-21.3-25.6-27.6-40.9-6.3-15.3-9.5-31.5-9.5-48.6V-87.3c0-4.8 1.7-8.8 5-11.9 3.3-3.1 7.3-4.7 11.8-4.7 4.8 0 8.8 1.6 12 4.7 3.2 3.1 4.8 7.1 4.8 11.9v213.6c0 12.9 2.5 25 7.5 36.2 5 11.2 11.7 21 20.2 29.4 8.5 8.4 18.4 15.1 29.7 20 11.4 4.9 23.5 7.4 36.5 7.4h65.7c4.8 0 8.9 1.6 12.2 4.9Zm260.5-223c4.5 0 8.4 1.6 11.2 4.7 3.2 3.2 4.8 7 4.8 11.5v118.7c0 15.9-2.9 30.9-8.8 45-5.9 14.1-14.4 26.7-25.6 37.8-11.2 11.1-23.9 19.6-38.1 25.4-14.2 5.9-29.3 8.8-45.3 8.8-15.7 0-30.8-3-45.1-8.8-14.4-5.8-27.1-14.3-38.3-25.4-11.2-11.1-19.7-23.7-25.6-37.8-5.9-14.1-8.8-29.1-8.8-45V17.4c0-4.5 1.6-8.4 4.8-11.5 3.2-3.1 7.1-4.7 11.6-4.7 4.6 0 8.4 1.6 11.6 4.7 3.2 3.2 4.8 7 4.8 11.5V136c0 11.6 2.2 22.7 6.6 33 4.4 10.4 10.4 19.4 18.1 27 7.7 7.7 16.8 13.7 27.2 18 10.4 4.3 21.5 6.5 33.3 6.5 11.8 0 22.8-2.2 33.1-6.5 10.3-4.4 19.3-10.4 27-18 7.7-7.6 13.8-16.5 18.3-26.7s6.8-21.1 6.8-32.8V17.4c0-4.5 1.6-8.4 4.8-11.5 3.2-3.1 7.1-4.7 11.6-4.7Zm456.2 33.3c11.1 11.1 19.7 23.7 26.2 38 5.9 14.2 8.8 29.1 8.8 44.7v119.1c0 4.5-1.6 8.4-4.8 11.5-3.2 3.1-7.1 4.7-11.6 4.7-4.6 0-8.4-1.6-11.6-4.7-3.2-3.2-4.8-7-4.8-11.5V117.2c0-11.7-2.3-22.6-6.8-32.8-4.5-10.1-10.6-19.1-18.3-26.7-7.7-7.6-16.8-13.7-27.2-18.2-10.4-4.5-21.5-6.7-33.3-6.7-11.8 0-22.8 2.2-33.1 6.7s-19.3 10.6-27 18.2c-7.7 7.6-13.8 16.5-18.3 26.7s-6.8 21.1-6.8 32.8v119.1c0 4.5-1.6 8.4-4.8 11.5-3.2 3.1-7.1 4.7-11.6 4.7-4.6 0-8.4-1.6-11.6-4.7-3.2-3.2-4.8-7-4.8-11.5V117.2c0-11.7-2.3-22.6-6.8-32.8-4.5-10.1-10.6-19.1-18.3-26.7-7.7-7.6-16.8-13.7-27.2-18.2-10.4-4.5-21.5-6.7-33.3-6.7-11.8 0-22.8 2.2-33.1 6.7s-19.3 10.6-27 18.2c-7.7 7.6-13.8 16.5-18.3 26.7s-6.8 21.1-6.8 32.8v119.2c0 4.5-1.6 8.4-4.8 11.5-3.2 3.1-7.1 4.7-11.6 4.7-4.6 0-8.4-1.6-11.6-4.7-3.2-3.2-4.8-7-4.8-11.5V117.3c0-15.5 2.9-30.5 8.8-44.7 5.9-14.2 14.4-26.9 25.6-38 11.2-11.1 24-19.6 38.3-25.4C-406 3.3-391 .4-375.3.4c16 0 31.1 3 45.3 8.8 14.2 5.8 27 14.3 38.5 25.4 3.3 3.6 6.5 7.3 9.7 11.2 3.2 3.9 6 7.9 8.4 12.1 4.8-8.4 10.9-16.2 18.1-23.4 11.2-11.1 24-19.6 38.3-25.4 14.4-5.9 29.4-8.8 45.1-8.8 16 0 31.1 3 45.3 8.8 14.2 5.8 27 14.3 38.5 25.4ZM251.8 5.9c3.2 3.2 4.8 7 4.8 11.5v219.5c0 4.5-1.6 8.4-4.8 11.5-3.2 3.1-7.1 4.7-11.6 4.7-4.6 0-8.5-1.6-11.8-4.7-3.3-3.2-5-7-5-11.5v-25.6c-.9 1.2-2.4 2.8-4.5 4.9-12.1 12-25.8 21.1-41 27.4-15.3 6.3-31.5 9.4-48.7 9.4-17.2 0-33.5-3.1-48.9-9.4-15.4-6.3-29.1-15.4-41.2-27.4-11.8-11.7-20.9-25.1-27.2-40.2-6.4-15.2-9.7-31.1-10-47.9v-1.8c.3-16.8 3.7-32.7 10-47.7 6.4-15 15.4-28.3 27.2-40 12.1-12 25.8-21.1 41.2-27.4 15.4-6.3 31.7-9.4 48.9-9.4s33.4 3.1 48.7 9.4c15.2 6.3 28.9 15.4 41 27.4.9.6 1.7 1.3 2.5 2.2.7.8 1.4 1.6 2 2.2V17.4c0-4.5 1.7-8.4 5-11.5 3.3-3.1 7.3-4.7 11.8-4.7 4.6 0 8.4 1.6 11.6 4.7Zm-35.7 157.6c4.9-11.4 7.4-23.5 7.5-36.4 0-12.9-2.5-25-7.5-36.2-5-11.2-11.7-21-20.2-29.4-8.5-8.4-18.4-15.1-29.9-20s-23.7-7.4-36.7-7.4c-12.7 0-24.7 2.4-36 7S72 52.1 63.4 60.2c-8.6 8-15.5 17.6-20.6 28.5-5.2 11-7.9 22.7-8.2 35.3v3.6c0 12.9 2.5 25 7.5 36.2 5 11.2 11.8 21 20.4 29.4 8.6 8.4 18.6 15.1 30.1 20s23.7 7.4 36.7 7.4c13 0 25.2-2.5 36.7-7.4 11.5-4.9 21.4-11.6 29.9-20s15.2-18.3 20.2-29.7ZM140.9 99c3.2 3.2 4.8 7 4.8 11.5v41.4c0 4.5-1.6 8.4-4.8 11.5-3.2 3.1-7.1 4.7-11.6 4.7-4.6 0-8.4-1.6-11.6-4.7-3.2-3.2-4.8-7-4.8-11.5v-41.4c0-4.5 1.6-8.4 4.8-11.5 3.2-3.1 7.1-4.7 11.6-4.7s8.4 1.6 11.6 4.7Z"/>
  </g>
</svg>
