<svg width="384" height="384" viewBox="0 0 384 384" fill="none" xmlns="http://www.w3.org/2000/svg">
<path d="M5.89356 192H11.7489C11.7489 167.086 16.8005 143.397 25.9087 121.851C39.5711 89.5133 62.4564 61.9589 91.2354 42.5178C120.014 23.0767 154.649 11.7489 192 11.7489C216.914 11.7489 240.603 16.8005 262.149 25.9087C294.487 39.5711 322.041 62.4565 341.482 91.2354C360.923 120.014 372.251 154.649 372.251 192C372.251 216.914 367.2 240.603 358.091 262.149C344.429 294.487 321.544 322.041 292.765 341.482C263.986 360.923 229.351 372.251 192 372.251C167.086 372.251 143.397 367.2 121.851 358.091C89.5133 344.429 61.9589 321.544 42.5178 292.765C23.0767 263.986 11.7489 229.351 11.7489 192H0C0 218.483 5.35778 243.779 15.0783 266.741C29.6592 301.222 53.9988 330.499 84.653 351.203C115.307 371.907 152.276 384 192 384C218.483 384 243.779 378.642 266.741 368.922C301.222 354.341 330.499 330.001 351.203 299.347C371.907 268.693 384 231.724 384 192C384 165.517 378.642 140.221 368.922 117.259C354.341 82.7778 330.001 53.5013 299.347 32.7973C268.693 12.0933 231.724 0 192 0C165.517 0 140.221 5.35779 117.259 15.0783C82.7778 29.6592 53.5013 53.9988 32.7973 84.653C12.0933 115.307 0 152.276 0 192H5.85529H5.89356Z" fill="#E84127"/>
<path d="M192.038 191.923L206.657 206.543C209.221 209.107 211.173 212.053 212.512 215.268C213.852 218.483 214.541 221.965 214.541 225.601C214.541 229.237 213.852 232.719 212.512 235.934C211.173 239.148 209.221 242.095 206.657 244.659C204.093 247.223 201.146 249.175 197.932 250.515C194.717 251.854 191.234 252.543 187.599 252.543C183.963 252.543 180.48 251.854 177.266 250.515C174.051 249.175 171.104 247.223 168.54 244.659L161.154 237.273L152.85 245.578L160.236 252.964C163.871 256.6 168.158 259.432 172.788 261.383C177.419 263.297 182.471 264.33 187.599 264.33C192.765 264.33 197.778 263.335 202.409 261.383C207.04 259.47 211.326 256.6 214.962 252.964C218.597 249.328 221.429 245.042 223.381 240.411C225.294 235.781 226.328 230.729 226.328 225.601C226.328 220.435 225.333 215.421 223.381 210.791C221.468 206.16 218.597 201.874 214.962 198.238L200.343 183.619L192.038 191.923Z" fill="#E84127"/>
<path d="M212.283 171.679L226.902 186.298C232.183 191.579 236.24 197.664 238.995 204.323C241.751 210.982 243.205 218.177 243.205 225.601C243.205 233.064 241.751 240.22 238.995 246.879C236.24 253.538 232.183 259.623 226.902 264.904C221.621 270.185 215.536 274.242 208.877 276.998C202.218 279.753 195.023 281.207 187.599 281.207C180.136 281.207 172.98 279.753 166.321 276.998C159.662 274.242 153.577 270.185 148.296 264.904L140.833 257.442L132.528 265.746L139.991 273.209C146.344 279.562 153.73 284.498 161.805 287.828C169.88 291.157 178.605 292.918 187.599 292.918C196.554 292.918 205.318 291.157 213.393 287.828C221.468 284.498 228.892 279.562 235.206 273.209C241.559 266.856 246.496 259.47 249.826 251.395C253.155 243.32 254.915 234.594 254.915 225.601C254.915 216.646 253.155 207.882 249.826 199.807C246.496 191.732 241.559 184.308 235.206 177.993L220.587 163.374L212.283 171.679Z" fill="#E84127"/>
<path d="M192.038 192.077L177.419 177.457C174.855 174.893 172.903 171.947 171.564 168.732C170.224 165.517 169.536 162.035 169.536 158.399C169.536 154.763 170.224 151.281 171.564 148.066C172.903 144.852 174.855 141.905 177.419 139.341C179.983 136.777 182.93 134.825 186.145 133.485C189.359 132.146 192.842 131.457 196.478 131.457C200.113 131.457 203.596 132.146 206.811 133.485C210.025 134.825 212.972 136.777 215.536 139.341L221.659 145.464L229.964 137.159L223.841 131.036C220.205 127.4 215.919 124.568 211.288 122.617C206.657 120.703 201.606 119.67 196.478 119.67C191.311 119.67 186.298 120.665 181.667 122.617C177.037 124.53 172.75 127.4 169.115 131.036C165.479 134.672 162.647 138.958 160.695 143.589C158.782 148.219 157.749 153.271 157.749 158.399C157.749 163.565 158.744 168.579 160.695 173.209C162.609 177.84 165.479 182.126 169.115 185.762L183.734 200.381L192.038 192.077Z" fill="#E84127"/>
<path d="M171.831 212.321L157.212 197.702C151.931 192.421 147.874 186.336 145.119 179.677C142.363 173.018 140.909 165.823 140.909 158.399C140.909 150.936 142.363 143.78 145.119 137.121C147.874 130.462 151.931 124.377 157.212 119.096C162.493 113.815 168.578 109.758 175.237 107.003C181.896 104.247 189.091 102.793 196.515 102.793C203.978 102.793 211.134 104.247 217.793 107.003C224.452 109.758 230.537 113.815 235.818 119.096L241.75 125.028L250.055 116.723L244.123 110.791C237.77 104.439 230.384 99.5017 222.309 96.1722C214.234 92.8428 205.508 91.0823 196.515 91.0823C187.56 91.0823 178.796 92.8428 170.721 96.1722C162.646 99.5017 155.222 104.439 148.907 110.791C142.554 117.144 137.618 124.53 134.288 132.605C130.959 140.68 129.198 149.406 129.198 158.399C129.198 167.354 130.959 176.118 134.288 184.193C137.618 192.268 142.554 199.692 148.907 206.007L163.526 220.626L171.831 212.321Z" fill="#E84127"/>
<path d="M263.143 281.284C268.088 281.284 272.098 277.274 272.098 272.329C272.098 267.383 268.088 263.373 263.143 263.373C258.197 263.373 254.188 267.383 254.188 272.329C254.188 277.274 258.197 281.284 263.143 281.284Z" fill="#E84127"/>
</svg>
