<svg width="1410" height="500" viewBox="0 0 1410 500" fill="none" xmlns="http://www.w3.org/2000/svg">
<g clip-path="url(#clip0_301_1331)">
<path d="M1012.19 206.711C1049.96 206.711 1080.63 237.441 1080.63 275.143C1080.63 312.842 1049.89 343.572 1012.19 343.572C974.484 343.572 943.751 312.842 943.751 275.143C943.751 237.441 974.413 206.711 1012.19 206.711ZM1344.35 206.568C1361.63 206.568 1377.85 213.468 1390.16 225.916C1402.4 238.364 1409.15 254.726 1409.15 272.082V287.092H1309.63C1314.04 302.883 1328.41 313.98 1345.06 313.98C1358.08 313.98 1369.81 307.365 1376.57 296.197L1377.92 293.992L1404.96 307.293L1403.39 309.925C1391.08 330.625 1368.53 343.501 1344.49 343.501H1344.42C1326.06 343.501 1308.84 336.245 1295.83 323.085C1282.81 309.925 1275.77 292.568 1275.98 274.217C1276.19 256.22 1283.31 239.361 1295.97 226.628C1308.63 213.895 1325.56 206.782 1343.49 206.568H1344.35ZM1131 340.94H1098.27V143.544H1131V340.94ZM1193.6 340.94H1160.87V143.544H1193.6V340.94ZM1256.2 340.87H1223.48V209.983H1256.2V340.87ZM867.203 206.568C868.981 206.568 870.69 206.639 872.468 206.781C887.407 208.062 901.138 214.962 911.169 226.201C921.199 237.369 926.749 251.81 926.749 266.818V340.798H894.023V265.894C893.952 251.169 881.787 239.148 866.99 239.147C866.137 239.147 865.212 239.219 864.287 239.29C851.055 240.642 839.956 253.161 839.956 266.676V340.798H807.231V266.107C807.16 251.311 795.067 239.219 780.27 239.219C779.416 239.219 778.491 239.289 777.566 239.36C764.405 240.712 753.236 253.232 753.236 266.818V340.798H721.223V265.894C721.223 233.172 747.9 206.568 780.625 206.568C796.987 206.568 812.567 213.397 823.808 225.276C835.048 213.326 850.699 206.568 867.203 206.568ZM1012.19 239.219C992.34 239.219 976.192 255.367 976.191 275.213C976.191 295.059 992.34 311.206 1012.19 311.206C1032.04 311.206 1048.19 295.059 1048.19 275.213C1048.19 255.367 1032.04 239.219 1012.19 239.219ZM1343.06 236.302C1328.12 236.302 1314.75 246.118 1310.13 260.061H1376.07C1371.38 246.118 1358 236.302 1343.06 236.302ZM1239.84 140.342C1251.63 140.342 1261.18 149.896 1261.18 161.682C1261.18 173.468 1251.63 183.022 1239.84 183.022C1228.05 183.022 1218.5 173.467 1218.5 161.682C1218.5 149.896 1228.05 140.342 1239.84 140.342Z" fill="black"/>
</g>
<rect x="575.54" width="1.79856" height="500" fill="black" fill-opacity="0.5"/>
<path d="M216.143 498.554L216.73 498.877L216.143 499.228L0.702967 374.818L0 374.406V124.822L0.702967 124.412L216.143 248.823L216.73 248.469L216.817 248.558L216.143 248.939V498.554Z" fill="#988F85"/>
<path d="M431.614 124.413L216.73 248.469L216.143 248.823L0.702967 124.412L216.143 0L431.614 124.413Z" fill="#CEC2B6"/>
<path d="M432.317 124.821V374.406L431.614 374.818L216.73 498.877L216.143 498.554V248.939L216.817 248.558L431.732 124.47L432.317 124.821Z" fill="#675F57"/>
<path d="M216.107 77.6486L363.879 163.625V335.577L216.107 421.553L68.3345 335.577V163.625L216.107 77.6486Z" fill="#D65326"/>
<path d="M216.107 119.174C142.83 119.174 83.4267 178.577 83.4267 251.854C83.4267 325.131 142.83 384.534 216.107 384.534C289.384 384.534 348.787 325.131 348.787 251.854C348.787 178.577 289.384 119.174 216.107 119.174Z" fill="#EC8120"/>
<path d="M216.119 334.299L216.319 334.41L216.119 334.53L142.823 292.203L142.584 292.063V207.151L142.823 207.012L216.119 249.339L216.319 249.218L216.348 249.25L216.119 249.377V334.299Z" fill="#988F85"/>
<path d="M289.425 207.011L216.319 249.218L216.119 249.339L142.823 207.012L216.119 164.686L289.425 207.011Z" fill="#CEC2B6"/>
<path d="M289.663 207.151V292.063L289.425 292.203L216.319 334.41L216.119 334.299V249.377L216.348 249.25L289.463 207.033L289.663 207.151Z" fill="#675F57"/>
<defs>
<clipPath id="clip0_301_1331">
<rect width="687.932" height="203.513" fill="white" transform="translate(721.223 140.342)"/>
</clipPath>
</defs>
</svg>
